<svg width="716" height="444" viewBox="0 0 716 444" fill="none" xmlns="http://www.w3.org/2000/svg">
<path d="M189.671 107.531C177.638 107.531 167.86 116.395 167.86 127.537C167.86 138.679 172.269 149.366 180.116 157.246C187.962 165.124 198.604 171.584 209.7 171.584C226.569 171.584 242.744 162.822 254.672 150.846C266.598 138.871 274.16 124.054 274.16 107.118C274.16 79.0375 262.19 52.3614 242.416 32.5058C222.642 12.6503 196.205 0.500023 168.241 0.500024C146.26 0.48658 124.111 5.82059 103.8 14.2619C83.4891 22.7033 65.0341 35.0805 49.4897 50.6893C33.9469 66.2964 21.6192 84.8278 13.2127 105.223C4.80787 125.618 0.488316 147.478 0.500032 169.551L0.500032 167.87C0.478277 203.849 7.51905 239.479 21.2208 272.724C34.9226 305.968 55.016 336.174 80.3526 361.616C105.688 387.056 135.769 407.233 168.876 420.991C201.983 434.75 237.506 443.522 273.336 443.5C515.69 443.5 713.5 244.898 713.5 1.5223L713.5 3.20287C713.5 2.43939 713.499 1.6762 713.496 0.913272" stroke="#404040" stroke-linecap="round" stroke-linejoin="round"/>
<path d="M0.499988 171.293L168.191 171.293M0.499988 171.293L0.499981 0.5L168.515 0.499993M0.499988 171.293L0.5 443.498L274.295 443.5L274.295 171.343M274.295 106.905L168.515 106.903L168.515 0.499993M274.295 106.905L274.295 0.503284L168.515 0.499993M274.295 106.905L274.295 171.343M210.339 106.903L210.339 171.342L274.295 171.343M189.568 129.452L189.568 106.903L168.192 106.903L168.192 129.452M210.248 171.342L210.248 129.469L168.176 129.469L168.176 171.342L210.248 171.342Z" stroke="#404040" stroke-linecap="round" stroke-linejoin="round"/>
<path d="M274.5 0.5L274.5 443.5L713.5 443.5L713.5 0.500019L274.5 0.5Z" stroke="#404040"/>
</svg>
