<svg width="1401" height="868" viewBox="0 0 1401 868" fill="none" xmlns="http://www.w3.org/2000/svg">
<path d="M407 230.53C407 215.898 396.275 204.008 382.794 204.008C369.313 204.008 356.383 209.369 346.849 218.911C337.316 228.452 329.5 241.393 329.5 254.885C329.5 275.397 340.102 295.066 354.591 309.57C369.081 324.072 387.008 333.268 407.5 333.268C441.475 333.268 473.751 318.712 497.775 294.667C521.799 270.623 536.5 238.476 536.5 204.471C536.516 177.743 530.062 150.809 519.849 126.111C509.636 101.414 494.66 78.9727 475.774 60.0709C456.891 41.1711 434.469 26.1807 409.793 15.9585C385.116 5.73831 358.666 0.485777 331.96 0.500023H333.994C290.462 0.473567 247.351 9.03506 207.128 25.6963C166.904 42.3574 130.357 66.7908 99.5741 97.5998C68.7935 128.407 44.3812 164.986 27.7343 205.244C11.0874 245.501 0.473569 288.696 0.500003 332.265C0.500003 626.965 240.795 867.5 535.263 867.5H533.23C534.153 867.5 535.077 867.499 536 867.496" stroke="#404040" stroke-linecap="round" stroke-linejoin="round"/>
<path d="M534.183 867C533.907 867 533.683 867.224 533.683 867.5C533.683 867.776 533.907 868 534.183 868V867.5V867ZM536.22 868C536.496 868 536.72 867.776 536.72 867.5C536.72 867.224 536.496 867 536.22 867V867.5V868ZM0.500244 332.265H1.00024V332.265L0.500244 332.265ZM99.7515 97.5998L99.3981 97.2461L99.7515 97.5998ZM334.59 0.5V1C334.867 1 335.09 0.776245 335.09 0.500183C335.091 0.224121 334.867 0.000183105 334.591 0L334.59 0.5ZM332.553 0.5L332.553 0C332.277 0.000183105 332.053 0.22406 332.053 0.500183C332.053 0.776245 332.277 1 332.553 1V0.5ZM410.525 15.9585L410.716 15.4964V15.4964L410.525 15.9585ZM476.625 60.0709L476.978 59.7172V59.7172L476.625 60.0709ZM536.883 204.471L536.383 204.47V204.471H536.883ZM355.225 309.57L354.872 309.924V309.924L355.225 309.57ZM347.468 218.911L347.115 218.557V218.557L347.468 218.911ZM407.227 230.53C407.227 230.806 407.451 231.03 407.727 231.03C408.003 231.03 408.227 230.806 408.227 230.53H407.727H407.227ZM1400.5 0.999695H1400C1400 478.784 1012.41 867 534.183 867V867.5V868C1012.96 868 1401 479.336 1401 0.999695H1400.5ZM534.183 867.5V868H536.22V867.5V867H534.183V867.5ZM536.22 867.5V867C241.501 867 1.00024 626.688 1.00024 332.265H0.500244H0.000244141C0.000244141 627.242 240.95 868 536.22 868V867.5ZM0.500244 332.265L1.00024 332.265C0.973755 288.776 11.5872 245.647 28.245 205.435L27.7831 205.244L27.3212 205.052C10.6256 245.356 -0.0263672 288.616 0.000244141 332.266L0.500244 332.265ZM27.7831 205.244L28.245 205.435C44.8966 165.238 69.3157 128.714 100.105 97.9536L99.7515 97.5998L99.3981 97.2461C68.5159 128.1 44.0231 164.733 27.3212 205.052L27.7831 205.244ZM99.7515 97.5998L100.105 97.9536C130.896 67.1909 167.454 42.7944 207.688 26.1583L207.497 25.6963L207.306 25.2342C166.95 41.9205 130.282 66.3906 99.3981 97.2461L99.7515 97.5998ZM207.497 25.6963L207.688 26.1583C247.923 9.52222 291.046 0.973633 334.59 1L334.59 0.5L334.591 0C290.916 -0.0264893 247.662 8.54791 207.306 25.2342L207.497 25.6963ZM334.59 0.5V0H332.553V0.5V1H334.59V0.5ZM332.553 0.5L332.554 1C359.242 0.98584 385.674 6.22546 410.334 16.4205L410.525 15.9585L410.716 15.4964C385.935 5.25116 359.372 -0.0142822 332.553 0L332.553 0.5ZM410.525 15.9585L410.334 16.4205C434.994 26.6176 457.4 41.5712 476.271 60.4246L476.625 60.0709L476.978 59.7172C458.014 40.7709 435.497 25.7437 410.716 15.4964L410.525 15.9585ZM476.625 60.0709L476.271 60.4246C495.144 79.2799 510.11 101.666 520.316 126.303L520.778 126.111L521.24 125.92C510.983 101.162 495.944 78.6654 476.978 59.7172L476.625 60.0709ZM520.778 126.111L520.316 126.303C530.526 150.946 536.399 177.814 536.383 204.47L536.883 204.471L537.383 204.471C537.399 177.67 531.494 150.672 521.24 125.92L520.778 126.111ZM536.883 204.471H536.383C536.383 238.334 522.29 270.357 498.311 294.313L498.665 294.667L499.018 295.021C523.173 270.889 537.383 238.616 537.383 204.471H536.883ZM498.665 294.667L498.311 294.313C474.33 318.273 442.12 332.768 408.228 332.768V333.268V333.768C442.408 333.768 474.866 319.151 499.018 295.021L498.665 294.667ZM408.228 333.268V332.768C387.861 332.768 370.022 323.647 355.578 309.216L355.225 309.57L354.872 309.924C369.458 324.497 387.539 333.768 408.228 333.768V333.268ZM355.225 309.57L355.578 309.216C341.127 294.776 330.589 275.227 330.589 254.885H330.089H329.589C329.589 275.567 340.292 295.356 354.872 309.924L355.225 309.57ZM330.089 254.885H330.589C330.589 241.579 338.32 228.758 347.822 219.265L347.468 218.911L347.115 218.557C337.518 228.145 329.589 241.206 329.589 254.885H330.089ZM347.468 218.911L347.822 219.265C357.279 209.816 370.105 204.508 383.478 204.508V204.008V203.508C369.84 203.508 356.76 208.921 347.115 218.557L347.468 218.911ZM383.478 204.008V204.508C396.664 204.508 407.227 216.129 407.227 230.53H407.727H408.227C408.227 215.667 397.302 203.508 383.478 203.508V204.008Z" fill="#404040"/>
<path d="M329.852 0.5V203.84M329.852 0.5H536.5V204.232M329.852 0.5H0.502648L0.5 332.5H329.791M407.757 332.5L407.759 204.232H536.5M407.757 332.5H536.496L536.5 204.232M407.757 332.5L329.791 332.5M407.759 254.948H329.793L329.791 332.5M380.477 229.762H407.759V203.841H380.477M329.793 254.838H380.456V203.822H329.793V254.838Z" stroke="#404040" stroke-linecap="round" stroke-linejoin="round"/>
<path d="M0.5 332.5H536.5V867.5H0.5V332.5Z" stroke="#404040"/>
<path d="M536.5 0.5H1400.5V867.5H536.5V0.5Z" stroke="#404040"/>
</svg>
