<svg width="444" height="716" viewBox="0 0 444 716" fill="none" xmlns="http://www.w3.org/2000/svg">
<path d="M336.469 189.671C336.469 177.638 327.605 167.86 316.463 167.86C305.321 167.86 294.634 172.269 286.754 180.116C278.876 187.962 272.416 198.604 272.416 209.7C272.416 226.569 281.178 242.744 293.154 254.672C305.129 266.598 319.946 274.16 336.882 274.16C364.962 274.16 391.639 262.19 411.494 242.416C431.35 222.642 443.5 196.205 443.5 168.241C443.513 146.26 438.179 124.111 429.738 103.8C421.297 83.4891 408.92 65.0341 393.311 49.4896C377.704 33.9469 359.172 21.6192 338.777 13.2127C318.382 4.80786 296.522 0.48831 274.449 0.500025H276.13C240.151 0.478268 204.521 7.51904 171.276 21.2208C138.032 34.9226 107.826 55.016 82.384 80.3526C56.944 105.688 36.7675 135.769 23.0089 168.876C9.25038 201.983 0.478161 237.506 0.500008 273.336C0.500008 515.69 199.102 713.5 442.478 713.5H440.797C441.561 713.5 442.324 713.499 443.087 713.496" stroke="#404040" stroke-linecap="round" stroke-linejoin="round"/>
<path d="M272.707 0.5V168.191M272.707 0.5H443.5V168.515M272.707 0.5H0.502189L0.5 274.295H272.657M337.095 274.295L337.096 168.515H443.5M337.095 274.295H443.497L443.5 168.515M337.095 274.295L272.657 274.295M337.097 210.339H272.658L272.657 274.295M314.548 189.568H337.096V168.192H314.548M272.658 210.248H314.531V168.176H272.658V210.248Z" stroke="#404040" stroke-linecap="round" stroke-linejoin="round"/>
<path d="M0.5 274.5H443.5V713.5H0.5V274.5Z" stroke="#404040"/>
</svg>
