<svg width="116" height="37" viewBox="0 0 116 37" fill="none" xmlns="http://www.w3.org/2000/svg">
<path d="M57.1869 15.2237C56.4059 14.9181 55.3844 14.8266 54.2728 14.8266H48.0838V12.8705H58.7192V9.50864H43.7275V24.0565H53.8823C55.2943 24.0565 56.3455 23.9343 57.127 23.6284C58.7793 22.9867 59.8909 21.4281 59.8909 19.3803C59.8909 17.3022 58.8393 15.8656 57.1869 15.2237ZM55.0238 20.2667C54.7836 20.3584 54.4531 20.3888 54.0323 20.3888H48.0838V18.0661H54.0323C54.5131 18.0661 54.9036 18.0968 55.2042 18.2496C55.5645 18.4329 55.7449 18.7691 55.7449 19.1968C55.7449 19.6248 55.5346 20.0833 55.0238 20.2667Z" fill="#939393"/>
<path d="M72.1035 9.50864H65.7344L59.876 24.0565H64.8031L65.6142 21.9476H72.2236L73.065 24.0565H77.9621L72.1035 9.50864ZM66.6956 18.7385L68.7689 12.8705H69.0992L71.1722 18.7385H66.6956Z" fill="#939393"/>
<path d="M83.57 18.6471V24.0566H79.2139V9.50861H83.57V14.8267H90.57V9.50861H94.9265V24.0566H90.57V18.6471H83.57Z" fill="#939393"/>
<path d="M101.824 18.5554V24.0566H97.4678V9.50861H101.824V14.9795H103.026L108.284 9.50861H113.751L106.781 16.477L114.022 24.0566H108.223L103.026 18.5554H101.824Z" fill="#939393"/>
<path d="M0.836914 1.02326H35.3874V17.4883C35.3874 22.0199 33.0111 26.2075 29.1536 28.4735L18.1123 34.9596L7.07085 28.4735C3.21324 26.2075 0.836918 22.0199 0.836918 17.4883L0.836914 1.02326Z" fill="#939393"/>
<path fill-rule="evenodd" clip-rule="evenodd" d="M10.3701 9.50861V14.972C11.1045 14.1283 12.4398 13.5574 13.9665 13.5574H15.6255V19.9085C15.6255 21.5982 15.1742 23.2527 14.5046 24.0662H21.7213C21.0531 23.2518 20.6029 21.5994 20.6029 19.9118V13.5574H22.262C23.7887 13.5574 25.1239 14.1283 25.8583 14.972V9.50861H10.3701Z" fill="#0A0A0A"/>
</svg>
