<svg width="125" height="25" viewBox="0 0 125 25" fill="none" xmlns="http://www.w3.org/2000/svg">
<g clip-path="url(#clip0_36_873)">
<path d="M99.7944 5.50399C102.109 5.70959 104.161 3.98018 104.364 1.63398C104.375 1.56142 104.375 1.48886 104.375 1.4042H101.942C101.692 2.39589 101.095 2.89174 99.7944 2.89174C98.4944 2.89174 97.8142 2.39589 97.6119 1.4042H95.1782C95.2735 3.77458 97.266 5.62493 99.6037 5.51609C99.6636 5.51609 99.7229 5.50399 99.7944 5.50399Z" fill="#939393"/>
<path d="M49.7518 16.9568V6.7859H46.686V21.6128H49.883L56.0623 11.2727V21.6128H59.128V6.7859H55.9309L49.7518 16.9568Z" fill="#939393"/>
<path d="M37.0225 6.90691C34.7202 6.79811 32.5491 8.04375 31.4517 10.0876C31.6068 6.72555 32.2867 4.73005 36.2232 4.21002L42.3547 3.37554L42.1042 0.0618497L35.7103 0.932603C30.1992 1.68242 28.6484 5.86686 28.6484 12.4458C28.6484 18.2025 31.2966 21.8911 36.2113 21.8911C41.0068 21.8911 43.6072 18.2509 43.6072 13.9818C43.8458 10.3174 41.1022 7.1609 37.4877 6.919C37.3446 6.90691 37.1895 6.90691 37.0225 6.90691ZM36.2232 18.6258C33.4438 18.6258 31.8096 16.6424 31.8096 13.6552V12.1194C32.394 10.9584 33.9568 10.0513 36.2232 10.0513C38.6209 10.0513 40.47 11.164 40.47 13.9818C40.47 16.7996 39.0027 18.6258 36.2232 18.6258Z" fill="#939393"/>
<path d="M118.951 6.78587V12.3369H112.974V6.78587H109.909V21.6128H112.974V15.3966H118.951V21.6128H122.016V6.78587H118.951Z" fill="#939393"/>
<path d="M96.6812 16.9567V6.78587H93.6155V21.6128H96.8121L102.992 11.2727V21.6128H106.057V6.78587H102.86L96.6812 16.9567Z" fill="#939393"/>
<path d="M64.6515 15.8562C64.3172 17.5131 63.8521 18.2145 62.9218 18.2145C62.5399 18.2266 62.1579 18.1903 61.7881 18.0936V21.5282C62.2654 21.7459 62.7782 21.8427 63.3032 21.8184C64.7823 21.8547 66.1067 20.9114 66.584 19.4964C66.9654 18.3354 67.2038 17.114 67.2997 15.8925C67.5021 13.9091 67.598 11.9257 67.598 9.93027H71.6776V21.6128H74.7433V6.7859H65.0329C65.0928 9.8214 64.9614 12.8449 64.6515 15.8562Z" fill="#939393"/>
<path d="M89.2112 17.5977L89.2589 11.7202C89.3066 7.99525 86.9926 6.45931 83.6287 6.45931C80.7176 6.22955 78.177 8.41852 77.9502 11.3694C77.9502 11.3815 77.9502 11.4057 77.9502 11.4178H80.8967C81.0636 10.0512 82.1612 9.5916 83.6287 9.5916C85.1316 9.5916 86.1455 10.0512 86.3008 11.575L82.5426 13.0747C79.9781 14.1147 78.0456 15.2757 78.0456 17.7187C78.0456 20.2463 79.4769 21.8668 82.3281 21.8668C84.1415 21.9152 85.8112 20.851 86.5508 19.1699C86.706 20.9598 87.899 21.7459 89.9746 21.7459H90.8217V18.8917H90.5711C89.5926 18.8797 89.2112 18.5047 89.2112 17.5977ZM83.4496 18.7587C82.0182 18.7587 80.9682 18.3838 80.9682 17.1019C80.9682 15.9892 81.8508 15.4934 83.3659 14.8645L86.3008 13.6672L86.2647 17.6824C85.5252 18.4322 84.499 18.8192 83.4496 18.7587Z" fill="#939393"/>
<path d="M14.6351 21.0806C10.5912 23.451 6.20138 23.8743 3.39807 22.4593C7.11987 24.7087 11.7125 24.7329 15.4582 22.5439C19.168 20.4155 21.4584 16.3278 21.4107 11.9014C21.2437 15.07 18.679 18.7102 14.6351 21.0806Z" fill="#939393"/>
<path d="M11.0177 0.896183C11.8408 2.33534 9.86054 5.05644 6.59205 6.96727C3.32351 8.87808 0.0192203 9.2651 -0.803877 7.82589C-0.839662 7.75333 -0.875447 7.68077 -0.899308 7.60821C-1.05438 6.72536 -0.815808 5.83044 -0.243215 5.15319C-0.147785 5.00807 -0.040425 4.87503 0.0669353 4.72991C1.02125 3.47215 2.21414 2.42 3.56212 1.6339C4.91008 0.823618 6.40118 0.31568 7.94002 0.110086C8.11897 0.0858978 8.28595 0.0617105 8.45292 0.0496168C9.31182 -0.107602 10.1945 0.12218 10.8745 0.702679C10.9222 0.763149 10.9819 0.823619 11.0177 0.896183Z" fill="#939393"/>
<path d="M16.0905 2.44423C17.522 4.95973 14.6352 9.36188 9.63698 12.2886C4.63879 15.2153 -0.574135 15.5418 -1.99367 13.0263C-2.23225 12.603 -2.36347 12.1313 -2.38733 11.6355C-2.44697 13.3649 -2.14875 15.0822 -1.49266 16.6786C-1.39723 16.9205 -1.28987 17.1623 -1.17058 17.4042L-1.15865 17.4405C-0.70535 18.2024 -0.0611882 18.8192 0.702259 19.2183C3.50553 20.7421 8.24134 20.2221 12.6789 17.6219C17.1045 15.0338 19.9197 11.1276 20.0271 7.91058C20.0748 7.0278 19.872 6.15703 19.4426 5.39511C19.2756 5.15323 19.1085 4.91136 18.9296 4.68157C17.8918 3.32708 16.5916 2.21444 15.1124 1.42835C15.518 1.68232 15.852 2.03304 16.0905 2.44423Z" fill="#939393"/>
</g>
<defs>
<clipPath id="clip0_36_873">
<rect width="124.834" height="24.1345" fill="white" transform="scale(1.00133)"/>
</clipPath>
</defs>
</svg>
