<svg width="146" height="32" viewBox="0 0 146 32" fill="none" xmlns="http://www.w3.org/2000/svg">
<g clip-path="url(#clip0_36_889)">
<mask id="mask0_36_889" style="mask-type:luminance" maskUnits="userSpaceOnUse" x="-3" y="0" width="147" height="32">
<path d="M143.198 0H-2.11362V31.7028H143.198V0Z" fill="white"/>
</mask>
<g mask="url(#mask0_36_889)">
<mask id="mask1_36_889" style="mask-type:luminance" maskUnits="userSpaceOnUse" x="-2" y="0" width="145" height="32">
<path d="M142.943 0.25377H-1.86104V31.086H142.943V0.25377Z" fill="white"/>
</mask>
<g mask="url(#mask1_36_889)">
<path d="M36.1243 1.34782H34.2104V8.74383H36.1243V1.34782Z" fill="#939393"/>
<path d="M36.1243 8.74382H34.2104V16.1398H36.1243V8.74382Z" fill="#939393"/>
<path d="M36.1243 16.1399H34.2104V23.5359H36.1243V16.1399Z" fill="#939393"/>
<path d="M36.1243 23.5355H34.2104V30.9315H36.1243V23.5355Z" fill="#939393"/>
<path d="M15.2082 15.2038C15.2011 15.1966 15.029 15.0173 14.7316 15.0173C14.5739 15.0173 14.4126 15.0675 14.2513 15.1608C14.2226 15.1751 14.2047 15.2074 14.2118 15.2397C14.2118 15.2469 14.3302 16.0503 14.2406 16.3947C14.1724 16.6529 13.9538 16.9578 13.5559 16.9578C13.4699 16.9578 13.3839 16.9434 13.2907 16.9183H13.2871L13.5882 16.7139C13.6097 16.6995 13.6241 16.6744 13.6241 16.6457C13.6241 16.617 13.6097 16.5955 13.5882 16.5776L12.9896 16.1651C13.1796 16.0216 13.2979 15.9212 13.3122 15.9068C13.3302 15.8925 13.3409 15.8709 13.3409 15.8494C13.3409 15.8279 13.3338 15.8064 13.3158 15.7884L13.2083 15.6809C13.194 15.6665 13.1725 15.6558 13.1509 15.6558C13.133 15.6558 13.1151 15.6629 13.1008 15.6737C13.0936 15.6773 12.9359 15.7992 12.6958 15.9642L12.4556 15.7992L13.3947 15.1536L13.4663 15.3401C13.4771 15.3688 13.5058 15.3903 13.538 15.3903C13.538 15.3903 13.538 15.3903 13.5416 15.3903C13.5703 15.3903 13.599 15.3724 13.6133 15.3473L14.0613 14.5223C14.0757 14.4936 14.0721 14.4613 14.0577 14.4362C14.0434 14.4147 14.0183 14.4003 13.9897 14.4003C13.9861 14.4003 13.9824 14.4003 13.9789 14.4003L13.0542 14.5402C13.0219 14.5438 12.9968 14.5653 12.9861 14.5977C12.9789 14.6263 12.9861 14.6586 13.0112 14.6802L13.1617 14.8128L12.0936 15.5481L11.0291 14.8128L11.1797 14.6802C11.2011 14.6586 11.212 14.6263 11.2012 14.5977C11.194 14.5653 11.1689 14.5438 11.1367 14.5402L10.2119 14.4003C10.2083 14.4003 10.2048 14.4003 10.2012 14.4003C10.1725 14.4003 10.1475 14.4111 10.1331 14.4362C10.1152 14.4613 10.1152 14.4936 10.1295 14.5223L10.574 15.3473C10.5883 15.3724 10.6169 15.3903 10.6457 15.3903C10.6492 15.3903 10.6492 15.3903 10.6492 15.3903C10.6815 15.3903 10.7065 15.3688 10.7209 15.3401L10.7962 15.1536L11.7352 15.7992L11.4951 15.9642C11.2549 15.7992 11.0972 15.6773 11.0936 15.6737C11.0793 15.6629 11.0614 15.6558 11.0435 15.6558C11.0219 15.6558 11.0005 15.6629 10.9861 15.6809L10.8786 15.7884C10.8642 15.8028 10.8535 15.8243 10.8535 15.8494C10.8535 15.8709 10.8642 15.8925 10.8822 15.9068C10.9001 15.9212 11.0184 16.0216 11.2084 16.1651L10.6098 16.5776C10.5883 16.5919 10.574 16.617 10.574 16.6457C10.574 16.6744 10.5883 16.6959 10.6098 16.7139L10.9109 16.9183C10.9109 16.9183 10.9109 16.9183 10.9073 16.9183C10.8141 16.9434 10.7281 16.9578 10.6421 16.9578C10.2442 16.9578 10.022 16.6529 9.95388 16.3947C9.86428 16.0503 9.98259 15.2469 9.98259 15.2397C9.98618 15.2074 9.97178 15.1751 9.94313 15.1608C9.77826 15.0675 9.61698 15.0173 9.46285 15.0173C9.16183 15.0173 8.98973 15.1931 8.98257 15.2038C8.96824 15.2146 8.96108 15.2361 8.96108 15.2505C8.9575 15.3006 8.86432 16.4592 9.40197 17.0475C9.59907 17.2626 9.8607 17.3739 10.1725 17.3739C10.2263 17.3739 10.2872 17.3739 10.3446 17.3631C10.6492 17.3272 10.9467 17.2447 11.237 17.1443L11.7352 17.4814L10.6349 18.2275C10.6134 18.2454 10.599 18.267 10.599 18.2957C10.599 18.3207 10.6098 18.3459 10.6349 18.3638L11.7388 19.1278L10.7962 19.7806L10.7245 19.5977C10.7138 19.5689 10.685 19.551 10.6528 19.5474C10.6528 19.5474 10.6528 19.5474 10.6492 19.5474C10.6205 19.5474 10.5919 19.5654 10.5775 19.5905L10.1331 20.4155C10.1187 20.4406 10.1223 20.4765 10.1367 20.498C10.151 20.5195 10.1761 20.5338 10.2048 20.5338C10.2083 20.5338 10.2119 20.5338 10.2155 20.5338L11.1403 20.3975C11.1725 20.394 11.1976 20.3688 11.2048 20.3401C11.2155 20.3078 11.2048 20.2756 11.1832 20.2541L11.0291 20.1177L12.0972 19.3789L13.1653 20.1177L13.0112 20.2541C12.9861 20.2756 12.9789 20.3078 12.9861 20.3401C12.9932 20.3688 13.0219 20.3903 13.0542 20.3975L13.9789 20.5338C13.9824 20.5338 13.9861 20.5338 13.9897 20.5338C14.0147 20.5338 14.0398 20.5231 14.0577 20.498C14.0757 20.4728 14.0757 20.4406 14.0613 20.4155L13.6133 19.5905C13.599 19.5654 13.5738 19.5474 13.5416 19.5474H13.538C13.5022 19.5474 13.4771 19.5689 13.4663 19.5977L13.3947 19.7806L12.4521 19.1278L13.5559 18.3638C13.5775 18.3495 13.5918 18.3243 13.5918 18.2957C13.5918 18.267 13.5775 18.2454 13.5559 18.2275L12.4556 17.4814L12.9538 17.1443C13.2405 17.2483 13.538 17.3272 13.8427 17.3631C13.9037 17.3703 13.961 17.3739 14.0147 17.3739C14.3302 17.3739 14.5882 17.2626 14.7853 17.0475C15.323 16.4592 15.2298 15.3006 15.2262 15.2505C15.2262 15.2361 15.219 15.2181 15.2082 15.2038ZM12.09 16.0575L12.3266 16.2189C12.2513 16.2655 12.1725 16.3157 12.09 16.3659C12.0076 16.3157 11.9287 16.2691 11.8535 16.2189L12.09 16.0575ZM11.2299 16.6493L11.556 16.4233C11.6205 16.4628 11.685 16.5058 11.7567 16.5525C11.6277 16.6206 11.4987 16.6851 11.3697 16.7461L11.2299 16.6493ZM12.9323 18.2957L12.09 18.8767L11.2513 18.2957L12.09 17.7253L12.9323 18.2957ZM12.09 17.234L11.685 16.9578C11.8284 16.8896 11.961 16.8215 12.09 16.7497C12.2191 16.8215 12.3553 16.8896 12.4986 16.9578L12.09 17.234ZM12.814 16.7461C12.685 16.6887 12.5524 16.6242 12.4233 16.5525C12.495 16.5094 12.5596 16.4664 12.6241 16.4233L12.9538 16.6493L12.814 16.7461Z" fill="#939393"/>
<path d="M15.4943 15.8851C15.5265 15.8205 15.5409 15.6985 15.5409 15.6985L15.4943 15.6842V15.8851Z" fill="#939393"/>
<path d="M26.084 13.012C25.7399 12.804 25.17 12.7323 24.5894 12.7861C25.4962 12.4705 26.1162 11.7962 26.1485 11.1935C25.6754 11.0573 25.1843 11.129 24.7578 11.2259C25.1987 10.8959 25.9227 10.2932 25.8331 9.40729C25.4066 9.30329 24.6253 9.60103 24.2991 9.7481C25.3456 9.15981 25.722 7.76812 25.1664 6.97906C24.8367 7.17273 23.3421 8.70074 23.0984 8.87648C23.8726 7.99052 24.2346 7.35564 24.4424 6.76025C24.6897 6.11104 24.7077 4.9776 23.9048 4.5974C23.5249 5.46541 22.1988 7.69279 21.4605 8.61824C21.3781 8.54649 21.3136 8.44966 21.2096 8.43167C21.034 8.99481 20.5107 9.74451 20.0341 10.1032C20.0089 10.0565 19.9624 9.92743 19.8799 9.78752C19.3746 10.5443 18.0628 11.5809 17.6399 12.2194C17.3101 12.6929 17.3101 13.1197 17.7689 13.5608C17.9553 13.7473 18.3065 14.0737 18.0019 14.5329C17.5861 15.139 16.7511 15.2108 16.2994 14.8521C16.2994 14.7445 16.2958 14.6405 16.2923 14.5436C16.8263 14.3356 16.9517 13.6075 16.5575 13.1555C16.4715 13.3205 16.3281 13.4425 16.1561 13.5034C16.1095 13.3134 16.07 13.2237 16.0664 13.2129L16.045 13.1699H15.9984C15.9948 13.1699 15.8191 13.1591 15.5575 13.1304C15.855 13.0336 16.045 12.7574 16.002 12.388C15.5432 12.7825 15.0845 12.4059 14.9805 12.3019C14.6938 11.9647 14.6113 11.5845 14.726 11.0035C14.8228 10.4977 15.3461 9.69427 15.6901 9.43603C15.7404 9.48262 15.8191 9.57952 15.9876 9.56512C16.0844 9.53286 16.2457 9.45037 16.3675 9.40371C16.7152 9.29971 17.0521 9.37862 17.2672 9.51853C17.6614 9.75885 17.6255 10.0243 17.6148 10.2179C18.2133 9.88077 18.0055 9.31763 17.2205 9.10963C17.7582 9.10963 18.199 9.60103 18.3137 9.66202C18.6112 9.88077 19.0377 9.8306 19.285 9.71219C19.7617 9.48621 19.8584 8.92307 19.7294 8.80832C19.6828 9.00922 19.5287 9.18854 19.2527 9.2208C18.8442 9.26746 18.4499 9.09171 18.1381 8.95181C17.8728 8.84057 17.4463 8.75808 17.156 8.77606C17.6937 8.47833 18.5287 8.51059 18.8262 8.96973C19.0054 8.82624 19.1165 8.69715 19.1667 8.39942C19.3208 7.59596 18.6936 7.18348 18.0234 7.18348C18.0413 6.98982 17.9051 6.89298 17.7259 6.95749C17.7259 6.87503 17.7044 6.81047 17.6578 6.77819C17.6722 6.77819 17.6937 6.77101 17.708 6.77101C18.3818 6.72438 19.0198 6.51635 19.3638 6.15408C19.9659 5.50845 19.0054 4.69066 19.3495 4.0558C19.6792 4.19927 19.9229 4.38578 20.3781 4.45034C20.4247 4.54719 20.4677 4.74087 20.482 4.84489C20.629 5.56226 19.9229 5.68062 20.1057 6.44461C20.1846 6.79253 20.4462 6.9109 20.5322 7.32339C20.5322 7.32339 20.5645 7.6103 20.3136 7.86144C20.8942 7.87577 21.1989 7.38438 21.0197 6.92882C20.9408 6.74232 20.7401 6.56656 20.7401 6.34776C21.0376 6.74232 21.3028 6.72797 21.7615 6.58091C21.9695 6.51635 21.9874 6.80688 21.8584 7.04006C22.1737 6.85351 22.2526 6.54863 22.2526 6.41233C22.2526 6.08952 22.0017 5.93887 21.7615 6.00343C21.6254 6.01778 21.353 6.2043 21.335 5.93887C21.2777 5.47976 22.0017 5.4977 21.8547 4.75881C21.7759 4.38937 21.3638 4.18492 20.7222 4.10601C20.6577 4.04145 20.4964 3.88721 20.4104 3.75809C20.0591 3.17344 19.6936 3.0192 19.4749 3.13757C19.2169 3.26669 19.0842 3.37789 18.8728 3.49266C18.7044 3.58234 18.5252 3.62897 18.414 3.75809C18.1345 4.10601 18.3997 4.64403 18.5431 4.97402C18.6398 5.1677 18.8728 5.60888 18.7689 5.93887C18.6542 6.33342 18.0055 6.58091 17.6112 6.66341C17.5861 6.66341 17.5682 6.67058 17.5431 6.67058V6.51635C17.6578 6.31548 17.7546 6.07517 17.8335 5.85638C18.0987 5.14619 17.7044 4.85924 17.1202 4.72294C17.0449 4.67631 16.9661 4.65838 16.8693 4.69066H16.8514L16.8371 4.80903L16.7582 4.78392L16.7761 4.64044H16.7402C16.8084 4.59381 16.8371 4.51132 16.8371 4.43241C16.8371 4.34632 16.8048 4.27818 16.7725 4.23155H16.8514L16.8191 4.19927C16.8048 4.16698 16.7725 4.1347 16.7223 4.08449C16.708 4.07014 16.6901 4.03786 16.6901 4.01992C16.7044 4.03427 16.7223 4.05221 16.7546 4.06655C16.7869 4.09884 16.8335 4.13112 16.8514 4.1634L16.898 4.19568V3.54646L16.8514 3.58592C16.8371 3.60027 16.7869 3.63255 16.7546 3.66842C16.7223 3.7007 16.708 3.7007 16.6901 3.71505C16.6901 3.7007 16.7044 3.68276 16.7223 3.65048C16.7725 3.6182 16.8048 3.57158 16.8191 3.54646L16.8514 3.49625H16.1919L16.2242 3.54646C16.2564 3.56799 16.2958 3.6182 16.3281 3.65048C16.3425 3.68276 16.3604 3.7007 16.3747 3.71505C16.3568 3.7007 16.3281 3.7007 16.3102 3.66842C16.2529 3.63613 16.2242 3.60385 16.1919 3.58592L16.1669 3.54646V4.20644L16.1991 4.17416C16.2313 4.14188 16.2636 4.10959 16.3173 4.07731C16.3353 4.06297 16.364 4.04503 16.3819 4.03069C16.364 4.04503 16.3496 4.07731 16.3353 4.09525C16.303 4.14547 16.26 4.17416 16.2313 4.21002L16.1991 4.24231H16.303C16.2457 4.28894 16.2313 4.35708 16.2313 4.44317C16.2313 4.52208 16.2636 4.60458 16.3173 4.6512H16.303L16.3173 4.79468L16.2313 4.81979L16.2134 4.70142H16.1991C16.1023 4.66914 16.0235 4.68708 15.9589 4.7337C15.364 4.87 14.9697 5.16054 15.235 5.86714C15.3174 6.08593 15.4142 6.32625 15.5324 6.52711V6.63113C14.9375 6.43744 13.8658 5.78464 13.5791 5.39009C13.5468 5.35064 13.5218 5.31835 13.5075 5.29325H13.5039L13.5146 4.86642C13.7225 4.51849 13.9089 4.09166 14.0522 3.7007C14.4286 2.67845 13.873 2.25162 12.9914 2.07587C12.9018 2.01131 12.7906 1.97903 12.6437 2.02924L12.6114 2.19065L12.4251 2.1763L12.4394 1.96827C12.4143 1.97544 12.382 1.97544 12.3498 1.97544C12.4753 1.91088 12.5649 1.75665 12.5649 1.59883C12.5649 1.48405 12.5075 1.34775 12.4107 1.28318H12.5649C12.4753 1.20427 12.3319 1.0357 12.3032 0.920918C12.4143 0.9532 12.5828 1.10384 12.6616 1.18634V0.350613C12.5828 0.415176 12.4143 0.576583 12.3032 0.59093C12.3319 0.497673 12.4753 0.336267 12.5649 0.25377H11.7298C11.7942 0.336267 11.9555 0.497673 11.9699 0.59093C11.8731 0.576583 11.7118 0.415176 11.6222 0.350613V1.18634C11.7118 1.10384 11.8695 0.9532 11.9699 0.920918C11.9555 1.03211 11.7942 1.20069 11.7298 1.28318H11.8731C11.7763 1.34775 11.7298 1.48405 11.7298 1.59883C11.7298 1.75665 11.8086 1.91446 11.9376 1.97544C11.9054 1.97544 11.8731 1.97544 11.8229 1.96109L11.8409 2.16913L11.6545 2.18348L11.6366 2.02207C11.4932 1.97544 11.3821 2.00773 11.2853 2.0687C10.4108 2.24804 9.85525 2.67129 10.2316 3.69352C10.3606 4.08449 10.547 4.51491 10.7692 4.85924V5.30042C10.7549 5.31476 10.737 5.34704 10.7047 5.37933C10.4251 5.77388 9.34632 6.42668 8.75137 6.62037V6.51635C8.86969 6.31548 8.97003 6.07517 9.04888 5.85638C9.31409 5.14619 8.91982 4.85924 8.32487 4.72294C8.25676 4.67631 8.18149 4.65838 8.08473 4.69066H8.07041L8.0525 4.80903L7.97365 4.78392L7.98797 4.64044H7.97365C8.0202 4.59381 8.0525 4.51132 8.0525 4.43241C8.0525 4.34632 8.03818 4.27818 7.98797 4.23155H8.08473L8.0525 4.19927C8.0202 4.16698 7.98797 4.1347 7.95574 4.08449C7.94135 4.07014 7.91628 4.03786 7.89837 4.01992C7.91628 4.03427 7.95574 4.05221 7.97007 4.06655C8.01662 4.09884 8.04892 4.13112 8.08473 4.1634L8.11703 4.19568V3.54646L8.08473 3.58592C8.0525 3.60027 8.0202 3.63255 7.97007 3.66842C7.95574 3.7007 7.91628 3.7007 7.89837 3.71505C7.91628 3.7007 7.93777 3.68276 7.95574 3.65048C7.98797 3.6182 8.0202 3.57158 8.0525 3.54646L8.08473 3.49625H7.42525L7.45755 3.54646C7.47188 3.56799 7.51485 3.6182 7.54715 3.65048C7.57938 3.68276 7.5937 3.7007 7.5937 3.71505C7.58296 3.69711 7.56505 3.69711 7.5364 3.66483C7.49694 3.63255 7.44681 3.60027 7.43241 3.58234L7.38228 3.54288V4.20286L7.43241 4.17057C7.44681 4.13829 7.49694 4.10601 7.5364 4.07373C7.56864 4.05938 7.58296 4.04145 7.59728 4.0271C7.59728 4.04145 7.58296 4.07373 7.55073 4.09166C7.51843 4.14188 7.47546 4.17057 7.46113 4.20644L7.42883 4.23872H7.51485C7.47546 4.28535 7.43958 4.3535 7.43958 4.43959C7.43958 4.51849 7.47188 4.60099 7.54715 4.64762H7.51485L7.53282 4.79109L7.44323 4.8162L7.42883 4.69783H7.41093C7.31417 4.66555 7.23531 4.68348 7.17079 4.73012C6.57584 4.86642 6.18157 5.15695 6.44685 5.86355C6.52928 6.08234 6.62604 6.32266 6.74429 6.52352V6.67776C6.71922 6.67776 6.69773 6.67058 6.67976 6.67058C6.28556 6.58809 5.62608 6.3406 5.515 5.94604C5.41101 5.61606 5.64399 5.17488 5.74074 4.98119C5.89487 4.6512 6.15292 4.11319 5.88055 3.76526C5.75865 3.63613 5.58304 3.58951 5.41101 3.49984C5.20316 3.38864 5.0741 3.27387 4.80889 3.14474C4.59747 3.02638 4.23908 3.17702 3.87347 3.76526C3.79462 3.89439 3.62617 4.04503 3.55807 4.11319C2.92369 4.19209 2.51511 4.39296 2.42551 4.76598C2.27856 5.50487 3.00255 5.49052 2.95595 5.94604C2.93803 6.21147 2.65847 6.02495 2.52944 6.01061C2.27856 5.94604 2.03126 6.09669 2.03126 6.4195C2.03126 6.5558 2.12086 6.86068 2.42551 7.04723C2.29648 6.81405 2.31082 6.52352 2.52944 6.58809C2.98821 6.73515 3.24267 6.7495 3.54374 6.35494C3.54374 6.57015 3.3502 6.74949 3.26418 6.93599C3.08497 7.39513 3.38245 7.88294 3.97024 7.8686C3.70502 7.61753 3.75878 7.33055 3.75878 7.33055C3.84122 6.91807 4.09927 6.79971 4.18529 6.45178C4.36449 5.68779 3.65484 5.56943 3.80896 4.85207C3.82329 4.74805 3.85555 4.55436 3.90573 4.45752C4.36449 4.39296 4.61538 4.21002 4.93437 4.06297C5.26411 4.69783 4.31429 5.51563 4.91998 6.16126C5.26769 6.52352 5.9092 6.73156 6.57584 6.77819C6.59016 6.77819 6.61172 6.78536 6.62962 6.78894C6.583 6.82123 6.55793 6.88221 6.55793 6.96473C6.38232 6.90015 6.2461 6.99698 6.27123 7.19065C5.57946 7.19065 4.97018 7.60313 5.12073 8.40659C5.16728 8.70432 5.28202 8.8334 5.46837 8.97689C5.75865 8.51782 6.59374 8.4855 7.13856 8.78323C6.84105 8.76531 6.41455 8.84781 6.15292 8.95897C5.84467 9.0953 5.45405 9.27462 5.04545 9.22797C4.76234 9.19571 4.61896 9.01997 4.56159 8.81548C4.4326 8.9303 4.52936 9.48979 5.00964 9.71936C5.24972 9.83776 5.67622 9.88794 5.97372 9.66919C6.08839 9.60461 6.52928 9.1168 7.07044 9.1168C6.28914 9.3248 6.07048 9.88794 6.68334 10.2251C6.65827 10.0314 6.62962 9.76602 7.02024 9.5257C7.2389 9.38937 7.58296 9.30688 7.92344 9.41088C8.04176 9.45754 8.20304 9.54003 8.2998 9.57229C8.46826 9.58669 8.54711 9.48979 8.59725 9.4432C8.94489 9.70144 9.45024 10.5049 9.56139 11.0106C9.68322 11.5917 9.59362 11.9683 9.30335 12.3091C9.20659 12.4131 8.74063 12.7897 8.28548 12.3951C8.24244 12.7646 8.43238 13.0372 8.72988 13.1376C8.46467 13.1663 8.28548 13.177 8.2819 13.177H8.23528L8.21737 13.2201C8.21379 13.2273 8.17433 13.3205 8.12419 13.507C7.95932 13.4425 7.81594 13.3241 7.72992 13.1591C7.33566 13.6111 7.45755 14.3356 7.98797 14.5436C7.98439 14.644 7.98081 14.7481 7.98081 14.8593C7.52566 15.2108 6.70131 15.1354 6.29272 14.5329C5.97731 14.0737 6.33927 13.7438 6.51854 13.5608C6.97727 13.1197 6.97727 12.6929 6.64395 12.2194C6.21745 11.5845 4.90923 10.5443 4.40395 9.78752C4.32152 9.92384 4.27489 10.0529 4.25699 10.1032C3.78387 9.74451 3.25342 8.99481 3.0778 8.43167C2.98104 8.44608 2.90935 8.54649 2.82693 8.61824C2.09577 7.69279 0.762495 5.46541 0.386167 4.5974C-0.409498 4.9776 -0.395159 6.11104 -0.151443 6.76025C0.0636039 7.35564 0.425594 7.99052 1.189 8.87648C0.948872 8.69715 -0.545691 7.17273 -0.875423 6.97906C-1.42737 7.76812 -1.05104 9.15981 -0.00808076 9.7481C-0.327063 9.60103 -1.11556 9.30329 -1.54206 9.40729C-1.62091 10.2932 -0.907681 10.8959 -0.466837 11.2259C-0.89693 11.129 -1.38794 11.0573 -1.86104 11.1935C-1.82879 11.7962 -1.20157 12.4741 -0.319894 12.7861C-0.882592 12.7287 -1.45246 12.804 -1.80011 13.012C-1.7356 13.6398 -1.02595 14.1814 -0.176531 14.3105C-0.746399 14.3751 -1.25175 14.6261 -1.51697 14.9704C-1.20516 15.3793 -0.746399 15.695 -0.0475007 15.6807C-0.208789 15.7381 -0.395159 15.8492 -0.55286 15.9999C-0.570779 15.9856 -0.603037 15.9676 -0.631706 15.9676C-0.667545 15.982 -0.678302 16.0321 -0.667545 16.0645C-0.667545 16.0645 -0.667545 16.0645 -0.667545 16.0896C-0.735642 16.1362 -0.771488 16.1936 -0.778657 16.251C-0.843165 16.3442 -0.911262 16.4518 -0.947107 16.5487C-0.929188 16.5559 -0.91485 16.5738 -0.900511 16.581C-0.904099 16.6312 -0.889761 16.6921 -0.850334 16.7531C-0.882592 16.7854 -0.89693 16.832 -0.91485 16.8823L-1.32344 16.7173C-1.34494 17.0903 -1.2625 17.3952 -1.07613 17.5852C-0.929188 17.7538 -0.76073 17.7287 -0.810908 17.7861L-0.366483 18.0587C-0.287636 18.2273 -0.126354 18.2273 -0.0152498 18.1807C-0.0152498 18.1807 -0.0152498 18.195 -0.0152498 18.213C-0.0152498 18.3887 0.106612 18.5322 0.264312 18.5896C0.232055 18.7366 0.29657 18.8299 0.497278 18.898L2.16745 22.9511C2.10294 23.1448 2.16745 23.3134 2.3144 23.378C2.27856 23.4246 2.24989 23.4748 2.24989 23.5716C2.3144 23.525 2.41117 23.5071 2.45777 23.6434C2.49002 23.7402 2.3144 24.0523 2.57962 24.2639C2.54378 24.4504 2.64414 24.6405 2.83409 24.723C2.83409 24.8199 2.92369 25.1319 2.93803 25.2431C2.81976 25.4117 2.54378 25.6699 2.57962 25.9533C2.61188 26.1542 2.69073 26.2187 2.85201 26.2689C2.7875 26.6312 2.98821 26.7926 3.29285 26.8106C3.29285 27.076 3.54016 27.1692 3.70144 27.1871C3.85555 27.3019 3.92006 27.3485 4.09568 27.4383C3.9344 27.6283 4.04909 27.8794 4.343 27.9619C4.37523 28.0731 4.45767 28.17 4.62254 28.2094C4.7193 28.3708 4.89491 28.3708 4.99883 28.3242C5.06336 28.2919 5.17809 28.1054 5.07769 27.944C5.14221 27.8651 5.10998 27.7108 5.06336 27.614C5.16012 27.4383 5.07769 27.2195 4.94511 27.1549C4.96302 27.058 4.91282 26.9038 4.88058 26.8106C5.11357 26.6635 5.40384 26.4806 5.50777 26.416C6.07765 26.0071 6.7228 25.6413 7.45397 25.5946C7.64033 25.5767 7.98439 25.5624 8.17791 25.5767C8.47542 25.6089 8.88401 25.6986 9.12415 25.5121C9.19936 25.4655 9.24598 25.383 9.23166 25.3041C9.19942 25.1176 8.99867 24.9561 8.93415 24.7912C8.91624 24.741 8.88759 24.6657 8.85529 24.5975C9.0632 24.6333 9.25672 24.6047 9.37504 24.5473C9.50403 24.5007 9.81586 24.2675 9.80154 23.9196C9.55065 24.0379 8.94847 24.1993 8.88401 23.5896C8.81948 23.0516 9.2926 22.5924 10.0344 22.7933C10.5398 22.9224 11.2781 23.9985 10.6043 24.4683C10.2746 24.6943 9.76924 24.9096 9.83377 25.4978C10.0488 25.2324 10.3391 25.1032 10.7155 25.1355C10.1635 25.5444 9.73701 25.5946 9.15638 25.9067C8.65103 26.2043 8.27467 26.6958 7.87689 26.7101C7.57222 26.7245 7.40377 26.3622 7.70127 26.0824C7.40377 26.0178 7.0095 26.251 6.89841 26.5631C6.75503 26.9899 6.86618 27.2948 7.13139 27.4669C6.773 27.6606 6.50414 28.0372 6.6332 28.5752C6.75503 29.0165 7.19592 29.0165 7.02747 29.5796C7.27478 29.515 7.43599 29.3464 7.50769 29.1061C7.53999 28.9375 7.57222 28.7618 7.65465 28.6793C7.61884 29.0165 7.81236 29.515 8.27467 29.741C8.5865 29.8952 9.07753 29.9562 9.45389 29.5653C9.60795 30.0064 10.1277 30.3866 10.6689 30.3686C10.9162 30.3686 11.1599 30.2611 11.3427 30.1535C11.4717 30.4799 11.8015 30.8134 12.1275 30.9713C12.4644 30.8134 12.7942 30.4799 12.9304 30.1535C13.1096 30.2646 13.3569 30.3686 13.597 30.3686C14.1167 30.383 14.6651 30.0064 14.812 29.5653C15.1884 29.9562 15.6794 29.8952 15.9912 29.741C16.45 29.515 16.6435 29.0165 16.6113 28.6793C16.6973 28.7618 16.7295 28.9375 16.7654 29.1061C16.8299 29.3464 16.9875 29.515 17.2384 29.5796C17.07 29.0165 17.5216 29.0165 17.6327 28.5752C17.7618 28.0372 17.4965 27.657 17.1417 27.4669C17.3997 27.2984 17.5216 26.9935 17.3675 26.5631C17.2564 26.251 16.8621 26.0178 16.5646 26.0824C16.8621 26.3622 16.7009 26.7245 16.389 26.7101C15.9948 26.6958 15.6185 26.2008 15.1095 25.9067C14.5325 25.591 14.106 25.5444 13.5504 25.1355C13.9268 25.1032 14.2242 25.2324 14.4321 25.4978C14.4967 24.9096 13.9913 24.6943 13.6616 24.4683C12.9949 23.9985 13.7261 22.9224 14.2422 22.7933C14.9733 22.5924 15.4572 23.0516 15.3819 23.5896C15.303 24.2029 14.7153 24.0415 14.45 23.9196C14.45 24.2639 14.7619 24.4971 14.8909 24.5473C15.0414 24.619 15.321 24.6585 15.5683 24.5508C15.5611 24.6118 15.5503 24.6764 15.5503 24.6943C15.5002 25.218 15.2206 25.2646 15.3174 25.4799C15.4536 25.6413 16.3532 25.6089 16.5969 25.6592C17.0234 25.7166 17.3854 25.8744 17.794 25.9569C18.2528 26.0538 18.7402 26.0538 19.1523 26.2223C19.4176 26.3371 19.7151 26.5523 19.9731 26.6814C20.3674 26.746 20.3028 26.9074 20.5537 26.9074C20.7796 26.9074 20.8656 26.7137 21.1558 26.6348C21.3566 26.5882 21.5823 26.6671 21.7831 26.6025C21.93 26.5702 21.9945 26.4196 22.1307 26.3371C22.292 26.2403 22.5178 26.2402 22.6683 26.1003C22.7472 26.0286 22.7651 25.8923 22.7508 25.7955L22.7543 25.817C23.0626 25.6018 23.2956 25.2861 23.4246 24.9239C23.5034 24.9096 23.5679 24.8378 23.5679 24.7553C23.5679 24.741 23.5679 24.723 23.5679 24.723C23.6468 24.6585 23.6969 24.5616 23.6969 24.4648C23.6969 24.3428 23.6504 24.246 23.5679 24.1671C23.5679 24.1671 23.5679 24.1491 23.5679 24.1348C23.5679 24.0702 23.5357 24.0236 23.5034 23.9805C23.3744 23.2811 22.8439 22.718 22.1594 22.5423C22.1594 22.5243 22.1594 22.5243 22.1594 22.5099H22.1451C22.1451 22.4777 22.1307 22.4598 22.1057 22.4598C22.0088 22.3629 21.8942 22.2123 21.8799 22.1154C21.9909 22.1477 22.1773 22.3234 22.2741 22.3952V21.4698C22.1773 21.5415 21.9945 21.7173 21.8799 21.7495C21.8942 21.6348 22.0698 21.4339 22.1594 21.355H21.2204C21.3064 21.4339 21.4856 21.6348 21.4999 21.7495C21.3888 21.7173 21.2025 21.5415 21.1093 21.4698V22.3952C21.2061 22.3234 21.3888 22.1477 21.4999 22.1154C21.4856 22.2302 21.3064 22.431 21.2204 22.5099L21.2526 22.5243C20.5537 22.6857 19.991 23.2668 19.862 23.9805C19.8154 24.02 19.7832 24.0702 19.7832 24.1348C19.7832 24.1491 19.7832 24.1671 19.7832 24.1671C19.7007 24.246 19.6541 24.3428 19.6541 24.4648C19.6541 24.558 19.7007 24.6585 19.7832 24.723C19.7832 24.723 19.7832 24.7374 19.7832 24.7553C19.7832 24.8593 19.8477 24.9096 19.9265 24.9239C19.9588 25.0136 19.9982 25.1032 20.0412 25.1821C20.0412 25.175 20.0412 25.175 20.052 25.1642C19.9946 25.4296 19.672 25.591 19.6004 25.591C19.0269 25.6735 18.3925 25.4296 17.8155 25.2144C17.561 25.1176 17.2134 25.0064 17.0449 24.7553C16.941 24.5724 16.8944 24.4576 16.9482 24.2962C17.0127 24.3751 17.1166 24.4648 17.2636 24.5437C17.2779 24.4648 17.2779 24.3751 17.3101 24.3105C17.4571 24.5293 17.6901 24.6405 17.9696 24.6262C17.8012 24.4827 17.7223 24.1025 17.8012 23.7725C18.0341 24.1671 18.9194 24.246 19.0807 23.5394C18.7509 23.6936 18.5395 23.525 18.4785 23.3457C18.3818 23.0623 18.7044 22.3773 18.414 21.85C18.1811 21.4555 17.9158 21.2151 17.2994 21.1182C17.346 21.0429 17.3639 20.9784 17.3782 20.8672C16.8084 21.0752 16.3173 20.9138 16.0844 20.4583C16.1991 20.5049 16.364 20.5229 16.5252 20.5229C16.0199 20.1104 16.0521 18.9447 16.4142 18.342C16.4607 18.3098 16.4786 18.2775 16.5252 18.2632C16.6363 18.4891 16.9661 18.4891 17.1345 18.6721C17.199 18.6075 17.2313 18.5896 17.2958 18.5358C17.2958 18.5358 17.3101 19.4935 17.3747 19.888C17.4392 20.3292 17.8657 20.2825 18.0843 20.4763C18.3424 20.1929 18.8083 20.2072 18.7366 19.7194C18.6721 19.2316 18.5753 18.7868 18.561 18.4569C18.7044 18.7546 18.9875 19.8736 19.0986 20.1929C19.2814 20.6663 19.7401 20.5229 19.9982 20.7093C20.1666 20.3794 20.5931 20.2825 20.4247 19.784C20.3781 19.6549 19.6792 18.1843 19.5753 17.9009C19.8226 18.2632 20.4999 19.558 20.7079 19.9203C20.9408 20.2969 21.3673 20.114 21.6719 20.2072C21.7293 19.9346 22.1415 19.619 21.8404 19.1455C21.4641 18.5179 20.5788 17.4238 20.5322 17.2696C20.7079 17.4382 22.0805 19.1455 22.188 19.2388C22.507 19.5186 22.973 19.3033 23.2489 19.3033C23.2489 18.9913 23.4962 18.6362 23.1379 18.274C22.8081 17.9583 22.0519 17.4203 21.8906 17.2373C22.3959 17.5852 22.9909 18.1376 23.3457 18.2273C23.973 18.3887 24.1987 18.1376 24.4317 18.0408C24.2382 17.4705 24.4962 17.2051 23.1701 16.6491C24.317 17.058 24.826 16.8571 25.2345 16.5343C25.0733 16.1254 24.6647 15.7811 24.3313 15.6663C25.0338 15.6807 25.4998 15.3686 25.8044 14.9561C25.5464 14.6118 25.0338 14.3607 24.446 14.2961C25.3134 14.1778 26.0051 13.6398 26.084 13.012ZM-0.520602 17.2266C-0.53494 17.2266 -0.53494 17.2409 -0.55286 17.2588C-0.649626 17.2445 -0.649626 17.1298 -0.631706 17.0329C-0.585117 17.0329 -0.55286 17.0185 -0.520602 16.9863L-0.506264 17.0042L-0.55286 17.0365C-0.53494 17.0974 -0.53494 17.162 -0.520602 17.2266ZM-0.205201 17.9009L-0.362902 17.8076C-0.298386 17.7323 -0.237459 17.7323 -0.172943 17.7754C-0.172943 17.822 -0.172943 17.8686 -0.205201 17.9009ZM0.267893 16.8966C0.246393 16.8966 0.224885 16.8966 0.203385 16.8966C0.199797 16.893 0.196216 16.8859 0.192628 16.8823C0.221304 16.8751 0.253562 16.8751 0.278651 16.8679C0.278651 16.8751 0.271481 16.8859 0.267893 16.8966ZM9.3822 28.647C8.98793 28.647 8.7084 28.3995 8.90908 28.0516C9.013 28.2094 9.22091 28.2812 9.40011 28.2991C9.3822 28.4641 9.3822 28.5107 9.3822 28.647ZM15.3783 28.0516C15.5791 28.3995 15.2995 28.647 14.9053 28.647C14.9053 28.5107 14.9053 28.4641 14.873 28.2991C15.0557 28.2847 15.2708 28.2166 15.3783 28.0516ZM9.36787 6.76025C10.2674 6.56656 11.185 6.06082 11.5971 5.63399C11.9376 5.65551 12.3784 5.6591 12.7118 5.63758C13.1168 6.06799 14.02 6.56298 14.9232 6.75666C14.3999 6.75666 13.486 6.71004 13.3712 6.58091C13.4035 6.9109 14.1024 7.28389 14.5611 7.38438C14.1813 7.43097 13.83 7.38438 13.5325 7.24806C13.6938 7.48121 13.8802 7.65695 14.1848 7.76095C13.8658 8.15551 13.2064 8.41017 12.5541 8.34918C12.7153 8.54291 13.0128 8.66483 13.2709 8.62899C12.6831 9.56512 12.2494 10.5264 12.1455 11.6383H12.1419V11.6419C12.0451 10.5264 11.6115 9.56512 11.0272 8.62899C11.2925 8.66124 11.5828 8.54291 11.7333 8.34918C11.0739 8.41375 10.4395 8.15551 10.1097 7.76095C10.418 7.65695 10.6007 7.48121 10.762 7.24806C10.4718 7.38438 10.1097 7.43097 9.73343 7.38438C10.1922 7.28031 10.8983 6.9109 10.9305 6.58091C10.8051 6.71362 9.89113 6.76025 9.36787 6.76025ZM1.1209 16.6563C1.03847 16.6921 0.938115 16.7352 0.86285 16.7674C0.86285 16.7603 0.86285 16.7531 0.86285 16.7459C0.941703 16.7137 1.04206 16.685 1.1209 16.6563ZM6.90557 20.8708C6.92348 20.982 6.93787 21.0466 6.98443 21.1218C6.36441 21.2187 6.10278 21.4591 5.87696 21.8535C5.56155 22.3844 5.89129 23.0695 5.80169 23.3493C5.73716 23.525 5.5329 23.6972 5.20316 23.543C5.36445 24.2532 6.2461 24.1707 6.47908 23.7761C6.55793 24.1061 6.47908 24.4863 6.31779 24.6297C6.59374 24.6441 6.82672 24.5329 6.9701 24.3141C7.00234 24.3787 7.00234 24.4683 7.01666 24.5473C7.17079 24.4683 7.26754 24.3787 7.33207 24.2998C7.35721 24.3787 7.38586 24.5652 7.34998 24.7158C7.23173 24.7947 7.09909 24.8701 6.89125 24.9777C6.56151 25.1391 5.9594 25.3722 5.61534 25.4189C5.33215 25.4655 4.84112 25.3041 4.71572 24.9096C4.60105 24.5329 4.28922 24.411 4.04192 24.6441C3.97741 24.5975 3.80179 24.5616 3.72653 24.68C3.72653 24.68 3.64768 24.5007 3.55091 24.4146C3.61542 24.2208 3.56524 23.9877 3.38962 23.9088C3.37529 23.5286 3.14232 23.5286 3.05989 23.3995C3.0133 23.3206 3.0133 23.2201 3.1244 23.2058C3.07781 23.1341 2.97746 23.1197 2.96312 23.1197C2.99538 22.9583 2.9452 22.7574 2.73015 22.6929L0.82343 18.7546C0.945284 18.6254 0.880769 18.4389 0.744576 18.3744C0.744576 18.3744 0.744576 18.36 0.744576 18.342C0.755326 18.3098 0.758914 18.2883 0.762495 18.2632C0.812672 18.256 0.877188 18.2416 0.930946 18.2273C1.30727 18.1376 1.89506 17.5852 2.404 17.2373C2.2248 17.4238 1.48648 17.9619 1.15674 18.274C0.848518 18.5788 0.977542 18.8837 1.02772 19.1598L1.0994 19.3141C1.37896 19.3321 1.79829 19.5006 2.11011 19.2423C2.20688 19.1455 3.58316 17.4382 3.76595 17.2732C3.69427 17.4274 2.82693 18.5214 2.43268 19.1491C2.14237 19.6226 2.56887 19.9346 2.61905 20.2108C2.93086 20.114 3.35737 20.3005 3.58316 19.9239C3.80179 19.5616 4.46841 18.2668 4.71572 17.9045C4.61896 18.1879 3.9129 19.6585 3.86272 19.7876C3.69427 20.2861 4.12077 20.3829 4.28922 20.7129C4.54727 20.5264 5.00964 20.6735 5.18884 20.1965C5.29992 19.8772 5.58304 18.7582 5.73 18.4604C5.7121 18.7904 5.61534 19.2352 5.55081 19.723C5.48628 20.2144 5.94508 20.1965 6.18522 20.4798C6.41813 20.2861 6.84463 20.3328 6.90916 19.8916C6.97369 19.4971 6.98801 18.5394 6.98801 18.5394C7.05254 18.5968 7.08477 18.6111 7.15646 18.6757C7.31417 18.4891 7.64749 18.4891 7.75857 18.2668C7.80878 18.2811 7.8231 18.3134 7.87331 18.3457C8.23528 18.9483 8.26392 20.114 7.75857 20.5264C7.90554 20.5264 8.08831 20.5085 8.19946 20.4619C7.97723 20.9174 7.47904 21.0788 6.90557 20.8708ZM10.4682 26.3802C10.1707 26.7891 9.93769 27.0867 9.74417 27.5961C9.39652 27.5638 9.46463 27.137 9.57572 26.9217C9.8087 26.4949 10.7549 25.9389 11.2316 25.383C11.0201 25.7381 10.7262 26.0609 10.4682 26.3802ZM11.4968 27.137C11.3033 27.8902 11.167 29.0021 11.2316 29.5007C10.5649 29.1528 10.9412 27.8113 11.1993 27.2338C11.5577 26.4303 11.8086 25.4475 11.8911 24.8199C12.0989 25.2969 11.6366 26.6276 11.4968 27.137ZM13.0559 29.5007C13.1203 29.0021 12.9914 27.8902 12.7906 27.137C12.6509 26.6276 12.1921 25.2969 12.3964 24.8199C12.4753 25.4475 12.7261 26.4267 13.0881 27.2338C13.3462 27.8113 13.7225 29.1528 13.0559 29.5007ZM14.7117 26.9181C14.8264 27.137 14.8909 27.5602 14.5432 27.5924C14.3497 27.0831 14.1167 26.7891 13.83 26.3766C13.5612 26.0609 13.2673 25.7345 13.0559 25.3794C13.5289 25.9389 14.4787 26.4913 14.7117 26.9181ZM14.6292 21.1613C13.7583 22.8543 12.1634 24.2316 12.1455 24.2137C12.1275 24.2352 10.5326 22.8543 9.66173 21.1613C8.79083 19.4719 8.23169 16.8141 8.20304 15.5443C8.17075 14.2746 8.42163 13.733 8.42163 13.733C8.42163 13.733 9.51119 13.672 10.3822 13.3708C11.1204 13.1161 11.9233 12.4669 12.1491 12.2767C12.3749 12.4669 13.1777 13.1125 13.9196 13.3708C14.7869 13.6757 15.8765 13.733 15.8765 13.733C15.8765 13.733 16.1238 14.2782 16.0916 15.5443C16.0557 16.8141 15.4966 19.4719 14.6292 21.1613Z" fill="#939393"/>
<path d="M44.4603 17.2088C45.0087 17.0904 45.6072 17.0079 46.256 16.9649C46.9047 16.9182 47.5391 16.8967 48.1699 16.8967C48.8365 16.8967 49.514 16.9541 50.1985 17.0724C50.8867 17.1908 51.5103 17.406 52.073 17.7217C52.6358 18.0373 53.0945 18.4713 53.4565 19.0273C53.8149 19.5832 53.9978 20.3006 53.9978 21.1757C53.9978 22.0007 53.8328 22.7038 53.5067 23.2848C53.1806 23.8659 52.7433 24.3429 52.2021 24.7087C51.6609 25.0746 51.0372 25.3436 50.3383 25.5122C49.6394 25.6808 48.9154 25.7669 48.1699 25.7669C48.091 25.7669 47.9692 25.7633 47.8079 25.7561C47.643 25.7489 47.4746 25.7418 47.299 25.7382C47.1234 25.731 46.9513 25.7203 46.79 25.7095C46.6252 25.6951 46.5069 25.6844 46.428 25.67V30.8135H44.4675V17.2088H44.4603ZM48.2273 18.6219C47.8724 18.6219 47.532 18.6291 47.1986 18.6399C46.8653 18.6542 46.6072 18.6865 46.4244 18.7367V23.9412C46.489 23.9663 46.5965 23.9843 46.747 23.9914C46.8976 23.9986 47.0553 24.0058 47.2165 24.0201C47.3814 24.0344 47.5355 24.038 47.686 24.038C47.8366 24.038 47.9513 24.038 48.0302 24.038C48.4996 24.038 48.9656 24.0022 49.4244 23.9304C49.8831 23.8587 50.2953 23.7224 50.6716 23.5144C51.0444 23.3063 51.3454 23.0194 51.5748 22.6428C51.8042 22.2698 51.9189 21.7855 51.9189 21.1901C51.9189 20.6736 51.8078 20.2504 51.5856 19.9132C51.3634 19.5796 51.0767 19.3142 50.7219 19.1205C50.3706 18.9268 49.9727 18.7941 49.5355 18.7224C49.0946 18.6579 48.6573 18.6219 48.2273 18.6219Z" fill="#939393"/>
<path d="M54.4439 25.6699C54.4439 24.8198 54.5551 24.0558 54.7773 23.3815C54.9995 22.7071 55.3257 22.1332 55.7593 21.6634C56.1895 21.1935 56.7163 20.8313 57.34 20.5838C57.96 20.3362 58.6697 20.2107 59.469 20.2107C60.304 20.2107 61.0388 20.3471 61.666 20.6232C62.2932 20.8994 62.8165 21.2796 63.2359 21.771C63.6552 22.2624 63.9635 22.8363 64.1677 23.4998C64.3721 24.1598 64.4724 24.8843 64.4724 25.6699C64.4724 26.5056 64.3577 27.2588 64.1283 27.926C63.8989 28.5931 63.5728 29.1634 63.1463 29.6333C62.7197 30.1032 62.1965 30.4654 61.5764 30.7129C60.9564 30.9604 60.2538 31.086 59.469 31.086C58.6051 31.086 57.8597 30.9497 57.2324 30.6735C56.6052 30.3973 56.0855 30.0207 55.6733 29.5365C55.2611 29.0522 54.9529 28.4783 54.7522 27.8184C54.5444 27.1584 54.4439 26.441 54.4439 25.6699ZM56.4045 25.6699C56.4045 26.1541 56.4583 26.6275 56.5693 27.0938C56.6805 27.5601 56.8561 27.9726 57.1034 28.342C57.3507 28.7115 57.6661 29.002 58.0532 29.2244C58.4403 29.4468 58.917 29.558 59.4869 29.558C61.5011 29.558 62.5083 28.2631 62.5083 25.6735C62.5083 25.1641 62.4545 24.6727 62.3434 24.1993C62.2323 23.7294 62.0602 23.3133 61.8201 22.9546C61.58 22.596 61.2682 22.3055 60.8811 22.0795C60.494 21.8571 60.028 21.7459 59.4869 21.7459C58.4797 21.7459 57.7163 22.0687 57.193 22.7179C56.6661 23.3599 56.4045 24.3463 56.4045 25.6699Z" fill="#939393"/>
<path d="M74.3538 30.1032C73.8951 30.4296 73.3607 30.6771 72.7444 30.8385C72.128 31.0035 71.4827 31.086 70.8016 31.086C69.938 31.086 69.2032 30.9532 68.5937 30.6914C67.9849 30.4296 67.4939 30.0637 67.1137 29.5939C66.7343 29.124 66.4615 28.5537 66.2894 27.8865C66.1211 27.2194 66.0351 26.4805 66.0351 25.6699C66.0351 23.9302 66.4581 22.5852 67.3004 21.6347C68.1426 20.6878 69.3574 20.2107 70.938 20.2107C71.6301 20.2107 72.232 20.2717 72.7444 20.3972C73.2533 20.5228 73.712 20.677 74.1169 20.86L73.6514 22.3306C73.3001 22.1476 72.92 22.0041 72.5116 21.9002C72.1032 21.7961 71.6583 21.7423 71.1783 21.7423C69.0599 21.7423 68.0028 23.0515 68.0028 25.6699C68.0028 26.1685 68.06 26.6491 68.1784 27.1117C68.2962 27.5781 68.4828 27.9905 68.7445 28.3492C69.0062 28.7079 69.3464 29.002 69.7658 29.2244C70.1887 29.4468 70.7052 29.558 71.3147 29.558C71.8594 29.558 72.3394 29.4826 72.7478 29.332C73.1569 29.1814 73.4971 29.002 73.7733 28.794L74.3538 30.1032Z" fill="#939393"/>
<path d="M83.494 30.1032C83.0354 30.4296 82.501 30.6771 81.8846 30.8385C81.2682 31.0035 80.6229 31.086 79.9418 31.086C79.0782 31.086 78.3434 30.9532 77.7339 30.6914C77.1251 30.4296 76.6341 30.0637 76.254 29.5939C75.8738 29.124 75.6018 28.5537 75.4296 27.8865C75.2609 27.2194 75.1748 26.4805 75.1748 25.6699C75.1748 23.9302 75.5983 22.5852 76.4406 21.6347C77.2828 20.6878 78.4977 20.2107 80.0782 20.2107C80.7703 20.2107 81.3722 20.2717 81.8846 20.3972C82.3935 20.5228 82.8522 20.677 83.2571 20.86L82.7916 22.3306C82.4404 22.1476 82.0602 22.0041 81.6518 21.9002C81.2427 21.7961 80.7986 21.7423 80.3185 21.7423C78.2002 21.7423 77.143 23.0515 77.143 25.6699C77.143 26.1685 77.2002 26.6491 77.3187 27.1117C77.4364 27.5781 77.6231 27.9905 77.8848 28.3492C78.143 28.7079 78.4867 29.002 78.9095 29.2244C79.333 29.4468 79.8489 29.558 80.4583 29.558C81.0031 29.558 81.4831 29.4826 81.8915 29.332C82.3006 29.1814 82.6408 29.002 82.9135 28.794L83.494 30.1032Z" fill="#939393"/>
<path d="M92.4357 24.9237L92.7111 22.8829H92.4963L91.5356 24.8054L86.7114 30.8133H85.3209V20.5049H87.1273V26.5881L86.991 28.3958H87.2059L88.1094 26.6491L92.8365 20.5049H94.249V30.8097H92.4426V24.9237H92.4357Z" fill="#939393"/>
<path d="M104.031 24.9237L104.307 22.8829H104.091L103.131 24.8054L98.3071 30.8133H96.916V20.5049H98.7189V26.5881L98.5826 28.3958H98.7981L99.701 26.6491L104.429 20.5049H105.841V30.8097H104.034V24.9237H104.031Z" fill="#939393"/>
<path d="M55.5379 5.58378L55.7493 3.55364H55.6454L54.8461 5.40802L51.0218 11.5164H50.495L46.4414 5.39009L45.6851 3.55364H45.5811L45.8751 5.56225V14.6656H44.2371V1.13613H45.5381L50.1402 8.0551L50.8319 9.56154H50.8749L51.5273 8.01561L55.9178 1.13613H57.2834V14.662H55.5379V5.58378Z" fill="#939393" stroke="#939393" stroke-width="0.495664" stroke-miterlimit="10"/>
<path d="M67.2413 8.94463L67.3053 7.74661H67.2413L66.3811 8.98412L61.6536 14.6656H60.6859V5.00273H62.3668V10.8959L62.3023 12.0365H62.3847L63.2055 10.8385L67.9327 5.00273H68.9182V14.6656H67.2379V8.94463H67.2413Z" fill="#939393" stroke="#939393" stroke-width="0.495664" stroke-miterlimit="10"/>
<path d="M78.5839 10.3937H73.8347V14.6656H72.1537V5.00273H73.8347V9.04147H78.5839V5.00273H80.2649V14.6656H78.5839V10.3937Z" fill="#939393" stroke="#939393" stroke-width="0.495664" stroke-miterlimit="10"/>
<path d="M92.9336 17.119H91.7972L91.4818 14.6656H83.5V5.00273H85.1811V13.3134H89.7402V5.00273H91.4212V13.3134H92.9336V17.119Z" fill="#939393" stroke="#939393" stroke-width="0.495664" stroke-miterlimit="10"/>
<path d="M101.57 8.94463L101.635 7.74661H101.57L100.71 8.98412L95.9824 14.6656H95.0148V5.00273H96.6959V10.8959L96.6311 12.0365H96.7172L97.5381 10.8385L102.266 5.00273H103.251V14.6656H101.57V8.94463Z" fill="#939393" stroke="#939393" stroke-width="0.495664" stroke-miterlimit="10"/>
<path d="M111.209 14.7409C110.968 14.8198 110.721 14.8629 110.463 14.8772C110.205 14.8916 109.968 14.8951 109.761 14.8951C108.485 14.8951 107.506 14.4827 106.818 13.6577C106.13 12.8327 105.789 11.5595 105.789 9.83061C105.789 8.18062 106.166 6.93959 106.926 6.10029C107.682 5.26457 108.775 4.84491 110.202 4.84491C110.592 4.84491 110.929 4.87002 111.209 4.92382V1.13614H112.807V4.94175C113.058 4.9023 113.284 4.87719 113.481 4.86284C113.678 4.84849 113.865 4.84491 114.047 4.84491C115.434 4.84491 116.478 5.21435 117.176 5.95682C117.875 6.69929 118.226 7.92596 118.226 9.63688C118.226 10.4475 118.133 11.1792 117.943 11.8284C117.753 12.4777 117.478 13.03 117.112 13.482C116.746 13.9339 116.302 14.2818 115.779 14.5257C115.252 14.7696 114.646 14.8916 113.961 14.8916C113.836 14.8916 113.649 14.8808 113.406 14.8629C113.162 14.845 112.961 14.8091 112.807 14.7553V18.525H111.209V14.7409ZM110.18 13.6219C110.348 13.6219 110.517 13.6147 110.685 13.6039C110.854 13.5895 111.036 13.5644 111.23 13.525V6.20072C111.062 6.17562 110.904 6.15409 110.757 6.14333C110.61 6.12899 110.431 6.1254 110.223 6.1254C109.355 6.1254 108.678 6.4231 108.194 7.02567C107.711 7.62472 107.47 8.56085 107.47 9.83778C107.47 10.3793 107.524 10.8815 107.628 11.3442C107.732 11.8069 107.897 12.2123 108.123 12.553C108.345 12.8937 108.632 13.1591 108.972 13.3456C109.313 13.5286 109.718 13.6219 110.18 13.6219ZM113.729 6.12182C113.56 6.12182 113.41 6.1254 113.277 6.13258C113.144 6.13975 112.979 6.16844 112.782 6.21866V13.5609C112.922 13.5859 113.08 13.6039 113.255 13.6075C113.431 13.6147 113.625 13.6183 113.833 13.6183C114.728 13.6183 115.405 13.2775 115.861 12.5924C116.316 11.9109 116.545 10.9246 116.545 9.63688C116.545 8.54293 116.338 7.68206 115.925 7.05799C115.514 6.43745 114.782 6.12182 113.729 6.12182Z" fill="#939393" stroke="#939393" stroke-width="0.495664" stroke-miterlimit="10"/>
<path d="M120.767 5.00264H121.921L122.237 6.16118H122.319C122.642 5.70925 123.058 5.36491 123.57 5.12818C124.082 4.89145 124.666 4.7695 125.323 4.7695C126.724 4.7695 127.767 5.1497 128.451 5.91011C129.136 6.67051 129.48 7.91517 129.48 9.64042C129.48 10.451 129.365 11.1827 129.132 11.8319C128.9 12.4811 128.577 13.0335 128.154 13.4855C127.734 13.9374 127.225 14.2853 126.63 14.5292C126.036 14.7731 125.373 14.8951 124.645 14.8951C124.126 14.8951 123.717 14.8664 123.416 14.809C123.115 14.7516 122.788 14.6512 122.437 14.5077V18.5285H120.756V5.00264H120.767ZM125.011 6.12173C124.297 6.12173 123.731 6.2939 123.319 6.63465C122.907 6.97539 122.617 7.49545 122.448 8.19133V12.9833C122.699 13.1627 122.986 13.3025 123.308 13.3993C123.631 13.4962 124.058 13.5428 124.591 13.5428C125.559 13.5428 126.326 13.2129 126.892 12.5493C127.459 11.8857 127.742 10.9101 127.742 9.62244C127.742 9.0952 127.692 8.61456 127.595 8.18416C127.498 7.75376 127.341 7.38429 127.122 7.08297C126.903 6.78171 126.624 6.54498 126.283 6.37639C125.939 6.20782 125.516 6.12173 125.011 6.12173Z" fill="#939393" stroke="#939393" stroke-width="0.495664" stroke-miterlimit="10"/>
<path d="M133.812 8.69356C134.15 8.64332 134.472 8.60748 134.78 8.58598C135.088 8.56799 135.382 8.55724 135.662 8.55724C136.375 8.55724 136.974 8.63257 137.457 8.77964C137.941 8.92672 138.329 9.13113 138.623 9.38937C138.916 9.64768 139.124 9.95251 139.242 10.3076C139.361 10.6627 139.421 11.0394 139.421 11.4374C139.421 12.6104 139.067 13.4604 138.361 13.9877C137.655 14.515 136.508 14.7804 134.927 14.7804C134.031 14.7804 133.099 14.7409 132.132 14.6656V5.00273H133.812V8.69356ZM133.812 13.3134C134.329 13.3923 134.827 13.4282 135.303 13.4282C136.185 13.4282 136.802 13.2703 137.153 12.9547C137.504 12.639 137.68 12.1907 137.68 11.6133C137.68 11.0967 137.508 10.6735 137.164 10.3363C136.82 10.0028 136.221 9.83417 135.368 9.83417C135.128 9.83417 134.87 9.84134 134.59 9.85209C134.311 9.86643 134.053 9.90234 133.812 9.96691V13.3134ZM141.081 5.00273H142.762V14.6656H141.081V5.00273Z" fill="#939393" stroke="#939393" stroke-width="0.495664" stroke-miterlimit="10"/>
</g>
</g>
</g>
<defs>
<clipPath id="clip0_36_889">
<rect width="145.639" height="31.6246" fill="white" transform="scale(1.00247)"/>
</clipPath>
</defs>
</svg>
