<svg width="109" height="39" viewBox="0 0 109 39" fill="none" xmlns="http://www.w3.org/2000/svg">
<g clip-path="url(#clip0_36_933)">
<mask id="mask0_36_933" style="mask-type:luminance" maskUnits="userSpaceOnUse" x="0" y="0" width="110" height="39">
<path d="M109.907 0H0.907227V39H109.907V0Z" fill="white"/>
</mask>
<g mask="url(#mask0_36_933)">
<path d="M23.179 22.2788C22.6461 22.8781 21.9507 23.3029 21.1809 23.4997C20.4111 23.6965 19.6013 23.6564 18.8538 23.3845C18.1063 23.1126 17.4548 22.621 16.9815 21.972C16.5081 21.3229 16.2343 20.5455 16.1945 19.7379C16.1548 18.9303 16.3508 18.1289 16.7581 17.4348C17.1653 16.7408 17.7653 16.1853 18.4823 15.8385C19.1993 15.4917 20.0011 15.3693 20.7864 15.4866C21.5717 15.604 22.3053 15.9558 22.8943 16.4977C23.2867 16.8576 23.6054 17.2929 23.8322 17.7786C24.0589 18.2643 24.1893 18.7908 24.2157 19.328C24.2422 19.8652 24.1642 20.4024 23.9863 20.9088C23.8084 21.4152 23.534 21.8808 23.179 22.2788Z" fill="#939393"/>
<path d="M21.2528 5.52139C21.5848 5.85967 21.8991 6.20405 22.1778 6.54837C23.1475 7.72692 23.9463 9.04111 24.5497 10.4508C25.5014 10.6316 26.4704 10.7005 27.4375 10.6561H27.6095H27.7636C30.4056 10.4102 32.8715 9.20026 34.7073 7.24908L34.9504 6.99537C34.5828 6.54837 34.2092 6.11344 33.8001 5.69656C30.5342 2.38128 26.2064 0.373833 21.6076 0.0410862C17.0088 -0.291661 12.4459 1.07252 8.75293 3.88432C14.6234 0.972612 18.6971 2.97819 21.2528 5.52139Z" fill="#939393"/>
<path d="M7.66148 25.3718C7.78006 24.9066 7.91642 24.4596 8.06468 24.0428C8.58465 22.5994 9.30342 21.2387 10.1994 20.0014C9.87863 19.0723 9.45279 18.1843 8.93043 17.3555L8.83556 17.2045L8.74661 17.0777C7.22517 14.8911 4.9845 13.3329 2.43145 12.6859L2.09346 12.5832C1.89778 13.1269 1.71989 13.6766 1.56572 14.2445C0.377619 18.7819 0.831544 23.6033 2.84456 27.8279C4.85758 32.0526 8.29532 35.3984 12.5298 37.2542C7.10405 33.5089 6.7661 28.8937 7.66148 25.3718Z" fill="#939393"/>
<path d="M31.3836 27.468C30.927 27.5948 30.4763 27.6975 30.0435 27.776C28.5571 28.0382 27.0416 28.0829 25.5428 27.9089C24.9157 28.6484 24.3744 29.4592 23.9299 30.3253C23.9299 30.3797 23.8766 30.428 23.8528 30.4823C23.8287 30.5295 23.8069 30.5779 23.7877 30.6273C22.6781 33.0639 22.4676 35.8261 23.1947 38.408C23.1947 38.5228 23.2599 38.6376 23.2955 38.7523C23.8528 38.6496 24.4162 38.5409 24.9736 38.3899C29.4169 37.165 33.2808 34.3556 35.8622 30.473C38.4436 26.5904 39.5709 21.8926 39.0389 17.2347C38.5645 23.8978 34.811 26.4954 31.3836 27.468Z" fill="#939393"/>
<path d="M8.72166 3.8842C5.91047 5.88516 3.71277 8.65603 2.38281 11.8763C4.36024 12.3017 6.19211 13.2521 7.69272 14.6313C9.19332 16.0104 10.3093 17.7693 10.9275 19.7295C11.4553 19.3851 13.08 18.0743 14.1711 14.4739C15.4934 10.1184 17.9958 6.90466 21.2512 5.50317C21.2512 5.52128 17.13 -0.453157 8.72166 3.8842Z" fill="#939393"/>
<path d="M21.92 35.2426C21.9177 32.3239 22.9906 29.5107 24.9264 27.3592L24.9561 27.3169C24.5588 26.888 23.1771 25.8369 19.6194 26.6585C15.2847 27.6673 10.4698 27.5525 7.65909 25.3717C7.65909 25.3717 4.63494 32.0168 12.5274 37.2421C15.6291 38.7224 19.0789 39.2774 22.4774 38.8429C22.099 37.6821 21.9107 36.4657 21.92 35.2426Z" fill="#939393"/>
<path d="M35.4181 7.64769C34.3563 8.87704 33.0502 9.86236 31.5862 10.5383C30.1222 11.2142 28.534 11.5653 26.9267 11.5683C26.0798 11.5652 25.2353 11.4741 24.4066 11.2964H24.365C24.199 11.9005 24.0686 13.6222 26.4701 16.256C29.5121 19.6026 31.8068 23.9037 31.3858 27.4739C31.3858 27.4739 38.5015 26.8276 39.0411 17.2407C38.7473 13.7585 37.4911 10.4325 35.4181 7.64769Z" fill="#939393"/>
<path d="M47.8939 24.4899H45.8955V14.9996H49.1035C51.4754 14.9996 52.9223 15.9903 52.9223 18.1711C52.9223 20.3519 51.4042 21.5238 48.9375 21.5238H47.8939V24.4899ZM47.8523 19.7296H48.9375C50.1234 19.7296 50.8528 19.2584 50.8528 18.2556C50.8528 17.2529 50.1827 16.7937 48.9375 16.7937H47.8523V19.7296Z" fill="#939393"/>
<path d="M54.375 19.7478C54.375 16.5582 56.2783 14.8366 58.8461 14.8366C61.7219 14.8366 63.3881 16.6971 63.3881 19.7478C63.3881 23.1247 61.4547 24.653 58.899 24.653C56.201 24.653 54.375 22.9555 54.375 19.7478ZM61.2711 19.7478C61.2711 17.5912 60.2986 16.6307 58.8461 16.6307C57.5296 16.6307 56.474 17.6335 56.474 19.7478C56.474 21.8621 57.5535 22.8649 58.9525 22.8649C60.352 22.8649 61.2711 21.8742 61.2711 19.7478Z" fill="#939393"/>
<path d="M72.2707 24.1091C71.4923 24.5142 70.623 24.7019 69.7505 24.6528C66.9043 24.6528 65.0068 22.9855 65.0068 19.8684C65.0068 16.6003 66.8805 14.8364 69.9282 14.8364C70.7404 14.8172 71.5484 14.9694 72.3003 15.2834L71.8611 16.9929C71.3362 16.8185 70.7886 16.7228 70.2367 16.709C68.3985 16.709 67.1472 17.6454 67.1472 19.7295C67.1472 21.735 68.3329 22.7499 70.2245 22.7499C70.7912 22.7313 71.3495 22.6085 71.8733 22.3874L72.2707 24.1091Z" fill="#939393"/>
<path d="M79.5753 21.9587H75.6206L74.719 24.4899H73.5332L77.091 14.9996H78.2768L81.7638 24.4899H80.5124L79.5753 21.9587ZM75.982 20.8472H79.1785L77.6244 16.3829H77.5715L75.982 20.8472Z" fill="#939393"/>
<path d="M85.8786 24.4899H84.6928V16.1414H81.9355V14.9996H88.6417V16.1414H85.8786V24.4899Z" fill="#939393"/>
<path d="M89.8984 19.7476C89.8984 16.7272 91.6176 14.8665 94.0489 14.8665C96.8183 14.8665 98.3063 16.8722 98.3063 19.7476C98.3063 22.9735 96.5273 24.6287 94.0907 24.6287C91.535 24.6287 89.8984 22.756 89.8984 19.7476ZM97.0612 19.7476C97.0612 17.144 95.9167 16.0022 94.0965 16.0022C92.4599 16.0022 91.1969 17.2104 91.1969 19.7476C91.1969 22.2848 92.4181 23.4869 94.2563 23.4869C95.9818 23.4869 97.0612 22.2002 97.0612 19.7476Z" fill="#939393"/>
<path d="M109.906 24.4899H108.72L108.127 17.0777L105.755 24.4899H104.504L102.168 17.1018L101.574 24.4899H100.389L101.183 14.9996H102.648L105.162 23.1609L107.64 14.9996H109.105L109.906 24.4899Z" fill="#939393"/>
</g>
</g>
<defs>
<clipPath id="clip0_36_933">
<rect width="109" height="39" fill="white"/>
</clipPath>
</defs>
</svg>
