<svg width="114" height="34" viewBox="0 0 114 34" fill="none" xmlns="http://www.w3.org/2000/svg">
<g clip-path="url(#clip0_36_885)">
<path fill-rule="evenodd" clip-rule="evenodd" d="M27.1236 0H-2.68035V18.6275H4.77265C3.7339 17.2448 3.10112 15.6003 2.94525 13.8786C2.78938 12.1568 3.11658 10.4256 3.89017 8.87919C4.66376 7.33274 5.85319 6.0321 7.32506 5.12307C8.797 4.21404 10.4932 3.73254 12.2236 3.73254C13.954 3.73254 15.6503 4.21404 17.1222 5.12307C18.5941 6.0321 19.7835 7.33274 20.5571 8.87919C21.3307 10.4256 21.6579 12.1568 21.502 13.8786C21.3462 15.6003 20.7134 17.2448 19.6746 18.6275H27.1236V0Z" fill="#939393"/>
<path fill-rule="evenodd" clip-rule="evenodd" d="M7.11209 11.1764H7.00629V33.5294H29.3592V33.4156C24.088 31.8551 19.2913 29.0029 15.4057 25.1187C11.5202 21.2346 8.66913 16.4418 7.11209 11.1764Z" fill="#939393"/>
<path fill-rule="evenodd" clip-rule="evenodd" d="M84.1921 21.319C84.0811 21.5927 83.9857 21.8725 83.9067 22.157C83.8061 22.4485 83.7495 22.7535 83.7391 23.0619C83.7309 23.2469 83.7838 23.4296 83.8903 23.5814C84.0274 23.7192 84.1973 23.82 84.3843 23.8746C84.5281 23.9105 84.6734 23.9384 84.8202 23.9584L85.2643 24.017V24.4862H81.2839V24.017C81.5455 23.9866 81.7981 23.9069 82.0298 23.7824C82.2653 23.6672 82.4806 23.5144 82.6669 23.33C82.8062 23.1713 82.9276 22.997 83.0267 22.8105C83.1013 22.6757 83.1661 22.5357 83.2197 22.3915L88.4227 8.84297H88.8251L94.2047 24.017H95.8044V24.4862H89.3027V24.017H91.4061L89.6633 19.216H85.0549L84.2167 21.3442L84.1921 21.319ZM87.4593 12.781L85.1637 18.7216H89.4875L87.4593 12.781ZM110.82 9.31223H109.01V24.017H110.82V24.4862H104.561V24.017H106.371V9.31223H103.714C103.433 9.31998 103.154 9.34517 102.877 9.38764C102.519 9.4348 102.185 9.59306 101.922 9.84006C101.709 10.0339 101.555 10.2835 101.478 10.5606C101.409 10.811 101.359 11.0657 101.326 11.3231C101.326 11.5745 101.267 11.8594 101.251 12.161C101.234 12.4627 101.251 12.8397 101.251 13.2586C101.251 13.6775 101.251 14.1803 101.251 14.75C101.251 15.3198 101.251 15.9901 101.251 16.7526L101.151 20.4141C101.151 21.0007 101.151 21.5286 101.092 21.9978C101.075 22.4298 100.981 22.8554 100.815 23.2546C100.728 23.5071 100.583 23.7361 100.393 23.9235C100.203 24.1111 99.9718 24.2521 99.7177 24.3354C99.3921 24.4597 99.0434 24.5112 98.6954 24.4862C98.0189 24.5157 97.3505 24.331 96.785 23.9584C96.5465 23.7782 96.3424 23.5568 96.1822 23.3049C95.9855 22.9765 95.8894 22.5979 95.905 22.2156C95.8856 21.7514 96.0414 21.2968 96.3409 20.942C96.6345 20.637 97.0331 20.4545 97.4556 20.4312C97.8788 20.4079 98.2945 20.5455 98.6202 20.8163C98.7446 20.9335 98.8444 21.075 98.9115 21.2321C98.9793 21.3892 99.0143 21.5585 99.0136 21.7297C99.0218 22.117 98.9175 22.4985 98.7126 22.8273L98.4942 23.1373C98.4406 23.217 98.4085 23.3094 98.4026 23.4054C98.4153 23.5168 98.4555 23.6232 98.5196 23.7154C98.5948 23.8411 98.7707 23.9081 99.0389 23.9081C99.2744 23.9053 99.5038 23.8355 99.7013 23.707C99.9628 23.5336 100.163 23.2812 100.271 22.9864C100.394 22.6496 100.471 22.2971 100.497 21.9391C100.497 21.5453 100.539 21.0342 100.556 20.4141L100.648 16.761C100.648 15.9622 100.665 15.3171 100.698 14.8254C100.698 14.3311 100.698 13.9876 100.698 13.6608V11.7253C100.698 11.4907 100.698 11.2058 100.657 10.8874C100.636 10.5657 100.516 10.2583 100.312 10.0076C100.195 9.85593 100.051 9.728 99.8853 9.63061C99.7363 9.53494 99.5761 9.45887 99.4077 9.4044C99.1604 9.33213 98.9026 9.30098 98.6455 9.31223H98.042V8.84297H110.786V9.31223H110.82ZM58.9547 9.31223H56.9856L61.7029 19.2495L64.6523 11.7085C64.7507 11.4733 64.8264 11.2292 64.8785 10.9796C64.9396 10.7325 64.9761 10.4799 64.9875 10.2255C64.9951 10.0891 64.9694 9.95294 64.9124 9.82881C64.8555 9.70468 64.7691 9.59641 64.6607 9.51326C64.4395 9.36014 64.1755 9.28094 63.9065 9.28705H63.5714V8.80944H67.6435V9.28705C67.3254 9.27811 67.0097 9.34412 66.7218 9.47981C66.4955 9.59805 66.2867 9.74759 66.1018 9.92388C65.9434 10.0746 65.8104 10.2501 65.708 10.4434C65.6276 10.5691 65.5629 10.7041 65.5153 10.8455L62.1638 19.5847C61.9711 20.0622 61.7616 20.4896 61.5773 20.8666C61.4029 21.2326 61.2071 21.588 60.9908 21.9307C60.7998 22.2609 60.59 22.5798 60.3623 22.8859C60.1357 23.1943 59.8742 23.4754 59.5831 23.7238C59.3373 23.9566 59.054 24.1464 58.7452 24.2852C58.4369 24.3983 58.11 24.4523 57.7816 24.4444C57.3378 24.458 56.896 24.381 56.4829 24.2181C56.138 24.0803 55.816 23.8911 55.5278 23.6568C55.1498 23.3816 54.859 23.0034 54.6898 22.5675C54.5743 22.2417 54.5121 21.8993 54.5055 21.5537C54.5074 21.341 54.5384 21.1296 54.5977 20.9253C54.6615 20.7223 54.7608 20.5322 54.8909 20.3639C55.0365 20.175 55.2249 20.0235 55.4404 19.9215C55.656 19.8195 55.8926 19.7701 56.131 19.7774C56.3425 19.7622 56.5548 19.7932 56.7531 19.8685C56.9514 19.9437 57.1308 20.0613 57.2789 20.2131C57.5076 20.4344 57.645 20.7333 57.6643 21.051C57.6631 21.2335 57.6319 21.4146 57.5722 21.5872C57.5133 21.7489 57.4315 21.9013 57.3292 22.0396C57.1571 22.2778 56.9374 22.4774 56.684 22.6262C56.5813 22.6678 56.4927 22.7382 56.4288 22.8288C56.365 22.9194 56.3284 23.0265 56.3238 23.1373C56.3365 23.2409 56.3698 23.3409 56.4216 23.4315C56.4734 23.5221 56.5426 23.6015 56.6254 23.6651C56.9008 23.8811 57.2488 23.9831 57.5973 23.9501C57.9517 23.9503 58.3005 23.8609 58.6111 23.6902C58.9211 23.5286 59.2038 23.3193 59.4491 23.0702C59.6285 22.8709 59.7885 22.6549 59.9266 22.4251C60.0691 22.1821 60.1612 22.0229 60.2115 21.9475L54.0195 9.32892H52.3438V8.85139H58.9295V9.32892L58.9547 9.31223ZM51.8662 12.957C51.8353 12.6726 51.7763 12.3919 51.6902 12.1191C51.4551 11.4051 51.0429 10.7622 50.492 10.2506C49.886 9.67234 49.1322 9.2723 48.3136 9.09437C47.5079 8.91189 46.6846 8.81913 45.8586 8.81786H39.0466V9.29547H40.8648V24.017H39.0466V24.4862H45.314V24.017H43.4957V18.2776H45.825C46.7345 18.2817 47.6409 18.1719 48.523 17.9508C49.3186 17.778 50.0499 17.3862 50.6345 16.8196C50.7434 16.7107 50.8691 16.5599 51.0199 16.3755C51.1753 16.1624 51.3153 15.9383 51.4389 15.7053C51.5837 15.414 51.6961 15.1078 51.774 14.792C51.8626 14.3989 51.9047 13.9967 51.8997 13.5938C51.8997 13.4346 51.8997 13.2335 51.8997 12.9737L51.8662 12.957ZM48.1125 16.761C47.9567 16.9474 47.773 17.1086 47.5679 17.2386C47.3663 17.3604 47.153 17.4615 46.931 17.5402C46.6881 17.6073 46.4534 17.6659 46.2189 17.7078C45.9843 17.7497 45.7748 17.7748 45.5737 17.7916H45.1296H43.4957V9.32058H45.1212C45.5929 9.31968 46.0638 9.35895 46.5288 9.43786C46.9586 9.51244 47.3657 9.68441 47.7187 9.94065L47.8024 10.0076L47.8778 10.0579C48 10.1618 48.1122 10.2768 48.213 10.4014C48.9174 11.2917 49.2879 12.4003 49.2604 13.5352C49.297 14.7216 48.8874 15.8786 48.1125 16.7777V16.761ZM79.2647 8.82621H78.6783C78.656 9.03208 78.5576 9.22223 78.4027 9.35999C78.2477 9.49769 78.048 9.57317 77.8409 9.57197C77.6538 9.56989 77.469 9.53293 77.2962 9.46304L76.4579 9.16135C76.1674 9.05987 75.8708 8.9759 75.5698 8.91003C75.2487 8.85348 74.9238 8.82546 74.5982 8.82621C74.1437 8.81875 73.6899 8.84953 73.2406 8.91837C72.6952 8.99482 72.1625 9.14421 71.657 9.36245C71.1754 9.56743 70.7308 9.85049 70.3415 10.2004C69.8094 10.6916 69.3496 11.2558 68.9757 11.8761C68.5116 12.6154 68.1693 13.4245 67.962 14.2725C67.7571 15.1173 67.6559 15.9838 67.6603 16.8531C67.6439 17.804 67.7653 18.7523 68.0206 19.6684C68.2298 20.4111 68.5339 21.1235 68.9255 21.7883C69.2336 22.2867 69.6086 22.7406 70.0399 23.1373C70.4215 23.485 70.8573 23.7681 71.3302 23.9752C71.7565 24.1918 72.2146 24.3389 72.6878 24.4108C73.1609 24.4581 73.6363 24.4804 74.1116 24.4779C74.6056 24.484 75.0989 24.4277 75.578 24.3103C76.0265 24.1978 76.458 24.0259 76.8603 23.7992L77.5138 23.4473C77.7149 23.33 77.7313 23.2797 77.9414 23.2797C78.007 23.274 78.0741 23.2813 78.1374 23.3015C78.2007 23.3216 78.2589 23.3541 78.3095 23.3971C78.3974 23.476 78.4712 23.5695 78.5278 23.6736C78.5792 23.7747 78.6187 23.8816 78.6448 23.9919C78.6552 24.1538 78.6552 24.3161 78.6448 24.4779H79.1813V19.283H78.7707C78.7707 19.4003 78.7707 19.5176 78.7707 19.6349C78.7804 20.401 78.5711 21.1539 78.1672 21.8051C78.1508 21.8403 78.1314 21.874 78.1083 21.9056C77.6769 22.536 77.1032 23.0556 76.4326 23.4222C75.8231 23.7999 75.1227 24.0055 74.4052 24.017C73.9626 24.015 73.5252 23.9179 73.1236 23.7322C72.719 23.5587 72.3458 23.321 72.0172 23.0284C71.8002 22.8339 71.6037 22.6178 71.4308 22.3832C71.1655 22.0127 70.967 21.5987 70.8442 21.1599C70.8003 21.0337 70.7639 20.905 70.7353 20.7745C70.4667 19.4345 70.3514 18.0683 70.3918 16.7023C70.3918 13.7027 70.9783 11.7421 71.657 10.8958C71.657 10.8455 71.791 10.7282 71.8246 10.6863C71.9695 10.5186 72.123 10.3592 72.2854 10.2087C72.4642 10.0353 72.6676 9.88857 72.8889 9.773C73.1527 9.61981 73.4336 9.49888 73.7264 9.41275C74.093 9.31812 74.4708 9.2758 74.8493 9.28705C75.4461 9.27811 76.0362 9.41625 76.5667 9.68925C77.0451 9.93201 77.4609 10.2818 77.782 10.7115C77.9407 10.9374 78.0696 11.1823 78.1672 11.4405C78.2812 11.733 78.3758 12.0324 78.4526 12.337C78.536 12.6386 78.5949 12.9318 78.6448 13.1748C78.6955 13.4178 78.7201 13.6775 78.7372 13.8535H79.2148V8.84297L79.2647 8.82621Z" fill="#939393"/>
</g>
<defs>
<clipPath id="clip0_36_885">
<rect width="113.183" height="33.289" fill="white" transform="scale(1.00722)"/>
</clipPath>
</defs>
</svg>
