<svg width="90" height="34" viewBox="0 0 90 34" fill="none" xmlns="http://www.w3.org/2000/svg">
<g clip-path="url(#clip0_36_919)">
<mask id="mask0_36_919" style="mask-type:luminance" maskUnits="userSpaceOnUse" x="-3" y="0" width="91" height="33">
<path d="M87.2542 0H-2.10339V32.8165H87.2542V0Z" fill="white"/>
</mask>
<g mask="url(#mask0_36_919)">
<path d="M23.6366 4.1968H2.50125L4.02385 0H25.1592L23.6366 4.1968ZM22.8753 6.29521H1.73044L0.207859 10.492H21.3432L22.8753 6.29521ZM20.5915 12.5713H-0.553429L-2.07601 16.7682H19.0403L20.5915 12.5713Z" fill="#939393"/>
<path d="M73.9972 27.2696H77.8036C78.3449 27.3343 78.8932 27.2647 79.4011 27.0667C79.9089 26.8688 80.3602 26.5486 80.7157 26.1345C81.2377 25.4497 81.5007 24.6014 81.4582 23.7404C81.4936 23.1926 81.3933 22.6444 81.1657 22.1451C80.9382 21.6457 80.591 21.2107 80.1545 20.879C79.448 20.4156 78.6071 20.2008 77.7656 20.2685H73.9972V27.2696ZM69.0015 31.495V6.29508H85.3598L83.923 10.5205H73.9972V16.1004H78.0414C81.3059 16.1004 82.9998 16.8825 84.1698 17.884C85.0068 18.6267 85.6651 19.5498 86.0952 20.5839C86.5253 21.618 86.7162 22.7363 86.6538 23.8549C86.7181 25.0595 86.4809 26.2611 85.964 27.3505C85.4472 28.4399 84.6667 29.3826 83.6941 30.0929C82.1242 31.1803 80.4779 31.4855 77.1279 31.4855L69.0015 31.495ZM54.5178 31.495V10.511H47.2474V6.29508H67.431L65.9942 10.5205H59.5614V31.5046L54.5178 31.495ZM34.3721 16.3865H37.227C37.8108 16.4265 38.3974 16.3815 38.9684 16.2529C39.5622 16.0628 40.074 15.6761 40.4198 15.1562C40.7656 14.6363 40.9249 14.0141 40.8716 13.3915C40.9509 12.7729 40.8008 12.1466 40.45 11.6316C40.0992 11.1164 39.572 10.7482 38.9684 10.5968C38.345 10.4518 37.7044 10.3939 37.0652 10.4251H34.3721V16.3865ZM34.3721 20.7455V27.3554H37.8551C38.8149 27.4654 39.78 27.1988 40.5481 26.6115C40.9021 26.2827 41.1794 25.8798 41.3603 25.4313C41.5413 24.9829 41.6213 24.5 41.5949 24.017C41.61 23.2454 41.3764 22.4894 40.9288 21.8614C40.1865 20.9076 39.273 20.7264 37.7123 20.7264L34.3721 20.7455ZM42.4228 18.0843V18.1701C43.2712 18.4975 44.0641 18.9544 44.7733 19.5246C45.4901 20.1208 46.0567 20.8781 46.427 21.7348C46.7974 22.5916 46.9611 23.5238 46.9049 24.4558C46.9049 27.8991 45.0778 30.3886 42.0802 31.1326C40.8853 31.4253 39.6546 31.5442 38.426 31.4855H29.3761V6.29508H37.4268C38.7055 6.24823 39.9849 6.36684 41.2332 6.64802C44.1452 7.43014 46.058 9.44271 46.058 12.6189C46.0817 13.3762 45.9514 14.1304 45.6749 14.8355C45.3984 15.5406 44.9816 16.1819 44.4497 16.7203C43.8849 17.2951 43.2122 17.7522 42.4704 18.0652L42.4228 18.0843Z" fill="#939393"/>
</g>
</g>
<defs>
<clipPath id="clip0_36_919">
<rect width="89.8803" height="33.289" fill="white" transform="scale(1.00134)"/>
</clipPath>
</defs>
</svg>
