<svg width="700" height="433" viewBox="0 0 700 433" fill="none" xmlns="http://www.w3.org/2000/svg">
<rect x="0.5" y="0.5" width="699" height="432" stroke="#404040"/>
<path d="M431.851 432.114V336.942C431.731 334.911 431.669 332.875 431.671 330.835C431.671 329.261 431.729 327.692 431.843 326.133V267.129C431.843 267.099 431.847 267.069 431.851 267.04V1.1052C193.625 1.84588 1.08243 194.495 1.08241 432.459H0C1.7829e-05 193.787 193.205 0.588189 432.179 0.0232451C432.19 0.0225909 432.201 0.0200773 432.212 0.0200754H432.253C432.298 0.00815416 432.344 0 432.393 0C432.441 0 432.487 0.00815416 432.532 0.0200754H433.23C433.241 0.0200754 433.252 0.0236575 433.262 0.0243017C580.436 0.588144 699.361 119.573 699.492 266.572C699.74 266.588 699.942 266.769 699.987 267.009C699.995 267.044 700 267.081 700 267.118C700 267.407 699.773 267.641 699.487 267.656C699.391 289.197 695.102 310.517 686.847 330.427C678.485 350.595 666.221 368.92 650.759 384.354C635.296 399.789 616.937 412.03 596.731 420.377C576.859 428.586 555.584 432.867 534.084 432.994C534.063 432.996 534.043 433 534.022 433H533.003C532.98 433 532.958 432.995 532.936 432.993C519.863 432.861 506.93 430.232 494.843 425.239C482.423 420.108 471.136 412.583 461.631 403.095C452.125 393.606 444.586 382.34 439.445 369.941C436.369 362.522 434.188 354.783 432.934 346.889V432.114C432.934 432.412 432.691 432.655 432.393 432.655C432.094 432.655 431.851 432.412 431.851 432.114ZM432.934 336.913C433.603 348.111 436.136 359.135 440.445 369.527C445.532 381.794 452.99 392.941 462.396 402.329C471.8 411.716 482.967 419.162 495.257 424.24C507.393 429.253 520.391 431.857 533.522 431.915C533.545 431.915 533.568 431.914 533.591 431.914V331.102H512.337C511.097 331.283 509.838 331.378 508.569 331.378C507.678 331.378 506.81 331.279 505.972 331.093H432.934V336.913ZM534.703 330.561C534.703 330.567 534.701 330.573 534.701 330.58V431.908C555.849 431.704 576.767 427.454 596.318 419.377C616.392 411.085 634.632 398.924 649.995 383.589C665.356 368.256 677.539 350.05 685.847 330.012C694.047 310.236 698.309 289.057 698.406 267.659H534.703V330.561ZM533.619 312.356C532.431 316.637 530.151 320.581 526.949 323.777C524.093 326.628 520.642 328.745 516.887 330.011H533.619V312.356ZM509.383 330.011H512.319C517.538 329.218 522.405 326.783 526.184 323.011C530.744 318.459 533.353 312.324 533.474 305.9H509.383V330.011ZM490.025 267.67C475.481 269.121 461.807 275.54 451.38 285.948C440.587 296.722 434.074 310.968 432.934 326.057V330.01H495.32V317.605C495.32 317.601 495.321 317.598 495.321 317.594V305.369C495.321 305.366 495.32 305.362 495.32 305.359L495.321 267.67H490.025ZM496.905 318.146C497.122 324.031 501.013 328.824 506.107 330.01H508.291V318.146H496.905ZM496.404 330.01H503.01C499.873 328.374 497.464 325.395 496.404 321.777V330.01ZM432.934 318.14C435.424 305.746 441.527 294.253 450.615 285.182C459.54 276.273 470.806 270.238 482.97 267.67H432.934V318.14ZM496.404 317.064H508.301V305.9H496.404V317.064ZM496.404 304.818H508.733C508.768 304.811 508.805 304.807 508.842 304.807H533.472C533.31 294.934 529.313 285.501 522.307 278.506C516.317 272.527 508.537 268.742 500.224 267.67H496.404V304.818ZM505.714 267.67C512.221 269.452 518.217 272.895 523.072 277.74C528.379 283.038 532.008 289.698 533.619 296.897V267.67H505.714ZM432.934 266.577H490.084C491.788 266.412 493.504 266.313 495.228 266.283L495.334 266.273H496.352C496.398 266.273 496.442 266.28 496.485 266.291C497.738 266.328 498.983 266.423 500.217 266.577H534.073C534.102 266.573 534.13 266.569 534.16 266.569H698.409C698.277 120.061 579.661 1.49188 432.934 1.10414V266.577Z" fill="#404040"/>
</svg>
