<svg width="142" height="30" viewBox="0 0 142 30" fill="none" xmlns="http://www.w3.org/2000/svg">
<path d="M93.1121 8.17514L85.9225 24.7194H93.29L100.486 8.17514H93.1121Z" fill="#939393"/>
<path d="M117.185 8.1748L106.547 20.3057L111.84 8.1748H104.398L98.3089 22.259C97.7147 23.6164 98.7156 24.7195 99.7379 24.7195H107.234C108.801 24.7195 109.865 23.4245 109.865 23.4245L123.19 8.1748H117.185Z" fill="#939393"/>
<path d="M127.841 8.1748C126.905 8.1748 124.825 8.1748 123.869 10.2787L118.834 21.8082C118.008 23.513 119.324 24.7195 121.159 24.7195H133.064L134.634 21.0983H127.235C126.944 21.0983 126.811 20.9993 126.752 20.9067C126.641 20.741 126.7 20.5411 126.745 20.4417L127.762 18.1126L135.921 18.122L137.479 14.531L129.308 14.5343L130.271 12.3462C130.327 12.2171 130.499 11.8116 131.344 11.8116H138.657L140.239 8.17623L127.841 8.1748Z" fill="#939393"/>
<path d="M44.5415 0L51.0069 4.71554H57.7257C58.6006 4.71554 59.2062 4.95167 59.5175 5.41706C59.9332 6.04025 59.7714 6.92461 59.634 7.2347L54.936 17.9716C54.4619 18.9746 53.433 20.0065 49.5694 20.0065H44.8079L50.5787 6.69462H42.9803L35.1391 24.7225H51.6231C59.2476 24.7225 60.4316 22.6186 62.0898 18.967L65.8831 10.3996C66.779 8.262 67.8499 5.28865 66.1221 2.79884C64.6124 0.622447 62.1671 0 59.6671 0H44.5415Z" fill="#939393"/>
<path d="M70.8802 8.1748L63.6786 24.7195H71.0484L76.6794 11.809L79.2699 11.8141C80.4169 11.7953 80.8822 12.1079 81.0325 12.5105C81.9583 15.0196 74.242 18.2095 74.242 18.2095L85.6075 29.4833H86.8035L81.129 18.8758C82.0561 18.3963 87.9016 16.5837 87.6596 12.047C87.5417 9.81586 85.6606 8.1748 80.47 8.1748H70.8802Z" fill="#939393"/>
<path d="M34.1389 8.17514L31.7706 13.7308H36.9707L39.3845 8.17514H34.1389Z" fill="#939393"/>
<path d="M18.151 0C11.4605 0 8.54329 2.14448 7.00028 5.3797L3.65853 13.0022C-0.863497 22.4394 5.24335 24.7184 9.69135 24.7184H23.9777L31.1638 8.1778H23.1538L15.0547 13.728H21.1408L18.4116 19.9975H10.8817C10.8817 19.9975 8.1761 19.9975 9.47525 17.1319L13.9628 6.87995C14.7456 5.15661 16.0429 4.71589 17.8179 4.71589H28.1773L35.168 0.000363087L18.151 0Z" fill="#939393"/>
</svg>
