<svg width="142" height="31" viewBox="0 0 142 31" fill="none" xmlns="http://www.w3.org/2000/svg">
<g clip-path="url(#clip0_427_4284)">
<path d="M29.1995 31H0.661777C0.642532 30.6771 0.611041 30.3648 0.611041 30.0526C0.609292 20.9836 0.618039 11.9147 0.591797 2.85468C0.591797 2.09105 0.782489 1.83056 1.54527 1.78417C6.95468 1.49871 12.3624 1.17577 17.7683 0.852837C22.2732 0.579856 26.7764 0.292604 31.4808 0C30.7198 10.3571 29.9605 20.6625 29.1995 31Z" fill="#939393"/>
<path d="M53.3003 17.9969H60.7531C61.8885 17.9969 63.0275 18.0272 64.1594 17.9844C64.7595 17.9612 64.9764 18.1771 65.0167 18.782C65.1146 20.2681 64.9257 21.6919 64.1962 22.9908C63.9232 23.4743 63.9792 23.8222 64.2294 24.2861C64.9308 25.5995 65.1919 27.1108 64.9729 28.5895C64.9414 28.834 64.5863 29.2247 64.3781 29.2265C60.7129 29.2658 57.0477 29.255 53.3021 29.255L53.3003 17.9969ZM55.9718 24.9784V26.4824H62.1912C61.9498 25.8276 61.9358 25.0319 61.1293 24.9998C59.4235 24.9302 57.7125 24.9784 55.9718 24.9784ZM55.9333 22.1451C56.0117 22.1845 56.0945 22.2139 56.18 22.2325C57.6018 22.2397 59.0247 22.2456 60.4487 22.2504C61.7189 22.2504 61.8623 22.1219 62.1142 20.7641H55.9333V22.1451Z" fill="#939393"/>
<path d="M82.1863 29.1907V26.6733C82.2601 26.6179 82.281 26.5894 82.3033 26.5858C83.9566 26.3485 83.962 26.3503 84.361 24.666C84.8384 22.6535 85.2901 20.632 85.7972 18.6266C85.8601 18.3786 86.2016 18.0272 86.4166 18.0236C89.3262 17.9843 92.2352 17.9968 95.2098 17.9968V29.1907H82.1863ZM92.5733 20.7141C91.1628 20.7141 89.8266 20.7016 88.4898 20.7284C88.3147 20.7284 88.0104 20.8979 87.9739 21.0424C87.5276 22.839 87.1198 24.6447 86.6965 26.477H92.5733V20.7141Z" fill="#939393"/>
<path d="M78.7391 14.2432L76.1696 14.8659C75.914 13.8239 75.6726 12.8373 75.4156 11.7935C73.4263 11.7935 71.4491 11.7757 69.4672 11.8167C69.2589 11.8167 68.9425 12.1254 68.8722 12.352C68.6328 13.1388 68.4806 13.9578 68.269 14.8641L65.6725 14.2468C66.451 10.7712 67.2033 7.37234 67.9978 3.98065C68.054 3.84504 68.1432 3.7261 68.2568 3.63476C68.3698 3.54341 68.5043 3.48259 68.6463 3.45789C71.0346 3.42042 73.4229 3.42578 75.8092 3.45789C76.0033 3.45789 76.3339 3.67556 76.3671 3.84506C77.1629 7.2635 77.9345 10.6945 78.7391 14.2432ZM69.6248 9.04236H74.801C74.6265 8.25193 74.4967 7.49728 74.2641 6.78004C74.2046 6.6407 74.114 6.51766 73.999 6.42093C73.8841 6.3242 73.7482 6.25651 73.6028 6.22336C72.6771 6.16359 71.7487 6.16359 70.823 6.22336C70.5836 6.23763 70.2191 6.47849 70.1549 6.6926C69.9236 7.43838 69.7992 8.22342 69.6248 9.04236Z" fill="#939393"/>
<path d="M113.662 29.3746L111.528 28.9036C110.92 28.7716 111.156 28.3273 111.231 27.9865C111.877 25.1015 112.539 22.2201 113.197 19.3369C113.294 18.9105 113.395 18.484 113.5 18.0344H121.689C122.491 21.5653 123.295 25.1211 124.124 28.7733L121.537 29.3907C121.336 28.5325 121.187 27.7225 120.937 26.9482C120.858 26.7019 120.498 26.3897 120.26 26.3844C118.486 26.3362 116.711 26.3844 114.934 26.3469C114.433 26.3469 114.28 26.5895 114.192 27.007C114.034 27.7546 113.858 28.5004 113.662 29.3746ZM120.177 23.535L119.546 20.7624H115.619L115.01 23.535H120.177Z" fill="#939393"/>
<path d="M80.3782 28.8055L77.8662 29.3783C77.6227 28.3613 77.3976 27.4157 77.142 26.3559H72.3748C70.6668 26.3559 70.6668 26.3559 70.284 28.0615C70.1948 28.4612 70.1089 28.8609 69.9865 29.3765L67.392 28.7806C67.9661 26.231 68.5151 23.7849 69.0662 21.3352C69.2765 20.411 69.4544 19.4779 69.7255 18.5733C69.7857 18.4327 69.8783 18.309 69.9953 18.2127C70.1123 18.1164 70.2502 18.0504 70.3976 18.0202C72.7582 17.9786 75.1195 17.9786 77.4814 18.0202C77.6173 18.0431 77.7458 18.1 77.8553 18.1859C77.9649 18.2719 78.0514 18.3841 78.1076 18.5127C78.8879 21.7973 79.6297 25.0891 80.3823 28.3809C80.3938 28.5223 80.3924 28.6644 80.3782 28.8055ZM76.5205 23.5512C76.3285 22.7055 76.1885 21.9811 75.9958 21.2746C75.9363 21.0676 75.7233 20.7518 75.5725 20.7482C74.4129 20.7143 73.2525 20.7482 72.0908 20.7482C71.8535 21.6171 71.6134 22.4842 71.3788 23.3549C71.3666 23.3977 71.4052 23.4566 71.4315 23.544L76.5205 23.5512Z" fill="#939393"/>
<path d="M56.0129 11.7915V14.6123H53.3572C53.3414 14.3089 53.3152 14.0199 53.3152 13.7308C53.3152 10.6121 53.3344 7.48623 53.2977 4.37286C53.2977 3.63243 53.5111 3.40762 54.2354 3.41654C57.4405 3.45223 60.6456 3.43617 63.8576 3.42547C64.3667 3.42547 64.7691 3.43974 64.7989 4.13913C64.902 6.58524 64.5731 8.92429 63.3467 11.0849C63.0511 11.6059 62.7187 11.8289 62.1063 11.8146C60.1225 11.7647 58.149 11.7915 56.0129 11.7915ZM56.0496 9.07235C57.7519 9.07235 59.3736 9.07235 60.9919 9.05988C61.0856 9.05234 61.1762 9.02215 61.2562 8.97194C61.3362 8.92167 61.4033 8.85272 61.452 8.77084C61.697 7.97333 61.8912 7.16511 62.1221 6.273H56.0496V9.07235Z" fill="#939393"/>
<path d="M112.636 3.56832V6.36947H121.308C121.71 7.97522 121.428 9.47751 121.169 10.9834C121.113 11.3041 121.034 11.6207 120.935 11.9308C120.12 14.5749 119.875 14.7586 117.183 14.7586C115.055 14.7586 112.928 14.7586 110.8 14.7586C110.367 14.7586 109.994 14.7712 109.997 14.1342C110.016 10.7157 110.012 7.29902 110.02 3.88055C110.037 3.77295 110.068 3.66802 110.111 3.56832H112.636ZM112.762 11.9843C114.441 11.9843 116.007 11.9985 117.573 11.9682C117.778 11.9682 118.097 11.7737 118.155 11.5971C118.413 10.8281 118.592 10.0306 118.82 9.17061H112.762V11.9843Z" fill="#939393"/>
<path d="M109.622 18.0719C109.902 20.7482 109.568 23.2799 108.235 25.6368C107.938 26.1631 107.589 26.3808 106.984 26.3701C105.007 26.3344 103.03 26.3559 100.938 26.3559V29.1945H98.2905V18.0719H109.622ZM106.928 20.7785H100.959V23.469C101.05 23.5156 101.147 23.5498 101.247 23.5707C102.266 23.5814 103.286 23.5904 104.304 23.5921C106.529 23.5921 106.739 23.3941 106.953 21.0943C106.953 20.9886 106.944 20.8829 106.928 20.7785Z" fill="#939393"/>
<path d="M139.372 3.50057H141.915V14.6302H139.347V8.43382C138.897 8.66753 138.596 8.80845 138.309 8.96904C136.47 10.0503 134.658 11.1797 132.788 12.1984C132.039 12.607 131.688 13.0745 131.834 13.9273C131.847 14.1529 131.84 14.3793 131.811 14.6035H129.24V3.49164H131.841V9.61849L137.766 6.14828C137.885 6.06208 138.01 5.98627 138.141 5.92169C139.047 5.58091 139.502 4.97787 139.303 3.9591C139.302 3.80345 139.326 3.64871 139.372 3.50057Z" fill="#939393"/>
<path d="M94.9521 14.6105V10.0769C94.9521 8.11432 94.9677 6.15173 94.9413 4.18914C94.9413 3.60571 95.134 3.40767 95.7027 3.42194C98.0903 3.47904 97.6076 3.11328 97.6603 5.36491C97.6758 6.09998 97.6603 6.8386 97.6603 7.6415H104.686V3.48974H107.31V14.6194H104.706V10.5497H97.6745V14.6105H94.9521Z" fill="#939393"/>
<path d="M92.0783 3.50769V7.77183H89.5048C89.4824 7.30266 89.4595 6.81555 89.4297 6.20714C87.5438 6.20714 85.691 6.19644 83.8315 6.22677C83.7294 6.25676 83.6368 6.31285 83.5624 6.38969C83.488 6.46653 83.4346 6.56155 83.4062 6.66568C83.371 8.25894 83.3535 9.85402 83.4062 11.4455C83.4062 11.6239 83.9309 11.9219 84.2163 11.9272C86.4903 11.9665 88.765 11.9486 91.039 11.9486H92.0364V14.5838C91.8275 14.6284 91.6158 14.6576 91.4028 14.6713C88.3715 14.6713 85.3394 14.6713 82.306 14.6891C81.7806 14.6891 81.5129 14.5107 81.3398 14.0254C80.172 10.8542 80.172 7.35866 81.3398 4.18746C81.496 3.75034 81.6758 3.4167 82.2499 3.42027C85.3692 3.44703 88.4884 3.43276 91.6077 3.43811C91.7659 3.45013 91.9235 3.47338 92.0783 3.50769Z" fill="#939393"/>
<path d="M41.603 10.4783V14.6195H38.9788V3.49869H41.603V7.70222C42.9204 7.70222 44.1381 7.72897 45.3522 7.67547C45.5621 7.6665 45.8071 7.35428 45.954 7.12589C46.8288 5.76637 47.679 4.39256 48.566 2.98128L50.8018 4.44965C49.9464 5.82168 49.1486 7.15622 48.2949 8.45154C47.9834 8.92254 47.9992 9.26334 48.2949 9.72369C49.1346 11.0065 49.9271 12.3232 50.7949 13.7149L48.5433 15.1957C47.6685 13.8094 46.82 12.4731 46.0048 11.11C45.7336 10.655 45.4327 10.4444 44.8921 10.4659C43.8372 10.5069 42.7665 10.4783 41.603 10.4783Z" fill="#939393"/>
<path d="M48.5564 17.5083L50.8133 18.9748C50.0121 20.2559 49.2825 21.5083 48.4655 22.6967C48.0193 23.346 47.9756 23.835 48.4497 24.5076C49.2772 25.6923 49.9945 26.9412 50.801 28.2382L48.5564 29.7191C47.7027 28.3614 46.8507 27.0607 46.0652 25.7208C45.7433 25.1713 45.3899 24.9251 44.7478 24.9607C43.7348 25.0178 42.7184 24.975 41.6144 24.975V29.1874H38.9867V18.0756H41.5515V22.2399C42.8881 22.2399 44.1285 22.2666 45.3653 22.2131C45.5718 22.2131 45.8062 21.8723 45.955 21.6404C46.8139 20.3041 47.6519 18.9534 48.5564 17.5083Z" fill="#939393"/>
<path d="M125.193 20.7248V18.0485H136.673V20.6606H132.231V29.2085H129.637V20.7248H125.193Z" fill="#939393"/>
<path d="M126.047 3.51139C126.047 7.14934 126.047 10.6267 126.047 14.104C126.047 14.2467 126.024 14.3913 126.007 14.6054H123.437V3.51139H126.047Z" fill="#939393"/>
<path d="M134.134 3.40431V0.751245H137.244C137.122 1.48989 137.038 2.21426 136.862 2.91544C136.811 3.03566 136.732 3.14157 136.633 3.2242C136.533 3.30682 136.415 3.36371 136.29 3.39003C135.602 3.44178 134.909 3.40431 134.134 3.40431Z" fill="#939393"/>
</g>
<defs>
<clipPath id="clip0_427_4284">
<rect width="142" height="31" fill="white"/>
</clipPath>
</defs>
</svg>
