<svg width="119" height="25" viewBox="0 0 119 25" fill="none" xmlns="http://www.w3.org/2000/svg">
<path d="M105.835 25H109.657L119 0H115.178L105.835 25ZM100.822 12.2504C100.822 14.4169 99.5481 16.2505 97.0844 16.2505C94.622 16.2505 93.2633 14.2505 93.2633 12.2504C93.2633 10.2505 94.622 8.25042 97.0844 8.25042C99.4631 8.25042 100.822 10.0002 100.822 12.2504ZM97.5094 5.41708C95.1313 5.41708 93.7726 6.66699 93.3483 7.16682V5.74977H89.7816V25H93.4326V17.5004C93.8576 17.917 95.3013 19.0838 97.5094 19.0838C100.907 19.0838 104.049 16.5832 104.049 12.2504C104.134 7.66666 100.652 5.41708 97.5094 5.41708ZM77.9744 10.8335C78.0594 9.91694 78.9937 8.16649 81.2024 8.16649C83.6655 8.16649 84.0905 10.0833 84.1748 10.8335H77.9744ZM81.2874 5.41708C77.1251 5.41708 74.322 8.41673 74.322 12.2504C74.322 16.0834 77.125 19.0838 81.3718 19.0838C85.6185 19.0838 87.4029 16.1666 87.4029 16.1666L84.6848 14.4169C84.6848 14.4169 83.7505 16.2505 81.3718 16.2505C78.9087 16.2505 77.8887 14.1673 77.8887 13.4164H87.6579C87.6579 13.4164 87.7429 12.8334 87.7429 12.6671V12.2504C87.7429 8.33357 85.3642 5.41708 81.2874 5.41708ZM70.1603 18.7503H74.067L69.2253 5.74977H65.4035L60.4769 18.7503H64.4693L67.2716 10.4999H67.3572L70.1603 18.7503ZM56.6549 12.5832C56.6549 14.0834 55.8048 16.2505 53.3416 16.2505C50.8784 16.2505 49.8595 14.3336 49.8595 12.5C49.8595 10.6671 50.8784 8.99972 53.3416 8.99972C55.8048 8.99972 56.6549 11.0829 56.6549 12.5832ZM53.6815 5.74977C51.898 5.74977 50.6241 6.58306 50.2841 6.83336C50.3697 6.41675 50.7936 2.91649 55.5497 2.91649H58.5232L59.6276 0H55.6345C50.3689 0 46.291 2.41667 46.291 10.8335C46.291 15.4165 48.3296 19.1662 53.2561 19.1662C57.9282 19.1662 60.3058 15.8331 60.3058 12.5C60.3058 7.66666 56.6542 5.74977 53.6807 5.74977M36.2686 11.2501L31.6813 5.83376L31.5965 5.74977H28.4542V18.7503H32.1067V11.1669L35.6736 15.5836L35.7591 15.7499H36.6925L40.3457 11.1669V18.7503H43.9982V5.74977H40.8551L36.2686 11.2501ZM21.9987 13.3333C21.9987 15.0838 20.9798 16.3337 19.026 16.3337C17.157 16.3337 16.9874 15.2501 16.9874 14.8335C16.9874 13.8339 17.8368 13.2501 19.9602 12.9998C20.5544 12.9167 21.1494 12.9167 21.7436 12.9167H21.9987V13.3333ZM25.396 15.8331V11.1669C25.2264 7.08367 23.4422 5.41708 19.705 5.41708C17.157 5.41708 15.4584 6.41675 14.8634 6.83336L15.8822 9.50032C15.8822 9.50032 17.4121 8.16649 19.3652 8.16649C22.1683 8.16649 21.8283 10.4168 21.8283 10.4168C20.895 10.4168 13.335 10.0002 13.335 14.8335C13.335 17.5004 15.6279 18.9999 18.0911 18.9999C20.3 18.9999 21.574 17.9163 21.9139 17.5004C21.9139 17.5836 21.9987 18.7503 21.9987 18.7503H25.396C25.5664 18.7503 25.396 17.6668 25.396 15.8331ZM9.17312 6.08329C9.17312 8.25042 7.04976 8.99972 5.60623 8.99972H3.73723V3.0836H5.60623C7.04976 3.16677 9.17312 3.91688 9.17312 6.08329ZM5.94534 0H0V18.8328H3.822V12.1665H5.86056C9.76813 12.1665 12.9959 10.1672 12.9959 6.08329C12.9959 2.08321 9.76813 0 5.94612 0" fill="#939393"/>
</svg>
