<svg width="111" height="26" viewBox="0 0 111 26" fill="none" xmlns="http://www.w3.org/2000/svg">
<g clip-path="url(#clip0_427_3077)">
<path fill-rule="evenodd" clip-rule="evenodd" d="M99.4961 0C93.1869 0 88.0726 5.69179 88.0726 12.713C88.0726 19.7342 93.1869 25.426 99.4961 25.426C105.807 25.426 110.922 19.7342 110.922 12.713C110.922 5.69179 105.807 0 99.4961 0ZM99.4961 22.0356C94.9109 22.0356 91.1927 17.8614 91.1927 12.713C91.1927 7.56384 94.9109 3.38965 99.4961 3.38965C104.083 3.38965 107.801 7.56384 107.801 12.713C107.801 17.8614 104.083 22.0356 99.4961 22.0356ZM24.3954 4.12264H27.8346V21.3026H24.3954V24.6588H47.5608V16.5879H44.0567V21.3026H31.3387V14.511H36.9836V17.3877H40.4877V8.27796H36.9836V11.1548H31.3387V4.12264H44.0567V8.83734H47.5608V0.76714H24.3954V4.12264ZM50.0579 4.12264H53.4971V21.3026H50.0579V24.6588H60.4398V21.3026H57.0006V4.12264H60.4398V0.76714H50.0579V4.12264Z" fill="#939393"/>
<path fill-rule="evenodd" clip-rule="evenodd" d="M77.8004 10.5155L84.7439 4.12267H87.8583V0.767171H77.9951V4.12267H80.0077L69.8198 13.5521V4.12267H73.2589V0.767171H62.8769V4.12267H66.316V21.3026H62.8769V24.6588H73.2589V21.3026H69.8198V17.9065L75.1725 12.9521L81.1742 21.3026H77.9951V24.6588H88.3124V21.3026H85.5552L77.8004 10.5155ZM11.4888 10.8358C7.2715 10.8358 3.73498 10.7559 3.73498 7.15996C3.73498 3.72458 8.69909 3.40493 10.4505 3.40493C12.2021 3.40493 18.497 4.6835 18.497 7.6402V8.83886H22.0005V0.7679H18.497V2.36537C17.0694 1.64618 13.9871 0.0879383 10.4836 0.0879383C6.98011 0.0879383 0.588368 1.08681 0.555334 7.23992C0.522298 13.5128 5.6817 14.3919 11.4239 14.3919C14.7334 14.3919 19.0804 14.1921 19.0804 18.0278C19.0804 21.8628 13.8898 22.2623 12.2675 22.2623C10.6453 22.2623 4.41574 21.5439 4.41574 17.9479V16.5894H0.911644V24.6596H4.41574V23.3018C5.71355 24.26 9.02295 25.5386 12.4622 25.5386C15.9014 25.5386 22.2925 24.8594 22.2925 17.9479C22.2925 10.9957 15.7067 10.8358 11.4888 10.8358Z" fill="#939393"/>
</g>
<defs>
<clipPath id="clip0_427_3077">
<rect width="111" height="26" fill="white"/>
</clipPath>
</defs>
</svg>
