<svg width="109" height="27" viewBox="0 0 109 27" fill="none" xmlns="http://www.w3.org/2000/svg">
<g clip-path="url(#clip0_427_4230)">
<path fill-rule="evenodd" clip-rule="evenodd" d="M10.2502 0C8.24144 0 5.85984 1.93501 3.8954 5.18812C1.84791 8.5572 0.626465 12.7281 0.626465 16.3502C0.626465 21.6526 3.59623 27 10.2507 27C16.8972 27 19.8749 21.6526 19.8749 16.3502C19.8749 12.7281 18.654 8.5572 16.6165 5.18812C14.6336 1.93501 12.2522 0 10.2502 0ZM62.2185 7.95552H68.9555V25.554H76.1736V7.95552H82.908V1.44568H62.2185V7.95552ZM98.3069 7.95552H108.893V1.44568H98.3069C88.5809 1.44568 83.3864 6.29105 83.3864 13.499C83.3864 20.707 88.5809 25.554 98.3069 25.554H108.893V19.0445H98.3069C93.8053 19.0445 90.8463 17.4324 90.8463 13.4999C90.8463 9.56728 93.8053 7.95552 98.3069 7.95552ZM47.5374 1.44568L43.6905 15.8349L39.8435 1.44568H27.0928V25.554H34.3083V5.94498L39.5521 25.554H47.8289L53.0755 5.93314V25.554H60.2937V1.44568H47.5374Z" fill="#939393"/>
</g>
<defs>
<clipPath id="clip0_427_4230">
<rect width="109" height="27" fill="white"/>
</clipPath>
</defs>
</svg>
