<svg width="147" height="38" viewBox="0 0 147 38" fill="none" xmlns="http://www.w3.org/2000/svg">
<g clip-path="url(#clip0_427_3025)">
<path fill-rule="evenodd" clip-rule="evenodd" d="M17.334 38C11.0674 31.9198 7.93375 28.88 7.93375 28.88L1.80481 34.96C1.17433 35.7939 1.33723 36.9826 2.16868 37.615C2.49714 37.8648 2.89805 38 3.31026 38C3.32055 38 3.33083 38 3.34111 38C8.00543 38 12.6697 38 17.334 38Z" fill="#939393"/>
<path fill-rule="evenodd" clip-rule="evenodd" d="M23.395 13.68L9.75587 0L2.14088 7.95598C1.19262 8.94672 0.663086 10.2669 0.663086 11.6403V34.96C0.663086 36.6389 2.02008 38 3.69401 38C2.65696 38 1.81626 37.1568 1.81626 36.1166C1.81626 35.6159 2.01508 35.1357 2.36876 34.7823" fill="#939393"/>
<path fill-rule="evenodd" clip-rule="evenodd" d="M120.592 23.6921H117.311L113.394 27.6661V23.6921H110.62V34.6425H113.394V30.1167L117.378 34.6425H120.723L115.572 28.7699L120.592 23.6921Z" fill="#939393"/>
<path fill-rule="evenodd" clip-rule="evenodd" d="M32.5799 26.535H28.5736V21.678H32.5799C34.6049 21.678 35.5294 22.6493 35.5294 24.1064C35.5294 25.5635 34.6049 26.535 32.5799 26.535ZM32.6679 19.0727H25.6682V34.527H28.5736V29.1401H32.6679C36.1458 29.1401 38.435 27.3519 38.435 24.1064C38.435 20.8609 36.1458 19.0727 32.6679 19.0727Z" fill="#939393"/>
<path fill-rule="evenodd" clip-rule="evenodd" d="M44.9944 32.3465C43.3657 32.3465 41.8468 31.1763 41.8468 29.1672C41.8468 27.1582 43.3657 25.9883 44.9944 25.9883C46.6233 25.9883 48.1421 27.1582 48.1421 29.1672C48.1421 31.1763 46.6233 32.3465 44.9944 32.3465ZM44.9944 23.383C42.0009 23.383 39.0292 25.3259 39.0292 29.1672C39.0292 33.009 42.0009 34.9516 44.9944 34.9516C47.9881 34.9516 50.9597 33.009 50.9597 29.1672C50.9597 25.3259 47.9881 23.383 44.9944 23.383Z" fill="#939393"/>
<path fill-rule="evenodd" clip-rule="evenodd" d="M58.0393 32.3465C56.3664 32.3465 55.1337 31.1322 55.1337 29.1672C55.1337 27.2244 56.4104 25.9883 58.0393 25.9883C59.0298 25.9883 59.8882 26.4518 60.5706 27.4895L62.9478 26.1206C62.1555 24.4205 60.4384 23.383 58.0613 23.383C54.9576 23.383 52.3162 25.679 52.3162 29.1672C52.3162 32.6555 54.8256 34.9516 58.0613 34.9516C60.3945 34.9516 61.9572 33.892 63.0579 32.0155L60.7687 30.757C60.1084 31.6842 59.4039 32.3465 58.0393 32.3465Z" fill="#939393"/>
<path fill-rule="evenodd" clip-rule="evenodd" d="M87.5689 29.896C87.437 31.5737 87.1067 31.9492 86.5346 31.9492C86.1436 31.9492 85.9594 31.9056 85.692 31.8353L85.7056 34.6693C85.7056 34.6693 86.0504 34.7749 86.6891 34.7749C89.0442 34.7749 89.9247 33.2516 90.1444 30.0062L90.4089 26.1869H93.5345V34.6204H96.3078V23.6921H88.0311L87.5689 29.896Z" fill="#939393"/>
<path fill-rule="evenodd" clip-rule="evenodd" d="M76.6666 27.7103C77.0622 26.4739 78.1631 25.5024 79.6157 25.5024C81.1569 25.5024 82.1913 26.3414 82.4557 27.7103H76.6666ZM79.7036 23.383C76.534 23.383 73.9589 25.7011 73.9589 29.1672C73.9589 32.6334 76.534 34.9516 79.5718 34.9516C81.9715 34.9516 83.49 34.0465 84.5902 32.1699L82.389 31.0661C81.7071 31.9271 81.0903 32.5671 79.6157 32.5671C77.9874 32.5671 76.7985 31.5075 76.6227 29.8297H85.0305V28.8582C85.0305 25.657 82.83 23.383 79.7036 23.383Z" fill="#939393"/>
<path fill-rule="evenodd" clip-rule="evenodd" d="M100.568 27.7103C100.963 26.4739 102.064 25.5024 103.517 25.5024C105.057 25.5024 106.092 26.3414 106.357 27.7103H100.568ZM103.605 23.383C100.435 23.383 97.8596 25.7011 97.8596 29.1672C97.8596 32.6334 100.435 34.9516 103.473 34.9516C105.872 34.9516 107.391 34.0465 108.491 32.1699L106.291 31.0661C105.608 31.9271 104.991 32.5671 103.517 32.5671C101.888 32.5671 100.7 31.5075 100.523 29.8297H108.932V28.8582C108.932 25.657 106.73 23.383 103.605 23.383Z" fill="#939393"/>
<path fill-rule="evenodd" clip-rule="evenodd" d="M63.9219 26.1205H67.1797V34.6425H69.9529V26.1205H73.2109V23.6921H63.9219V26.1205Z" fill="#939393"/>
<path fill-rule="evenodd" clip-rule="evenodd" d="M126.228 32.3465C124.6 32.3465 123.081 31.1763 123.081 29.1672C123.081 27.1582 124.6 25.9883 126.228 25.9883C127.857 25.9883 129.376 27.1582 129.376 29.1672C129.376 31.1763 127.857 32.3465 126.228 32.3465ZM126.228 23.383C123.235 23.383 120.263 25.3258 120.263 29.1672C120.263 33.0088 123.235 34.9516 126.228 34.9516C129.222 34.9516 132.194 33.0088 132.194 29.1672C132.194 25.3258 129.222 23.383 126.228 23.383Z" fill="#939393"/>
<path fill-rule="evenodd" clip-rule="evenodd" d="M143.231 23.6903L140.221 31.3593L137.211 23.6903H133.586V34.6209H136.222V27.701L139.145 34.6209H141.298L144.22 27.701V34.6209H146.857V23.6903H143.231Z" fill="#939393"/>
</g>
<defs>
<clipPath id="clip0_427_3025">
<rect width="147" height="38" fill="white"/>
</clipPath>
</defs>
</svg>
