<svg width="148" height="32" viewBox="0 0 148 32" fill="none" xmlns="http://www.w3.org/2000/svg">
<path d="M38.5215 1.53228H36.6124V8.91004H38.5215V1.53228Z" fill="#939393"/>
<path d="M38.5215 8.91004H36.6124V16.2878H38.5215V8.91004Z" fill="#939393"/>
<path d="M38.5215 16.2878H36.6124V23.6656H38.5215V16.2878Z" fill="#939393"/>
<path d="M38.5215 23.6656H36.6124V31.0429H38.5215V23.6656Z" fill="#939393"/>
<path d="M17.6531 15.354C17.646 15.3469 17.4744 15.168 17.1777 15.168C17.0204 15.168 16.8595 15.218 16.6986 15.3111C16.6699 15.3254 16.6521 15.3576 16.6592 15.3898C16.6592 15.397 16.7772 16.1984 16.6879 16.5419C16.6199 16.7995 16.4018 17.1037 16.0049 17.1037C15.9191 17.1037 15.8333 17.0893 15.7404 17.0643H15.7368L16.0372 16.8604C16.0586 16.846 16.0729 16.821 16.0729 16.7924C16.0729 16.7637 16.0586 16.7423 16.0372 16.7244L15.44 16.3129C15.6296 16.1698 15.7475 16.0696 15.7618 16.0553C15.7798 16.041 15.7905 16.0195 15.7905 15.9981C15.7905 15.9766 15.7833 15.9551 15.7654 15.9372L15.6582 15.8299C15.6439 15.8156 15.6224 15.8049 15.6009 15.8049C15.5831 15.8049 15.5652 15.812 15.5509 15.8227C15.5438 15.8263 15.3865 15.9479 15.1469 16.1125L14.9074 15.9479L15.8441 15.304L15.9156 15.49C15.9263 15.5186 15.9549 15.5401 15.9871 15.5401C15.9871 15.5401 15.9871 15.5401 15.9907 15.5401C16.0192 15.5401 16.0479 15.5222 16.0622 15.4972L16.5091 14.6742C16.5234 14.6456 16.5198 14.6134 16.5055 14.5884C16.4912 14.5668 16.4662 14.5525 16.4376 14.5525C16.434 14.5525 16.4304 14.5525 16.4268 14.5525L15.5044 14.6921C15.4723 14.6957 15.4472 14.7171 15.4365 14.7494C15.4293 14.778 15.4365 14.8101 15.4615 14.8317L15.6117 14.964L14.5462 15.6975L13.4844 14.964L13.6345 14.8317C13.656 14.8101 13.6667 14.778 13.656 14.7494C13.6488 14.7171 13.6238 14.6957 13.5917 14.6921L12.6692 14.5525C12.6656 14.5525 12.662 14.5525 12.6585 14.5525C12.6299 14.5525 12.6049 14.5633 12.5905 14.5884C12.5727 14.6134 12.5727 14.6456 12.587 14.6742L13.0303 15.4972C13.0446 15.5222 13.0732 15.5401 13.1018 15.5401C13.1054 15.5401 13.1054 15.5401 13.1054 15.5401C13.1376 15.5401 13.1626 15.5186 13.1769 15.49L13.252 15.304L14.1887 15.9479L13.9492 16.1125C13.7096 15.9479 13.5523 15.8263 13.5487 15.8227C13.5344 15.812 13.5166 15.8049 13.4987 15.8049C13.4772 15.8049 13.4558 15.812 13.4415 15.8299L13.3343 15.9372C13.3199 15.9515 13.3092 15.973 13.3092 15.9981C13.3092 16.0195 13.3199 16.041 13.3378 16.0553C13.3557 16.0696 13.4736 16.1698 13.6632 16.3129L13.0661 16.7244C13.0446 16.7387 13.0303 16.7637 13.0303 16.7924C13.0303 16.821 13.0446 16.8424 13.0661 16.8604L13.3664 17.0643C13.3664 17.0643 13.3664 17.0643 13.3628 17.0643C13.2699 17.0893 13.1841 17.1037 13.0983 17.1037C12.7014 17.1037 12.4797 16.7995 12.4118 16.5419C12.3224 16.1984 12.4404 15.397 12.4404 15.3898C12.444 15.3576 12.4296 15.3254 12.4011 15.3111C12.2366 15.218 12.0757 15.168 11.922 15.168C11.6217 15.168 11.45 15.3433 11.4429 15.354C11.4286 15.3647 11.4214 15.3863 11.4214 15.4006C11.4179 15.4506 11.3249 16.6063 11.8612 17.1931C12.0578 17.4078 12.3188 17.5187 12.6299 17.5187C12.6835 17.5187 12.7443 17.5187 12.8015 17.508C13.1054 17.4722 13.4021 17.3899 13.6918 17.2897L14.1887 17.626L13.0911 18.3702C13.0696 18.3881 13.0553 18.4096 13.0553 18.4382C13.0553 18.4633 13.0661 18.4884 13.0911 18.5062L14.1923 19.2683L13.252 19.9195L13.1805 19.737C13.1698 19.7084 13.1411 19.6905 13.109 19.6869C13.109 19.6869 13.109 19.6869 13.1054 19.6869C13.0768 19.6869 13.0482 19.7048 13.0339 19.7299L12.5905 20.5528C12.5762 20.5778 12.5798 20.6137 12.5941 20.6351C12.6085 20.6566 12.6335 20.6709 12.662 20.6709C12.6656 20.6709 12.6692 20.6709 12.6728 20.6709L13.5952 20.5349C13.6274 20.5314 13.6524 20.5063 13.6596 20.4777C13.6703 20.4454 13.6596 20.4133 13.6381 20.3918L13.4844 20.2558L14.5498 19.5188L15.6152 20.2558L15.4615 20.3918C15.4365 20.4133 15.4293 20.4454 15.4365 20.4777C15.4436 20.5063 15.4723 20.5277 15.5044 20.5349L16.4268 20.6709C16.4304 20.6709 16.434 20.6709 16.4376 20.6709C16.4626 20.6709 16.4876 20.6601 16.5055 20.6351C16.5234 20.61 16.5234 20.5778 16.5091 20.5528L16.0622 19.7299C16.0479 19.7048 16.0228 19.6869 15.9907 19.6869H15.9871C15.9514 19.6869 15.9263 19.7084 15.9156 19.737L15.8441 19.9195L14.9038 19.2683L16.0049 18.5062C16.0265 18.4919 16.0407 18.4668 16.0407 18.4382C16.0407 18.4096 16.0265 18.3881 16.0049 18.3702L14.9074 17.626L15.4043 17.2897C15.6903 17.3935 15.9871 17.4722 16.291 17.508C16.3518 17.5151 16.409 17.5187 16.4626 17.5187C16.7772 17.5187 17.0347 17.4078 17.2313 17.1931C17.7676 16.6063 17.6747 15.4506 17.6711 15.4006C17.6711 15.3863 17.6639 15.3683 17.6531 15.354ZM14.5426 16.2056L14.7786 16.3666C14.7035 16.4131 14.6249 16.4632 14.5426 16.5133C14.4604 16.4632 14.3818 16.4167 14.3067 16.3666L14.5426 16.2056ZM13.6846 16.796L14.01 16.5705C14.0743 16.6099 14.1386 16.6528 14.2101 16.6994C14.0815 16.7673 13.9527 16.8317 13.8241 16.8926L13.6846 16.796ZM15.3829 18.4382L14.5426 19.0179L13.706 18.4382L14.5426 17.8693L15.3829 18.4382ZM14.5426 17.3792L14.1386 17.1037C14.2817 17.0357 14.414 16.9677 14.5426 16.8961C14.6714 16.9677 14.8073 17.0357 14.9502 17.1037L14.5426 17.3792ZM15.2649 16.8926C15.1362 16.8353 15.0039 16.7709 14.8751 16.6994C14.9467 16.6564 15.011 16.6135 15.0754 16.5705L15.4043 16.796L15.2649 16.8926Z" fill="#939393"/>
<path d="M17.9405 16.0336C17.9726 15.9692 17.9869 15.8475 17.9869 15.8475L17.9405 15.8332V16.0336Z" fill="#939393"/>
<path d="M28.504 13.1677C28.1607 12.9602 27.5923 12.8886 27.0131 12.9423C27.9176 12.6275 28.5361 11.9548 28.5683 11.3537C28.0964 11.2178 27.6066 11.2893 27.1811 11.3859C27.6208 11.0568 28.3431 10.4556 28.2537 9.57185C27.8282 9.46811 27.0489 9.7651 26.7235 9.91181C27.7674 9.32497 28.1429 7.93672 27.5887 7.14961C27.2598 7.3428 25.7689 8.86703 25.5258 9.04235C26.2981 8.15858 26.6591 7.52526 26.8665 6.93134C27.1132 6.28373 27.1311 5.15309 26.3302 4.77383C25.9512 5.6397 24.6284 7.86158 23.8919 8.78474C23.8097 8.71317 23.7453 8.61658 23.6417 8.59864C23.4665 9.16039 22.9444 9.90824 22.469 10.266C22.4439 10.2195 22.3975 10.0907 22.3152 9.95114C21.8111 10.7061 20.5026 11.7401 20.0807 12.377C19.7518 12.8493 19.7518 13.2751 20.2094 13.7151C20.3953 13.9012 20.7457 14.2268 20.4418 14.6848C20.0271 15.2894 19.1941 15.361 18.7436 15.0032C18.7436 14.8959 18.74 14.7921 18.7364 14.6955C19.2691 14.488 19.3943 13.7617 19.001 13.3108C18.9152 13.4754 18.7722 13.5971 18.6006 13.6579C18.5541 13.4683 18.5147 13.3788 18.5112 13.3681L18.4897 13.3251H18.4433C18.4397 13.3251 18.2645 13.3144 18.0035 13.2858C18.3003 13.1892 18.4897 12.9137 18.4469 12.5452C17.9892 12.9388 17.5316 12.5631 17.4279 12.4593C17.1419 12.123 17.0596 11.7437 17.174 11.1641C17.2706 10.6596 17.7926 9.85812 18.1358 9.60052C18.1859 9.64699 18.2645 9.74365 18.4325 9.72929C18.5291 9.69711 18.69 9.61482 18.8115 9.56827C19.1583 9.46453 19.4944 9.54325 19.7089 9.68281C20.1021 9.92254 20.0664 10.1873 20.0557 10.3805C20.6528 10.0442 20.4454 9.48241 19.6624 9.27492C20.1987 9.27492 20.6385 9.7651 20.7528 9.82595C21.0496 10.0442 21.4751 9.99411 21.7218 9.876C22.1973 9.65057 22.2938 9.08882 22.1651 8.97435C22.1186 9.17475 21.9649 9.35364 21.6895 9.38581C21.282 9.43236 20.8887 9.25705 20.5777 9.11749C20.3131 9.00653 19.8877 8.92423 19.598 8.94218C20.1344 8.64518 20.9674 8.67736 21.2641 9.13536C21.4428 8.99223 21.5537 8.86346 21.6037 8.56646C21.7575 7.76499 21.1318 7.35352 20.4633 7.35352C20.4811 7.16034 20.3453 7.06375 20.1665 7.1281C20.1665 7.04584 20.1451 6.98143 20.0986 6.94923C20.1129 6.94923 20.1344 6.94207 20.1486 6.94207C20.8208 6.89556 21.4572 6.68804 21.8004 6.32667C22.401 5.68263 21.4428 4.86686 21.7861 4.23356C22.1151 4.37668 22.3581 4.56273 22.8122 4.62714C22.8586 4.72374 22.9016 4.91695 22.9159 5.02071C23.0625 5.7363 22.3581 5.85437 22.5405 6.61648C22.6192 6.96354 22.8801 7.08162 22.9659 7.49308C22.9659 7.49308 22.9981 7.77929 22.7478 8.02981C23.327 8.04411 23.6309 7.55393 23.4522 7.0995C23.3735 6.91345 23.1733 6.73813 23.1733 6.51987C23.4701 6.91345 23.7346 6.89914 24.1922 6.75244C24.3996 6.68804 24.4175 6.97786 24.2888 7.21046C24.6034 7.02437 24.682 6.72024 24.682 6.58428C24.682 6.26226 24.4318 6.11199 24.1922 6.17639C24.0564 6.1907 23.7847 6.37676 23.7668 6.11199C23.7096 5.65401 24.4318 5.6719 24.2852 4.93484C24.2066 4.56631 23.7954 4.36236 23.1554 4.28365C23.091 4.21925 22.9302 4.06539 22.8444 3.93658C22.494 3.35338 22.1293 3.19953 21.9112 3.3176C21.6538 3.4464 21.5215 3.55732 21.3106 3.67182C21.1426 3.76127 20.9638 3.80778 20.8529 3.93658C20.5741 4.28365 20.8386 4.82034 20.9817 5.14952C21.0782 5.34272 21.3106 5.78281 21.2069 6.11199C21.0925 6.50557 20.4454 6.75244 20.0521 6.83474C20.0271 6.83474 20.0092 6.84189 19.9842 6.84189V6.68804C20.0986 6.48767 20.1952 6.24795 20.2738 6.0297C20.5384 5.32126 20.1451 5.03502 19.5623 4.89906C19.4872 4.85254 19.4086 4.83465 19.312 4.86686H19.2942L19.2799 4.98493L19.2012 4.95989L19.2191 4.81677H19.1833C19.2512 4.77025 19.2799 4.68796 19.2799 4.60925C19.2799 4.52337 19.2477 4.45539 19.2155 4.40888H19.2942L19.262 4.37668C19.2477 4.34447 19.2155 4.31227 19.1654 4.26218C19.1512 4.24787 19.1333 4.21567 19.1333 4.19778C19.1476 4.21209 19.1654 4.22998 19.1977 4.24429C19.2298 4.27649 19.2763 4.3087 19.2942 4.3409L19.3406 4.3731V3.72548L19.2942 3.76484C19.2799 3.77916 19.2298 3.81136 19.1977 3.84714C19.1654 3.87934 19.1512 3.87934 19.1333 3.89365C19.1333 3.87934 19.1476 3.86145 19.1654 3.82925C19.2155 3.79705 19.2477 3.75054 19.262 3.72548L19.2942 3.67539H18.6363L18.6685 3.72548C18.7007 3.74695 18.74 3.79705 18.7722 3.82925C18.7865 3.86145 18.8044 3.87934 18.8187 3.89365C18.8008 3.87934 18.7722 3.87934 18.7543 3.84714C18.6971 3.81493 18.6685 3.78273 18.6363 3.76484L18.6113 3.72548V4.38383L18.6435 4.35163C18.6756 4.31943 18.7078 4.28723 18.7614 4.25502C18.7794 4.24072 18.8079 4.22282 18.8258 4.20852C18.8079 4.22282 18.7936 4.25502 18.7794 4.27291C18.7471 4.32301 18.7043 4.35163 18.6756 4.38741L18.6435 4.41961H18.7471C18.69 4.46612 18.6756 4.5341 18.6756 4.61998C18.6756 4.6987 18.7078 4.78099 18.7614 4.8275H18.7471L18.7614 4.97062L18.6756 4.99566L18.6578 4.87759H18.6435C18.547 4.84539 18.4683 4.86328 18.4039 4.90979C17.8104 5.04576 17.4171 5.33557 17.6818 6.04043C17.7639 6.25869 17.8605 6.49841 17.9785 6.69877V6.80253C17.385 6.60933 16.316 5.95814 16.03 5.56456C15.9978 5.5252 15.9728 5.493 15.9585 5.46796H15.9549L15.9656 5.04218C16.173 4.69511 16.3589 4.26934 16.5019 3.87934C16.8773 2.85962 16.3231 2.43384 15.4437 2.25852C15.3543 2.19412 15.2434 2.16192 15.0969 2.21201L15.0647 2.37302L14.8788 2.3587L14.8931 2.15119C14.868 2.15834 14.8358 2.15834 14.8037 2.15834C14.9288 2.09394 15.0182 1.94008 15.0182 1.78266C15.0182 1.66816 14.961 1.5322 14.8645 1.46779H15.0182C14.9288 1.38907 14.7858 1.22091 14.7572 1.10642C14.868 1.13862 15.0361 1.28889 15.1147 1.37119V0.537523C15.0361 0.601926 14.868 0.762934 14.7572 0.777247C14.7858 0.68422 14.9288 0.523211 15.0182 0.440918H14.1852C14.2495 0.523211 14.4104 0.68422 14.4247 0.777247C14.3282 0.762934 14.1673 0.601926 14.0779 0.537523V1.37119C14.1673 1.28889 14.3246 1.13862 14.4247 1.10642C14.4104 1.21733 14.2495 1.3855 14.1852 1.46779H14.3281C14.2316 1.5322 14.1852 1.66816 14.1852 1.78266C14.1852 1.94008 14.2638 2.09751 14.3925 2.15834C14.3604 2.15834 14.3282 2.15834 14.2781 2.14403L14.296 2.35155L14.1101 2.36586L14.0922 2.20485C13.9492 2.15834 13.8384 2.19054 13.7418 2.25137C12.8695 2.43027 12.3153 2.85247 12.6907 3.87218C12.8194 4.26218 13.0054 4.69154 13.227 5.03502V5.47511C13.2127 5.48942 13.1948 5.52162 13.1626 5.55382C12.8838 5.9474 11.8076 6.59859 11.2141 6.7918V6.68804C11.3322 6.48767 11.4323 6.24795 11.5109 6.0297C11.7755 5.32126 11.3822 5.03502 10.7887 4.89906C10.7208 4.85254 10.6457 4.83465 10.5492 4.86686H10.5349L10.517 4.98493L10.4383 4.95989L10.4526 4.81677H10.4383C10.4848 4.77025 10.517 4.68796 10.517 4.60925C10.517 4.52337 10.5027 4.45539 10.4526 4.40888H10.5492L10.517 4.37668C10.4848 4.34447 10.4526 4.31227 10.4205 4.26218C10.4061 4.24787 10.3811 4.21567 10.3633 4.19778C10.3811 4.21209 10.4205 4.22998 10.4348 4.24429C10.4812 4.27649 10.5134 4.3087 10.5492 4.3409L10.5814 4.3731V3.72548L10.5492 3.76484C10.517 3.77916 10.4848 3.81136 10.4348 3.84714C10.4205 3.87934 10.3811 3.87934 10.3633 3.89365C10.3811 3.87934 10.4025 3.86145 10.4205 3.82925C10.4526 3.79705 10.4848 3.75054 10.517 3.72548L10.5492 3.67539H9.8913L9.92352 3.72548C9.93781 3.74695 9.98068 3.79705 10.0129 3.82925C10.045 3.86145 10.0593 3.87934 10.0593 3.89365C10.0486 3.87576 10.0308 3.87576 10.0022 3.84356C9.96281 3.81136 9.9128 3.77916 9.89845 3.76127L9.84843 3.72191V4.38026L9.89845 4.34806C9.9128 4.31585 9.96281 4.28365 10.0022 4.25145C10.0343 4.23714 10.0486 4.21925 10.0629 4.20493C10.0629 4.21925 10.0486 4.25145 10.0165 4.26934C9.98425 4.31943 9.94138 4.34806 9.92709 4.38383L9.89487 4.41603H9.98068C9.94138 4.46255 9.90559 4.53053 9.90559 4.6164C9.90559 4.69511 9.93781 4.77741 10.0129 4.82392H9.98068L9.99861 4.96704L9.90923 4.99208L9.89487 4.87401H9.87701C9.78049 4.84181 9.70183 4.8597 9.63746 4.90622C9.04398 5.04218 8.65069 5.33199 8.91531 6.03685C8.99754 6.25511 9.09406 6.49483 9.21202 6.6952V6.84905C9.18701 6.84905 9.16558 6.84189 9.14765 6.84189C8.75442 6.7596 8.09657 6.51272 7.98576 6.11914C7.88203 5.78997 8.11443 5.34988 8.21095 5.15667C8.3647 4.8275 8.62211 4.29081 8.35041 3.94374C8.22881 3.81493 8.05363 3.76842 7.88203 3.67898C7.6747 3.56806 7.54596 3.45356 7.2814 3.32475C7.0705 3.20668 6.71299 3.35696 6.34828 3.94374C6.26963 4.07255 6.1016 4.22282 6.03367 4.29081C5.40085 4.36952 4.99327 4.56989 4.9039 4.94199C4.75731 5.67906 5.47951 5.66474 5.43303 6.11914C5.41515 6.38391 5.13628 6.19786 5.00758 6.18355C4.75731 6.11914 4.51062 6.26942 4.51062 6.59143C4.51062 6.7274 4.6 7.03152 4.9039 7.21761C4.77518 6.98501 4.78949 6.6952 5.00758 6.7596C5.46521 6.9063 5.71905 6.92061 6.01937 6.52703C6.01937 6.74171 5.8263 6.9206 5.7405 7.10665C5.56173 7.56465 5.85848 8.05126 6.44482 8.03696C6.18025 7.78651 6.23388 7.50023 6.23388 7.50023C6.31611 7.08877 6.57352 6.9707 6.65933 6.62364C6.83809 5.86153 6.1302 5.74346 6.28393 5.02787C6.29823 4.9241 6.33041 4.7309 6.38046 4.63429C6.83809 4.56989 7.08836 4.38741 7.40657 4.24072C7.73549 4.87401 6.78801 5.68979 7.39221 6.33382C7.73906 6.6952 8.37899 6.90272 9.04398 6.94923C9.05827 6.94923 9.07977 6.95639 9.09763 6.95996C9.05113 6.99216 9.02612 7.05299 9.02612 7.13531C8.85094 7.0709 8.71506 7.16749 8.74013 7.36067C8.05006 7.36067 7.44229 7.77214 7.59246 8.57361C7.6389 8.87061 7.75335 8.99938 7.93925 9.14251C8.22881 8.68457 9.06184 8.65233 9.60531 8.94933C9.30854 8.93145 8.88309 9.01374 8.62211 9.12464C8.31462 9.26062 7.92496 9.43951 7.51738 9.39296C7.23496 9.36079 7.09193 9.18548 7.03471 8.9815C6.90603 9.09604 7.00256 9.65414 7.48165 9.88315C7.72113 10.0013 8.14658 10.0513 8.44336 9.8331C8.55774 9.76868 8.99754 9.28207 9.53737 9.28207C8.75799 9.48956 8.53988 10.0513 9.15122 10.3876C9.12621 10.1944 9.09763 9.92969 9.48729 9.68996C9.7054 9.55397 10.0486 9.47168 10.3883 9.57542C10.5063 9.62197 10.6672 9.70426 10.7637 9.73643C10.9317 9.7508 11.0104 9.65414 11.0604 9.60767C11.4072 9.86527 11.9113 10.6667 12.0222 11.1712C12.1437 11.7509 12.0543 12.1266 11.7648 12.4665C11.6682 12.5702 11.2034 12.9459 10.7494 12.5523C10.7065 12.9208 10.8959 13.1928 11.1927 13.293C10.9282 13.3216 10.7494 13.3323 10.7458 13.3323H10.6993L10.6815 13.3753C10.6779 13.3824 10.6385 13.4754 10.5885 13.6615C10.4241 13.5971 10.281 13.479 10.1952 13.3144C9.80192 13.7653 9.92352 14.488 10.4526 14.6955C10.4491 14.7957 10.4455 14.8995 10.4455 15.0104C9.99146 15.361 9.16915 15.2859 8.76156 14.6848C8.44693 14.2268 8.808 13.8976 8.98682 13.7151C9.44442 13.2751 9.44442 12.8493 9.11192 12.377C8.68648 11.7437 7.38149 10.7061 6.87746 9.95114C6.79523 10.0871 6.74872 10.2159 6.73086 10.266C6.25891 9.90824 5.72977 9.16039 5.55458 8.59864C5.45806 8.61301 5.38655 8.71317 5.30432 8.78474C4.57497 7.86158 3.24499 5.6397 2.86959 4.77383C2.07589 5.15309 2.09019 6.28373 2.33331 6.93134C2.54782 7.52526 2.90892 8.15858 3.67044 9.04235C3.43091 8.86346 1.94003 7.3428 1.61111 7.14961C1.06053 7.93672 1.43593 9.32497 2.47631 9.91181C2.15812 9.7651 1.37157 9.46811 0.946124 9.57185C0.867465 10.4556 1.57893 11.0568 2.01869 11.3859C1.58966 11.2893 1.09986 11.2178 0.62793 11.3537C0.660101 11.9548 1.28577 12.631 2.16527 12.9423C1.60396 12.8851 1.0355 12.9602 0.688707 13.1677C0.753063 13.7939 1.46095 14.3342 2.30828 14.4629C1.73982 14.5274 1.23571 14.7778 0.971151 15.1213C1.28219 15.5292 1.73982 15.844 2.43699 15.8297C2.2761 15.887 2.09019 15.9979 1.93288 16.1482C1.915 16.1339 1.88283 16.116 1.85423 16.116C1.81848 16.1303 1.80775 16.1804 1.81848 16.2126C1.81848 16.2126 1.81848 16.2126 1.81848 16.2376C1.75055 16.2842 1.71479 16.3414 1.70764 16.3986C1.64329 16.4916 1.57536 16.599 1.53961 16.6956C1.55748 16.7028 1.57178 16.7207 1.58609 16.7278C1.58251 16.7779 1.59681 16.8387 1.63614 16.8995C1.60396 16.9318 1.58966 16.9783 1.57178 17.0284L1.16421 16.8638C1.14276 17.2359 1.22499 17.54 1.4109 17.7296C1.55748 17.8978 1.72552 17.8727 1.67547 17.93L2.1188 18.2019C2.19745 18.3701 2.35833 18.3701 2.46916 18.3236C2.46916 18.3236 2.46916 18.3379 2.46916 18.3558C2.46916 18.5311 2.59072 18.6742 2.74803 18.7315C2.71586 18.8781 2.78021 18.9712 2.98043 19.0391L4.64648 23.0823C4.58212 23.2755 4.64648 23.4436 4.79306 23.508C4.75731 23.5546 4.72871 23.6046 4.72871 23.7012C4.79306 23.6548 4.88959 23.6369 4.93608 23.7728C4.96825 23.8694 4.79306 24.1807 5.05763 24.3918C5.02188 24.5778 5.12199 24.7675 5.31147 24.8497C5.31147 24.9464 5.40085 25.2576 5.41515 25.3686C5.29717 25.5368 5.02188 25.7944 5.05763 26.077C5.08981 26.2774 5.16846 26.3418 5.32935 26.3919C5.26499 26.7533 5.46521 26.9143 5.7691 26.9322C5.7691 27.1969 6.01579 27.2899 6.17668 27.3078C6.33041 27.4223 6.39476 27.4688 6.56995 27.5583C6.40907 27.7479 6.52347 27.9984 6.81666 28.0807C6.84881 28.1916 6.93104 28.2882 7.0955 28.3276C7.19202 28.4886 7.3672 28.4886 7.47087 28.442C7.53524 28.4098 7.64969 28.2238 7.54953 28.0628C7.6139 27.9841 7.58175 27.8302 7.53524 27.7336C7.63176 27.5583 7.54953 27.34 7.41728 27.2756C7.43515 27.179 7.38506 27.0252 7.35291 26.9322C7.58532 26.7854 7.87488 26.603 7.97855 26.5386C8.54702 26.1307 9.19058 25.7658 9.91995 25.7192C10.1058 25.7013 10.4491 25.687 10.6421 25.7013C10.9389 25.7335 11.3465 25.823 11.586 25.6369C11.661 25.5904 11.7075 25.5081 11.6932 25.4294C11.6611 25.2433 11.4608 25.0823 11.3965 24.9177C11.3786 24.8677 11.35 24.7925 11.3178 24.7246C11.5252 24.7603 11.7183 24.7317 11.8363 24.6744C11.9649 24.628 12.276 24.3954 12.2617 24.0483C12.0115 24.1664 11.4108 24.3274 11.3465 23.7192C11.2821 23.1824 11.754 22.7244 12.4941 22.9248C12.9982 23.0536 13.7347 24.1271 13.0625 24.5957C12.7336 24.8211 12.2295 25.0359 12.2939 25.6226C12.5084 25.3579 12.798 25.229 13.1734 25.2612C12.6228 25.6691 12.1973 25.7192 11.6182 26.0305C11.1141 26.3274 10.7386 26.8177 10.3418 26.832C10.0379 26.8463 9.86987 26.4849 10.1666 26.2058C9.86987 26.1414 9.47657 26.374 9.36576 26.6853C9.22273 27.111 9.33361 27.4152 9.59817 27.5869C9.24066 27.7801 8.97247 28.1558 9.10121 28.6925C9.22273 29.1326 9.66254 29.1326 9.4945 29.6944C9.7412 29.6299 9.90202 29.4618 9.97353 29.2221C10.0058 29.0539 10.0379 28.8786 10.1201 28.7963C10.0844 29.1326 10.2775 29.6299 10.7386 29.8554C11.0497 30.0092 11.5395 30.07 11.9149 29.6801C12.0686 30.1201 12.5871 30.4994 13.1269 30.4815C13.3736 30.4815 13.6167 30.3741 13.799 30.2668C13.9278 30.5924 14.2567 30.9252 14.582 31.0826C14.9181 30.9252 15.247 30.5924 15.3829 30.2668C15.5616 30.3777 15.8083 30.4815 16.0479 30.4815C16.5663 30.4958 17.1133 30.1201 17.2598 29.6801C17.6353 30.07 18.1251 30.0092 18.4361 29.8554C18.8937 29.6299 19.0868 29.1326 19.0546 28.7963C19.1404 28.8786 19.1726 29.0539 19.2084 29.2221C19.2727 29.4618 19.43 29.6299 19.6803 29.6944C19.5122 29.1326 19.9627 29.1326 20.0736 28.6925C20.2023 28.1558 19.9377 27.7765 19.5837 27.5869C19.8412 27.4188 19.9627 27.1146 19.809 26.6853C19.6982 26.374 19.3049 26.1414 19.0081 26.2058C19.3049 26.4849 19.144 26.8463 18.8329 26.832C18.4397 26.8177 18.0643 26.3239 17.5566 26.0305C16.981 25.7156 16.5555 25.6691 16.0014 25.2612C16.3768 25.229 16.6735 25.3579 16.8809 25.6226C16.9453 25.0359 16.4412 24.8211 16.1122 24.5957C15.4472 24.1271 16.1766 23.0536 16.6914 22.9248C17.4207 22.7244 17.9034 23.1824 17.8283 23.7192C17.7496 24.331 17.1633 24.17 16.8988 24.0483C16.8988 24.3918 17.2098 24.6244 17.3385 24.6744C17.4887 24.746 17.7676 24.7854 18.0142 24.678C18.0071 24.7389 17.9963 24.8033 17.9963 24.8211C17.9463 25.3435 17.6674 25.39 17.7639 25.6047C17.8998 25.7658 18.7972 25.7335 19.0403 25.7836C19.4658 25.8409 19.8269 25.9983 20.2344 26.0806C20.6921 26.1772 21.1783 26.1772 21.5894 26.3454C21.854 26.4599 22.1508 26.6746 22.4082 26.8033C22.8015 26.8677 22.7371 27.0287 22.9874 27.0287C23.2126 27.0287 23.2984 26.8356 23.588 26.7568C23.7883 26.7103 24.0135 26.789 24.2137 26.7246C24.3602 26.6924 24.4246 26.5421 24.5605 26.4599C24.7214 26.3633 24.9466 26.3633 25.0967 26.2237C25.1754 26.1521 25.1933 26.0162 25.179 25.9196L25.1826 25.9411C25.49 25.7264 25.7224 25.4115 25.8511 25.0501C25.9298 25.0359 25.9941 24.9643 25.9941 24.882C25.9941 24.8677 25.9941 24.8497 25.9941 24.8497C26.0728 24.7854 26.1228 24.6887 26.1228 24.5921C26.1228 24.4705 26.0764 24.3739 25.9941 24.2952C25.9941 24.2952 25.9941 24.2773 25.9941 24.263C25.9941 24.1986 25.962 24.1521 25.9298 24.1091C25.8011 23.4115 25.2719 22.8497 24.5891 22.6744C24.5891 22.6565 24.5891 22.6565 24.5891 22.6421H24.5748C24.5748 22.61 24.5605 22.5921 24.5355 22.5921C24.4389 22.4955 24.3245 22.3452 24.3102 22.2486C24.421 22.2808 24.6069 22.4561 24.7035 22.5277V21.6046C24.6069 21.6762 24.4246 21.8515 24.3102 21.8836C24.3245 21.7692 24.4997 21.5688 24.5891 21.49H23.6524C23.7382 21.5688 23.9169 21.7692 23.9312 21.8836C23.8204 21.8515 23.6345 21.6762 23.5416 21.6046V22.5277C23.6381 22.4561 23.8204 22.2808 23.9312 22.2486C23.9169 22.3631 23.7382 22.5634 23.6524 22.6421L23.6845 22.6565C22.9874 22.8175 22.426 23.3972 22.2974 24.1091C22.2509 24.1485 22.2187 24.1986 22.2187 24.263C22.2187 24.2773 22.2187 24.2952 22.2187 24.2952C22.1365 24.3739 22.09 24.4705 22.09 24.5921C22.09 24.6852 22.1365 24.7854 22.2187 24.8497C22.2187 24.8497 22.2187 24.8641 22.2187 24.882C22.2187 24.9857 22.2831 25.0359 22.3617 25.0501C22.3939 25.1396 22.4332 25.229 22.4761 25.3078C22.4761 25.3006 22.4761 25.3006 22.4868 25.2899C22.4296 25.5546 22.1078 25.7156 22.0364 25.7156C21.4643 25.7979 20.8315 25.5546 20.2559 25.3399C20.002 25.2433 19.6553 25.1324 19.4872 24.882C19.3836 24.6995 19.337 24.585 19.3907 24.424C19.4551 24.5027 19.5587 24.5921 19.7053 24.6709C19.7196 24.5921 19.7196 24.5027 19.7518 24.4383C19.8984 24.6566 20.1308 24.7675 20.4096 24.7532C20.2416 24.61 20.1629 24.2308 20.2416 23.9016C20.474 24.2952 21.357 24.3739 21.5179 23.6691C21.189 23.8229 20.9781 23.6548 20.9173 23.4759C20.8208 23.1932 21.1426 22.5098 20.8529 21.9838C20.6206 21.5903 20.356 21.3506 19.7411 21.2539C19.7876 21.1788 19.8054 21.1144 19.8197 21.0034C19.2512 21.211 18.7614 21.05 18.5291 20.5956C18.6435 20.6421 18.8079 20.66 18.9688 20.66C18.4647 20.2485 18.4969 19.0857 18.858 18.4845C18.9045 18.4524 18.9223 18.4202 18.9688 18.4059C19.0796 18.6313 19.4086 18.6313 19.5766 18.8138C19.641 18.7494 19.6731 18.7315 19.7375 18.6778C19.7375 18.6778 19.7518 19.6331 19.8161 20.0267C19.8805 20.4668 20.306 20.4202 20.5241 20.6135C20.7815 20.3308 21.2462 20.3451 21.1747 19.8585C21.1104 19.3719 21.0138 18.9283 20.9995 18.5991C21.1426 18.8961 21.425 20.0124 21.5359 20.3308C21.7182 20.8031 22.1758 20.66 22.4332 20.846C22.6012 20.5168 23.0267 20.4202 22.8586 19.9229C22.8122 19.7941 22.1151 18.3272 22.0113 18.0445C22.258 18.4059 22.9337 19.6975 23.1411 20.0589C23.3735 20.4345 23.799 20.2521 24.1028 20.3451C24.1601 20.0732 24.5712 19.7583 24.2709 19.286C23.8955 18.6599 23.0124 17.5686 22.9659 17.4147C23.1411 17.5829 24.5104 19.286 24.6176 19.379C24.9359 19.6582 25.4007 19.4435 25.6759 19.4435C25.6759 19.1322 25.9226 18.778 25.5651 18.4166C25.2362 18.1018 24.4818 17.565 24.3209 17.3826C24.825 17.7296 25.4185 18.2806 25.7725 18.3701C26.3982 18.5311 26.6234 18.2806 26.8558 18.184C26.6627 17.6151 26.9201 17.3504 25.5973 16.7958C26.7414 17.2037 27.2491 17.0033 27.6566 16.6813C27.4957 16.2734 27.0882 15.9299 26.7557 15.8154C27.4564 15.8297 27.9212 15.5184 28.2251 15.107C27.9677 14.7635 27.4564 14.5131 26.87 14.4486C27.7353 14.3306 28.4253 13.7939 28.504 13.1677ZM1.96506 17.3718C1.95075 17.3718 1.95075 17.3861 1.93288 17.404C1.83635 17.3897 1.83635 17.2753 1.85423 17.1787C1.9007 17.1787 1.93288 17.1643 1.96506 17.1321L1.97936 17.15L1.93288 17.1822C1.95075 17.243 1.95075 17.3074 1.96506 17.3718ZM2.27968 18.0445L2.12237 17.9515C2.18673 17.8763 2.2475 17.8763 2.31186 17.9193C2.31186 17.9658 2.31186 18.0123 2.27968 18.0445ZM2.75161 17.0427C2.73016 17.0427 2.70871 17.0427 2.68726 17.0427C2.68368 17.0391 2.68011 17.0319 2.67653 17.0284C2.70513 17.0212 2.73731 17.0212 2.76234 17.014C2.76234 17.0212 2.75519 17.0319 2.75161 17.0427ZM11.8434 28.764C11.4501 28.764 11.1713 28.5172 11.3715 28.1701C11.4751 28.3276 11.6825 28.3991 11.8613 28.417C11.8434 28.5816 11.8434 28.6281 11.8434 28.764ZM17.8247 28.1701C18.025 28.5172 17.7461 28.764 17.3528 28.764C17.3528 28.6281 17.3528 28.5816 17.3206 28.417C17.503 28.4027 17.7175 28.3347 17.8247 28.1701ZM11.8291 6.93134C12.7265 6.73813 13.6417 6.23364 14.0529 5.80786C14.3925 5.82933 14.8323 5.8329 15.1648 5.81144C15.5688 6.24079 16.4697 6.73456 17.3707 6.92776C16.8487 6.92776 15.9371 6.88125 15.8226 6.75244C15.8548 7.08162 16.552 7.45369 17.0096 7.55393C16.6306 7.6004 16.2803 7.55393 15.9835 7.41794C16.1444 7.65052 16.3303 7.82583 16.6342 7.92957C16.316 8.32316 15.6581 8.57719 15.0075 8.51635C15.1683 8.7096 15.4651 8.83122 15.7225 8.79547C15.1362 9.72928 14.7036 10.6882 14.5999 11.7974H14.5963V11.801C14.4998 10.6882 14.0672 9.72928 13.4844 8.79547C13.749 8.82764 14.0386 8.7096 14.1888 8.51635C13.5309 8.58076 12.8981 8.32316 12.5691 7.92957C12.8766 7.82583 13.059 7.65052 13.2198 7.41794C12.9303 7.55393 12.5691 7.6004 12.1938 7.55393C12.6514 7.45012 13.3557 7.08162 13.3879 6.75244C13.2628 6.88483 12.3511 6.93134 11.8291 6.93134ZM3.60251 16.8029C3.52028 16.8387 3.42017 16.8817 3.34509 16.9138C3.34509 16.9067 3.34509 16.8995 3.34509 16.8924C3.42375 16.8602 3.52386 16.8315 3.60251 16.8029ZM9.37291 21.007C9.39077 21.118 9.40513 21.1824 9.45156 21.2575C8.83308 21.3541 8.57209 21.5939 8.34683 21.9874C8.0322 22.517 8.36112 23.2003 8.27175 23.4794C8.20738 23.6548 8.00362 23.8265 7.6747 23.6726C7.83559 24.3811 8.71506 24.2988 8.94746 23.9052C9.02612 24.2344 8.94746 24.6137 8.78657 24.7567C9.06184 24.771 9.29425 24.6601 9.43728 24.4419C9.46943 24.5063 9.46943 24.5957 9.48372 24.6744C9.63746 24.5957 9.73398 24.5063 9.79835 24.4276C9.82343 24.5063 9.85201 24.6923 9.81621 24.8426C9.69826 24.9213 9.56595 24.9965 9.35862 25.1038C9.02969 25.2649 8.42907 25.4974 8.08585 25.5439C7.80337 25.5904 7.31355 25.4294 7.18845 25.0359C7.07407 24.6601 6.76301 24.5385 6.51632 24.771C6.45197 24.7246 6.27678 24.6887 6.2017 24.8068C6.2017 24.8068 6.12305 24.628 6.02652 24.5421C6.09087 24.3488 6.04082 24.1163 5.86563 24.0375C5.85133 23.6583 5.61894 23.6583 5.53671 23.5295C5.49023 23.4508 5.49023 23.3506 5.60106 23.3363C5.55459 23.2647 5.45448 23.2504 5.44018 23.2504C5.47236 23.0894 5.4223 22.889 5.20779 22.8247L3.30577 18.8961C3.42733 18.7672 3.36297 18.5812 3.22711 18.5168C3.22711 18.5168 3.22711 18.5025 3.22711 18.4845C3.23784 18.4524 3.24142 18.4309 3.24499 18.4059C3.29504 18.3987 3.3594 18.3844 3.41302 18.3701C3.78842 18.2806 4.37476 17.7296 4.88244 17.3826C4.70368 17.5686 3.96719 18.1053 3.63826 18.4166C3.3308 18.7207 3.4595 19.0248 3.50956 19.3003L3.58106 19.4542C3.85993 19.4721 4.27823 19.6403 4.58927 19.3826C4.68581 19.286 6.05869 17.5829 6.24103 17.4183C6.16953 17.5722 5.30432 18.6635 4.91105 19.2896C4.62145 19.7619 5.04691 20.0732 5.09696 20.3487C5.408 20.2521 5.83346 20.4381 6.05869 20.0625C6.27678 19.7011 6.94176 18.4095 7.18845 18.0481C7.09193 18.3308 6.38761 19.7977 6.33756 19.9265C6.16952 20.4238 6.59498 20.5204 6.76301 20.8496C7.02042 20.6635 7.48165 20.8103 7.66041 20.3344C7.77122 20.0159 8.05363 18.8997 8.20023 18.6027C8.18237 18.9318 8.08585 19.3755 8.02148 19.8621C7.95711 20.3523 8.41478 20.3344 8.65433 20.6171C8.88666 20.4238 9.31211 20.4704 9.37648 20.0302C9.44085 19.6367 9.45514 18.6814 9.45514 18.6814C9.51951 18.7386 9.55166 18.7529 9.62317 18.8174C9.78049 18.6313 10.113 18.6313 10.2238 18.4095C10.2739 18.4238 10.2882 18.4559 10.3382 18.4882C10.6993 19.0893 10.7279 20.2521 10.2238 20.6635C10.3704 20.6635 10.5527 20.6457 10.6636 20.5991C10.4419 21.0536 9.94495 21.2146 9.37291 21.007ZM12.9267 26.5028C12.6299 26.9107 12.3975 27.2076 12.2045 27.7158C11.8577 27.6835 11.9256 27.2578 12.0365 27.043C12.2689 26.6173 13.2127 26.0627 13.6882 25.5081C13.4773 25.8624 13.1841 26.1844 12.9267 26.5028ZM13.9528 27.2578C13.7597 28.0091 13.6239 29.1183 13.6882 29.6156C13.0232 29.2686 13.3986 27.9304 13.656 27.3543C14.0136 26.5529 14.2638 25.5725 14.3461 24.9464C14.5534 25.4222 14.0922 26.7497 13.9528 27.2578ZM15.508 29.6156C15.5723 29.1183 15.4437 28.0091 15.2434 27.2578C15.104 26.7497 14.6464 25.4222 14.8502 24.9464C14.9288 25.5725 15.1791 26.5493 15.5402 27.3543C15.7976 27.9304 16.173 29.2686 15.508 29.6156ZM17.1597 27.0395C17.2742 27.2578 17.3385 27.6799 16.9917 27.7121C16.7987 27.2041 16.5663 26.9107 16.2803 26.4992C16.0121 26.1844 15.7189 25.8588 15.508 25.5045C15.9799 26.0627 16.9273 26.6137 17.1597 27.0395ZM17.0775 21.2969C16.2088 22.9857 14.6178 24.3596 14.5999 24.3417C14.582 24.3631 12.991 22.9857 12.1223 21.2969C11.2535 19.6116 10.6958 16.9604 10.6672 15.6937C10.635 14.4272 10.8852 13.8869 10.8852 13.8869C10.8852 13.8869 11.9721 13.826 12.8409 13.5255C13.5774 13.2715 14.3782 12.6239 14.6035 12.4342C14.8287 12.6239 15.6296 13.2679 16.3696 13.5255C17.2348 13.8297 18.3217 13.8869 18.3217 13.8869C18.3217 13.8869 18.5684 14.4308 18.5362 15.6937C18.5004 16.9604 17.9428 19.6116 17.0775 21.2969Z" fill="#939393"/>
<path d="M46.8348 17.3541C47.3819 17.2359 47.9789 17.1537 48.6261 17.1108C49.2732 17.0642 49.906 17.0428 50.5352 17.0428C51.2002 17.0428 51.876 17.1 52.5589 17.2181C53.2454 17.3362 53.8674 17.5508 54.4288 17.8657C54.9901 18.1806 55.4477 18.6135 55.8088 19.1681C56.1663 19.7227 56.3487 20.4383 56.3487 21.3113C56.3487 22.1342 56.1842 22.8355 55.8589 23.4151C55.5336 23.9947 55.0973 24.4706 54.5575 24.8355C54.0176 25.2005 53.3955 25.4689 52.6983 25.637C52.0011 25.8052 51.2789 25.891 50.5352 25.891C50.4566 25.891 50.3351 25.8875 50.1742 25.8803C50.0097 25.8732 49.8417 25.866 49.6665 25.8624C49.4913 25.8553 49.3196 25.8446 49.1588 25.8338C48.9943 25.8195 48.8763 25.8087 48.7977 25.7944V30.9253H46.842V17.3541H46.8348ZM50.5925 18.7638C50.2385 18.7638 49.8989 18.7709 49.5664 18.7816C49.2338 18.7959 48.9764 18.8282 48.7941 18.8782V24.0699C48.8585 24.0949 48.9657 24.1128 49.1159 24.12C49.266 24.1271 49.4234 24.1343 49.5843 24.1486C49.7487 24.1629 49.9025 24.1665 50.0526 24.1665C50.2027 24.1665 50.3172 24.1665 50.3958 24.1665C50.8642 24.1665 51.329 24.1307 51.7866 24.0592C52.2442 23.9876 52.6554 23.8516 53.0308 23.6441C53.4026 23.4366 53.703 23.1504 53.9318 22.7746C54.1606 22.4026 54.275 21.9195 54.275 21.3256C54.275 20.8104 54.1642 20.3882 53.9425 20.0518C53.7208 19.7191 53.4348 19.4543 53.0809 19.2611C52.7305 19.0679 52.3336 18.9355 51.8974 18.8639C51.4577 18.7996 51.0215 18.7638 50.5925 18.7638Z" fill="#939393"/>
<path d="M56.792 25.7943C56.792 24.9463 56.9029 24.1842 57.1245 23.5116C57.3462 22.8389 57.6716 22.2664 58.1042 21.7977C58.5333 21.329 59.0588 20.9676 59.6809 20.7208C60.2994 20.4738 61.0073 20.3486 61.8046 20.3486C62.6377 20.3486 63.3706 20.4846 63.9962 20.7601C64.6219 21.0356 65.144 21.4149 65.5623 21.905C65.9806 22.3952 66.2881 22.9677 66.4918 23.6296C66.6957 24.2879 66.7957 25.0107 66.7957 25.7943C66.7957 26.628 66.6813 27.3793 66.4525 28.0448C66.2237 28.7103 65.8983 29.2792 65.4729 29.7479C65.0474 30.2167 64.5254 30.578 63.9069 30.8249C63.2884 31.0718 62.5876 31.197 61.8046 31.197C60.943 31.197 60.1993 31.061 59.5736 30.7856C58.948 30.51 58.4295 30.1344 58.0184 29.6513C57.6072 29.1683 57.2998 28.5958 57.0995 27.9375C56.8922 27.2791 56.792 26.5635 56.792 25.7943ZM58.7477 25.7943C58.7477 26.2773 58.8014 26.7496 58.9122 27.2147C59.0231 27.6799 59.1982 28.0913 59.4449 28.4598C59.6916 28.8284 60.0063 29.1182 60.3924 29.34C60.7785 29.5619 61.254 29.6728 61.8225 29.6728C63.8318 29.6728 64.8365 28.3811 64.8365 25.7979C64.8365 25.2898 64.7828 24.7996 64.672 24.3273C64.5611 23.8586 64.3895 23.4436 64.15 23.0857C63.9104 22.728 63.5994 22.4382 63.2133 22.2128C62.8271 21.9909 62.3623 21.88 61.8225 21.88C60.8179 21.88 60.0563 22.202 59.5343 22.8496C59.0087 23.49 58.7477 24.474 58.7477 25.7943Z" fill="#939393"/>
<path d="M76.6528 30.2167C76.1952 30.5423 75.6621 30.7891 75.0473 30.9501C74.4324 31.1147 73.7887 31.197 73.1093 31.197C72.2479 31.197 71.5148 31.0646 70.9069 30.8034C70.2996 30.5423 69.8098 30.1773 69.4305 29.7086C69.052 29.2399 68.78 28.671 68.6082 28.0055C68.4403 27.34 68.3545 26.6029 68.3545 25.7943C68.3545 24.0589 68.7765 22.7172 69.6167 21.769C70.4569 20.8245 71.6687 20.3486 73.2453 20.3486C73.9358 20.3486 74.5362 20.4095 75.0473 20.5347C75.555 20.6599 76.0125 20.8138 76.4164 20.9962L75.952 22.4632C75.6017 22.2807 75.2225 22.1376 74.8151 22.0339C74.4077 21.9301 73.9639 21.8764 73.4851 21.8764C71.372 21.8764 70.3174 23.1824 70.3174 25.7943C70.3174 26.2916 70.3745 26.7711 70.4926 27.2326C70.6101 27.6978 70.7963 28.1092 71.0573 28.467C71.3184 28.8248 71.6577 29.1182 72.0761 29.34C72.4979 29.5619 73.0131 29.6728 73.6211 29.6728C74.1645 29.6728 74.6433 29.5976 75.0507 29.4474C75.4588 29.2971 75.7982 29.1182 76.0736 28.9107L76.6528 30.2167Z" fill="#939393"/>
<path d="M85.7704 30.2167C85.3129 30.5423 84.7798 30.7891 84.165 30.9501C83.5501 31.1147 82.9064 31.197 82.227 31.197C81.3655 31.197 80.6325 31.0646 80.0245 30.8034C79.4172 30.5423 78.9274 30.1773 78.5482 29.7086C78.169 29.2399 77.8977 28.671 77.7259 28.0055C77.5576 27.34 77.4717 26.6029 77.4717 25.7943C77.4717 24.0589 77.8942 22.7172 78.7344 21.769C79.5746 20.8245 80.7864 20.3486 82.363 20.3486C83.0534 20.3486 83.6539 20.4095 84.165 20.5347C84.6726 20.6599 85.1302 20.8138 85.5341 20.9962L85.0697 22.4632C84.7194 22.2807 84.3401 22.1376 83.9328 22.0339C83.5247 21.9301 83.0816 21.8764 82.6028 21.8764C80.4896 21.8764 79.4351 23.1824 79.4351 25.7943C79.4351 26.2916 79.4921 26.7711 79.6103 27.2326C79.7278 27.6978 79.9139 28.1092 80.175 28.467C80.4326 28.8248 80.7754 29.1182 81.1972 29.34C81.6197 29.5619 82.1342 29.6728 82.7422 29.6728C83.2856 29.6728 83.7645 29.5976 84.1718 29.4474C84.5799 29.2971 84.9193 29.1182 85.1913 28.9107L85.7704 30.2167Z" fill="#939393"/>
<path d="M94.6939 25.05L94.9687 23.0142H94.7543L93.796 24.932L88.9837 30.925H87.5967V20.642H89.3987V26.7102L89.2626 28.5135H89.477L90.3783 26.7711L95.0937 20.642H96.5027V30.9214H94.7008V25.05H94.6939Z" fill="#939393"/>
<path d="M106.256 25.05L106.532 23.0142H106.317L105.359 24.932L100.547 30.925H99.1592V20.642H100.958V26.7102L100.822 28.5135H101.037L101.937 26.7711L106.653 20.642H108.062V30.9214H106.26V25.05H106.256Z" fill="#939393"/>
<path d="M57.8853 5.75777L58.0962 3.73264H57.9925L57.1952 5.58245L53.3803 11.6757H52.8548L48.8112 5.56456L48.0567 3.73264H47.9531L48.2463 5.7363V14.8172H46.6124V1.3211H47.9101L52.5009 8.22299L53.1909 9.72571H53.2338L53.8845 8.1836L58.2642 1.3211H59.6264V14.8136H57.8853V5.75777Z" fill="#939393"/>
<path d="M69.5578 9.11033L69.6217 7.91527H69.5578L68.6998 9.14972L63.9839 14.8172H63.0186V5.17815H64.6954V11.0568L64.631 12.1945H64.7132L65.532 10.9995L70.2475 5.17815H71.2306V14.8172H69.5544V9.11033H69.5578Z" fill="#939393"/>
<path d="M80.8743 10.5558H76.1369V14.8172H74.46V5.17815H76.1369V9.20692H80.8743V5.17815H82.5512V14.8172H80.8743V10.5558Z" fill="#939393"/>
<path d="M95.1866 17.2645H94.0531L93.7385 14.8172H85.7764V5.17815H87.4533V13.4683H92.0011V5.17815H93.678V13.4683H95.1866V17.2645Z" fill="#939393"/>
<path d="M103.804 9.11033L103.869 7.91527H103.804L102.946 9.14972L98.2299 14.8172H97.2647V5.17815H98.9416V11.0568L98.877 12.1945H98.9629L99.7818 10.9995L104.498 5.17815H105.481V14.8172H103.804V9.11033Z" fill="#939393"/>
<path d="M113.421 14.8923C113.181 14.971 112.934 15.014 112.677 15.0283C112.42 15.0426 112.183 15.0461 111.976 15.0461C110.704 15.0461 109.727 14.6347 109.041 13.8117C108.355 12.9888 108.015 11.7187 108.015 9.99411C108.015 8.34818 108.39 7.11022 109.148 6.273C109.903 5.43933 110.993 5.02071 112.416 5.02071C112.806 5.02071 113.142 5.04576 113.421 5.09942V1.3211H115.015V5.11731C115.266 5.07796 115.49 5.05291 115.688 5.0386C115.884 5.02429 116.07 5.02071 116.252 5.02071C117.636 5.02071 118.677 5.38924 119.373 6.12987C120.07 6.87051 120.421 8.09416 120.421 9.80085C120.421 10.6095 120.328 11.3394 120.138 11.987C119.949 12.6346 119.674 13.1856 119.309 13.6364C118.945 14.0873 118.501 14.4343 117.979 14.6776C117.454 14.9209 116.849 15.0426 116.166 15.0426C116.041 15.0426 115.855 15.0318 115.612 15.014C115.369 14.9961 115.169 14.9603 115.015 14.9066V18.6671H113.421V14.8923ZM112.394 13.776C112.562 13.776 112.731 13.7688 112.898 13.7581C113.067 13.7437 113.249 13.7187 113.442 13.6794V6.37318C113.274 6.34813 113.117 6.32666 112.97 6.31593C112.824 6.30162 112.645 6.29804 112.437 6.29804C111.572 6.29804 110.897 6.59501 110.414 7.19609C109.931 7.79366 109.692 8.72747 109.692 10.0013C109.692 10.5415 109.745 11.0424 109.849 11.504C109.953 11.9656 110.117 12.3699 110.342 12.7098C110.564 13.0497 110.85 13.3144 111.19 13.5004C111.529 13.683 111.933 13.776 112.394 13.776ZM115.934 6.29447C115.766 6.29447 115.616 6.29804 115.484 6.3052C115.351 6.31235 115.187 6.34097 114.99 6.39106V13.7151C115.13 13.7402 115.287 13.7581 115.462 13.7617C115.637 13.7688 115.83 13.7724 116.038 13.7724C116.932 13.7724 117.607 13.4325 118.061 12.7491C118.515 12.0693 118.744 11.0854 118.744 9.80085C118.744 8.7096 118.537 7.85085 118.126 7.22833C117.715 6.60932 116.985 6.29447 115.934 6.29447Z" fill="#939393"/>
<path d="M124.107 5.17805L124.421 6.33374H124.504C124.825 5.88291 125.24 5.53943 125.751 5.30328C126.262 5.06714 126.845 4.94549 127.5 4.94549C128.898 4.94549 129.938 5.32475 130.621 6.08328C131.304 6.84181 131.647 8.08339 131.647 9.80439C131.647 10.6129 131.532 11.3429 131.3 11.9905C131.068 12.6381 130.746 13.1891 130.324 13.64C129.906 14.0908 129.398 14.4378 128.804 14.6811C128.211 14.9244 127.55 15.0461 126.824 15.0461C126.306 15.0461 125.898 15.0174 125.597 14.9602C125.297 14.903 124.972 14.8028 124.621 14.6597V18.6705H122.944V5.17805H124.107ZM127.189 6.29438C126.477 6.29438 125.912 6.46612 125.501 6.80603C125.09 7.14593 124.801 7.66471 124.632 8.35887V13.139C124.882 13.3179 125.169 13.4574 125.49 13.554C125.812 13.6507 126.238 13.6972 126.77 13.6972C127.735 13.6972 128.501 13.368 129.065 12.7061C129.631 12.0442 129.913 11.071 129.913 9.78644C129.913 9.26051 129.863 8.78106 129.766 8.35172C129.67 7.92238 129.513 7.55382 129.294 7.25325C129.076 6.95272 128.797 6.71658 128.458 6.54841C128.115 6.38025 127.693 6.29438 127.189 6.29438Z" fill="#939393"/>
<path d="M135.968 8.85988C136.305 8.80976 136.626 8.77401 136.934 8.75256C137.241 8.73462 137.535 8.72389 137.813 8.72389C138.525 8.72389 139.122 8.79903 139.604 8.94575C140.087 9.09246 140.473 9.29637 140.767 9.55397C141.059 9.81164 141.267 10.1157 141.385 10.47C141.503 10.8242 141.564 11.1999 141.564 11.597C141.564 12.767 141.21 13.615 140.506 14.141C139.802 14.6669 138.657 14.9317 137.08 14.9317C136.187 14.9317 135.257 14.8923 134.292 14.8172V5.17815H135.968V8.85988ZM135.968 13.4683C136.483 13.547 136.98 13.5828 137.456 13.5828C138.336 13.5828 138.95 13.4254 139.301 13.1105C139.651 12.7956 139.826 12.3484 139.826 11.7724C139.826 11.2571 139.655 10.8349 139.312 10.4986C138.968 10.1658 138.371 9.99767 137.52 9.99767C137.28 9.99767 137.023 10.0048 136.745 10.0155C136.466 10.0298 136.208 10.0657 135.968 10.1301V13.4683ZM143.219 5.17815H144.896V14.8172H143.219V5.17815Z" fill="#939393"/>
</svg>
