<svg width="129" height="24" viewBox="0 0 129 24" fill="none" xmlns="http://www.w3.org/2000/svg">
<g clip-path="url(#clip0_426_2940)">
<path d="M103.661 5.49669C105.972 5.70201 108.021 3.9749 108.224 1.63182C108.236 1.55935 108.236 1.48689 108.236 1.40234H105.806C105.555 2.39272 104.96 2.88791 103.661 2.88791C102.363 2.88791 101.683 2.39272 101.481 1.40234H99.0508C99.146 3.76958 101.136 5.61747 103.47 5.50877C103.53 5.50877 103.59 5.49669 103.661 5.49669Z" fill="#939393"/>
<path d="M53.6867 16.9342V6.77686H50.625V21.5841H53.8177L59.9888 11.2577V21.5841H63.0504V6.77686H59.8576L53.6867 16.9342Z" fill="#939393"/>
<path d="M40.9723 6.89774C38.6731 6.78908 36.5049 8.03306 35.4089 10.0742C35.5638 6.71661 36.2429 4.72377 40.1741 4.20443L46.2975 3.37106L46.0473 0.0617676L39.6619 0.931364C34.1581 1.68018 32.6094 5.85907 32.6094 12.4293C32.6094 18.1783 35.2541 21.862 40.1622 21.862C44.9513 21.862 47.5483 18.2267 47.5483 13.9632C47.7866 10.3037 45.0466 7.15139 41.4369 6.90981C41.294 6.89774 41.1391 6.89774 40.9723 6.89774ZM40.1741 18.601C37.3984 18.601 35.7663 16.6203 35.7663 13.6371V12.1033C36.35 10.9438 37.9107 10.0379 40.1741 10.0379C42.5687 10.0379 44.4152 11.1491 44.4152 13.9632C44.4152 16.7773 42.9499 18.601 40.1741 18.601Z" fill="#939393"/>
<path d="M122.792 6.77686V12.3205H116.823V6.77686H113.762V21.5841H116.823V15.3762H122.792V21.5841H125.853V6.77686H122.792Z" fill="#939393"/>
<path d="M100.554 16.9342V6.77686H97.4922V21.5841H100.684L106.856 11.2577V21.5841H109.918V6.77686H106.725L100.554 16.9342Z" fill="#939393"/>
<path d="M68.5666 15.8351C68.2327 17.4898 67.7682 18.1903 66.8392 18.1903C66.4578 18.2024 66.0763 18.1661 65.707 18.0695V21.4996C66.1837 21.717 66.6958 21.8136 67.2201 21.7894C68.6972 21.8257 70.0199 20.8836 70.4966 19.4705C70.8775 18.311 71.1155 17.0912 71.2113 15.8714C71.4134 13.8906 71.5092 11.9099 71.5092 9.91705H75.5834V21.5841H78.645V6.77686H68.9475C69.0073 9.80833 68.8761 12.8278 68.5666 15.8351Z" fill="#939393"/>
<path d="M93.0937 17.5743L93.1413 11.7046C93.1889 7.98463 90.8781 6.45073 87.5186 6.45073C84.6114 6.22128 82.0741 8.40734 81.8477 11.3543C81.8477 11.3664 81.8477 11.3905 81.8477 11.4026H84.7902C84.9569 10.0378 86.0531 9.57886 87.5186 9.57886C89.0195 9.57886 90.0321 10.0378 90.1871 11.5597L86.434 13.0573C83.8729 14.096 81.9429 15.2554 81.9429 17.6951C81.9429 20.2194 83.3724 21.8377 86.2197 21.8377C88.0307 21.8861 89.6983 20.8233 90.4368 19.1444C90.5918 20.9319 91.7833 21.717 93.8561 21.717H94.702V18.8667H94.4518C93.4746 18.8546 93.0937 18.4802 93.0937 17.5743ZM87.3398 18.7338C85.9103 18.7338 84.8617 18.3594 84.8617 17.0792C84.8617 15.968 85.7431 15.4728 87.2562 14.8448L90.1871 13.6491L90.1511 17.6589C89.4126 18.4077 88.3878 18.7942 87.3398 18.7338Z" fill="#939393"/>
<path d="M18.6166 21.0526C14.5781 23.4198 10.1941 23.8426 7.39453 22.4295C11.1114 24.6759 15.6979 24.7001 19.4386 22.514C23.1436 20.3883 25.4309 16.3061 25.3833 11.8856C25.2164 15.05 22.6551 18.6854 18.6166 21.0526Z" fill="#939393"/>
<path d="M15.0021 0.895054C15.8241 2.3323 13.8465 5.04979 10.5823 6.95807C7.31812 8.86635 4.01822 9.25286 3.19621 7.81556C3.16048 7.74309 3.12474 7.67063 3.10091 7.59817C2.94604 6.71649 3.1843 5.82276 3.75613 5.14641C3.85143 5.00147 3.95865 4.86862 4.06587 4.72369C5.01892 3.4676 6.21022 2.41684 7.55641 1.63179C8.90258 0.822586 10.3917 0.315322 11.9285 0.11C12.1072 0.0858447 12.274 0.0616896 12.4407 0.0496119C13.2985 -0.107398 14.18 0.122078 14.8591 0.701807C14.9067 0.762196 14.9663 0.822586 15.0021 0.895054Z" fill="#939393"/>
<path d="M20.0701 2.44104C21.4997 4.95321 18.6168 9.34951 13.6252 12.2723C8.63361 15.1951 3.4276 15.5212 2.00995 13.0091C1.77169 12.5863 1.64065 12.1153 1.61682 11.6201C1.55726 13.3472 1.85508 15.0623 2.5103 16.6565C2.60561 16.8981 2.71282 17.1396 2.83195 17.3812L2.84386 17.4174C3.29656 18.1783 3.93987 18.7942 4.7023 19.1928C7.50186 20.7146 12.2314 20.1953 16.663 17.5986C21.0828 15.0139 23.8942 11.1129 24.0015 7.90014C24.0491 7.01852 23.8466 6.14891 23.4177 5.388C23.251 5.14645 23.0841 4.9049 22.9055 4.67542C21.869 3.32272 20.5705 2.21156 19.0933 1.42651C19.4983 1.68014 19.8319 2.0304 20.0701 2.44104Z" fill="#939393"/>
</g>
<defs>
<clipPath id="clip0_426_2940">
<rect width="129" height="24" fill="white"/>
</clipPath>
</defs>
</svg>
