<svg width="113" height="34" viewBox="0 0 113 34" fill="none" xmlns="http://www.w3.org/2000/svg">
<path d="M56.257 14.2269C55.4774 13.9207 54.4576 13.829 53.3478 13.829H47.1689V11.8693H57.7868V8.5011H42.8199V23.0761H52.9579C54.3676 23.0761 55.417 22.9538 56.1972 22.6473C57.8468 22.0044 58.9566 20.4428 58.9566 18.3912C58.9566 16.3093 57.9068 14.87 56.257 14.2269ZM54.0975 19.2793C53.8577 19.3711 53.5278 19.4016 53.1077 19.4016H47.1689V17.0745H53.1077C53.5877 17.0745 53.9775 17.1053 54.2776 17.2584C54.6373 17.442 54.8174 17.7789 54.8174 18.2074C54.8174 18.6362 54.6075 19.0955 54.0975 19.2793Z" fill="#939393"/>
<path d="M71.1491 8.5011H64.7904L58.9417 23.0761H63.8606L64.6705 20.9634H71.2689L72.1089 23.0761H76.9979L71.1491 8.5011ZM65.7501 17.7482L67.8199 11.8693H68.1498L70.2193 17.7482H65.7501Z" fill="#939393"/>
<path d="M82.5947 17.6566V23.0763H78.2457V8.50104H82.5947V13.829H89.5832V8.50104H93.9324V23.0763H89.5832V17.6566H82.5947Z" fill="#939393"/>
<path d="M100.823 17.5647V23.0763H96.4734V8.50104H100.823V13.9822H102.022L107.272 8.50104H112.73L105.771 15.4824L113 23.0763H107.211L102.022 17.5647H100.823Z" fill="#939393"/>
<path fill-rule="evenodd" clip-rule="evenodd" d="M34.4938 16.4956C34.4938 21.0357 32.1208 25.2314 28.2697 27.5015L17.2469 34L6.22409 27.5015C2.37286 25.2314 1.74624e-05 21.0357 0 16.4956V0H34.4938V16.4956ZM9.51553 13.9743C10.2487 13.1291 11.5822 12.5576 13.1063 12.5576H14.7627V18.9201C14.7627 20.6129 14.312 22.2711 13.6435 23.0861H20.8484C20.1813 22.2702 19.7311 20.6147 19.7311 18.924V12.5576H21.3875C22.9116 12.5576 24.2451 13.1291 24.9783 13.9743V8.50122H9.51553V13.9743Z" fill="#939393"/>
</svg>
