<svg width="166" height="35" viewBox="0 0 166 35" fill="none" xmlns="http://www.w3.org/2000/svg">
<g clip-path="url(#clip0_427_4334)">
<path fill-rule="evenodd" clip-rule="evenodd" d="M0.342285 17.5C0.342285 27.1608 8.15371 35 17.7802 35C27.4067 35 35.218 27.1608 35.218 17.5C35.218 7.83924 27.4067 0 17.7802 0C8.15371 0 0.342285 7.83924 0.342285 17.5ZM0.958123 17.5C0.958123 8.16451 8.51023 0.585502 17.8126 0.585502C27.1149 0.585502 34.667 8.16451 34.667 17.5C34.667 26.803 27.1149 34.3819 17.8126 34.3819C8.51023 34.4145 0.958123 26.8355 0.958123 17.5Z" fill="#939393"/>
<path fill-rule="evenodd" clip-rule="evenodd" d="M5.78884 12.7183C10.2618 9.79079 15.1885 8.06681 23.5508 9.53058C24.0047 9.27036 24.2639 9.01014 24.3935 8.45714C22.3191 7.70905 20.0503 7.4488 17.1332 7.48133C14.5078 7.54638 9.77556 8.5222 7.24741 10.0185L8.02533 9.04263C9.808 8.00176 14.4105 6.6356 17.8463 6.53802C20.2772 6.50549 21.5413 6.6356 24.426 7.41627C24.1667 6.92835 23.5833 6.66812 22.7081 6.27779C19.9207 5.00921 14.6698 4.91162 10.3914 6.79824C10.9424 6.44043 11.461 6.11515 12.1741 5.78988C13.6003 5.13932 15.9015 4.52129 18.7862 4.55381C21.0875 4.58635 23.8425 5.39954 25.528 7.05847C25.8197 7.38374 25.9818 7.74154 26.0466 8.03433C27.3755 8.71736 28.1534 9.33541 28.5748 10.0836C28.7369 10.4739 28.834 10.8967 28.7369 11.3522C29.2879 11.6774 29.5472 11.9702 29.8389 12.328C30.0334 12.6207 30.1954 12.9785 30.2278 13.3038C30.2926 13.7267 30.3251 14.1821 29.9037 14.7351C30.3574 14.9627 30.714 15.5808 30.7788 15.8735C30.9733 16.8819 30.3574 17.8577 29.4824 18.6384C28.51 19.5166 26.3383 20.525 24.588 20.9804C21.0875 21.8586 18.0083 22.249 15.545 22.7043C16.647 22.9646 18.138 23.3224 20.6014 23.3224C25.8197 23.3224 30.4223 20.8503 30.4223 20.8503C30.4223 20.8503 30.3251 21.1755 30.2278 21.4683C26.9218 23.4851 21.6385 24.3308 19.402 24.2332C17.1008 24.1356 15.1885 23.7778 13.3085 23.1923C12.7251 23.355 12.1741 23.5176 11.6231 23.7778C14.4753 25.0789 16.647 25.3717 19.1103 25.5668C21.6061 25.762 25.7225 25.144 29.223 23.8754C29.061 24.038 28.9962 24.2982 28.8341 24.4283C27.0514 25.3717 23.2592 26.315 21.3792 26.38C19.4993 26.4451 17.198 26.38 15.1885 26.0222C13.4706 25.6969 12.0444 25.144 10.5859 24.4934C10.3266 24.6885 10.197 24.9488 10.1321 25.2415C15.7395 28.2341 21.1199 28.2992 27.2458 26.38L26.6948 26.933C19.953 29.6653 14.7023 28.592 10.6183 26.6403C10.4887 26.5752 10.3266 26.5101 10.197 26.4451C10.5859 27.0956 13.6975 29.3726 17.1656 29.6653C19.5642 29.8605 22.4813 29.4377 24.2315 28.7546L23.1943 29.275C22.3516 29.6979 20.1152 30.6412 17.0036 30.4135C12.8548 30.1207 10.521 28.2992 9.45148 27.3234C8.96528 26.868 8.73837 26.3475 8.57633 25.6969C7.63637 25.2091 7.05293 24.6885 6.56675 23.9405C6.27503 23.4851 6.33986 22.9971 6.40468 22.5742L6.50192 22.1839C6.04815 21.8586 5.59437 21.5008 5.39989 21.143C4.97854 20.3949 5.23783 19.7769 5.52954 19.2564C5.27025 18.9637 5.04336 18.7035 4.94612 18.4107C4.84888 18.0529 4.81647 17.7276 4.84888 17.3698C4.91371 16.7518 5.27025 16.1663 5.69161 15.6783C6.59915 14.6375 8.02533 13.8242 10.4887 13.0111C12.8871 12.2304 13.8271 12.1003 15.6422 11.6774C17.749 11.1895 20.2772 11.0268 22.384 10.2787C16.5174 9.23779 10.3914 10.1811 5.43231 13.6291L5.78884 12.7183ZM25.7873 9.0752C25.7225 9.36798 25.3984 9.69325 25.2039 9.9209C25.8521 10.0836 26.5004 10.3112 27.1162 10.5714C27.019 9.98596 26.3708 9.43303 25.7873 9.0752ZM7.70117 20.8503C7.31223 20.6226 7.05293 20.4925 6.76122 20.2648C6.59915 20.6226 6.92328 21.0454 7.24741 21.2406C7.37705 21.1105 7.53912 20.9804 7.70117 20.8503ZM27.5052 13.1412C27.9265 13.3364 28.3155 13.499 28.672 13.7592C28.9313 13.2388 28.7692 12.9135 28.2182 12.4581C28.0238 12.7183 27.7645 12.946 27.5052 13.1412ZM26.2411 13.9219C25.3984 14.3122 24.1343 14.7351 22.384 15.1905C20.9579 15.5482 17.4249 16.0687 13.6326 16.8819C12.4334 17.1421 9.19213 17.9227 7.60394 19.2564C8.05769 19.6142 8.31705 19.7118 8.83561 19.9721C9.48385 19.5492 10.3914 19.1588 11.7204 18.801C14.054 18.183 15.7719 17.9227 17.8786 17.565C19.953 17.2397 23.8425 16.4265 26.0142 15.6458C26.7273 15.3856 27.3755 15.0603 27.8617 14.67C27.6997 14.5398 26.3059 13.8568 26.2411 13.9219ZM9.90524 22.9971C10.2293 22.802 10.6183 22.6068 11.0397 22.4441C10.4238 22.1839 9.808 21.9237 9.19213 21.631C8.90041 21.7936 8.64113 21.9887 8.44665 22.1839C8.93285 22.4441 9.38661 22.7369 9.90524 22.9971ZM7.89565 23.1923C7.89565 23.5826 8.12257 23.9405 8.64113 24.3633C8.70593 24.1356 8.80317 24.0055 8.96529 23.8103C8.57633 23.6152 8.25217 23.3875 7.89565 23.1923ZM10.8452 15.9711C15.0912 14.7351 19.5642 14.3447 24.1019 13.1412C22.3191 12.6533 21.3792 12.4581 19.4993 12.6858C16.7767 13.0111 13.7947 13.5966 11.2342 14.3447C10.2293 14.6375 4.94612 16.1337 6.46951 18.2481C6.46951 18.2806 7.37705 17.012 10.8452 15.9711ZM26.7921 11.6124C26.1114 11.2871 25.2363 10.9943 24.2964 10.7341C23.875 11.0594 23.4212 11.3522 22.7081 11.6124C23.8425 11.8076 24.7177 12.1328 25.6901 12.4255C25.8846 12.5232 26.6624 11.775 26.7921 11.6124ZM28.8989 15.7109C28.7692 15.8084 28.6396 15.9385 28.4775 16.0362C27.5052 16.7843 25.9818 17.3698 23.875 17.9553C19.4993 19.1263 16.3229 19.3214 12.6927 20.1997C11.9796 20.3624 11.2665 20.6226 10.5859 20.8828C11.2665 21.2406 11.9796 21.5334 12.7251 21.8262C14.1837 21.4033 14.8967 21.2081 17.0359 20.8503C17.8463 20.7202 20.342 20.2648 22.1571 19.8744C25.3984 19.2239 30.163 17.6951 28.8989 15.7109Z" fill="#939393"/>
<path fill-rule="evenodd" clip-rule="evenodd" d="M51.9109 25.1113H55.5087L55.93 22.4765H58.3934L58.8148 25.1113H62.4126L59.3658 9.79064H54.8928L51.9109 25.1113ZM57.1941 14.4096L57.8748 19.0936H56.5459L57.1941 14.4096Z" fill="#939393"/>
<path fill-rule="evenodd" clip-rule="evenodd" d="M65.8484 15.7434C66.4318 15.7434 67.469 15.3855 67.469 14.2471C67.469 12.9135 66.2373 12.8159 65.9132 12.8159C65.4919 12.8159 64.7464 12.8809 63.9685 13.2387L63.936 9.9209C65.1353 9.62812 66.0104 9.53058 67.0153 9.53058C69.8999 9.53058 71.2288 11.5798 71.2288 13.564C71.2288 15.5157 70.0944 16.6867 69.0248 17.1421V17.3048C70.062 17.63 71.4558 18.6383 71.4558 20.9804C71.4558 23.8753 69.4462 25.4692 66.8856 25.4692C65.4919 25.4692 64.6167 25.274 63.5471 24.6885L63.612 21.5008C64.6167 21.9237 65.2974 21.9562 65.9781 21.9562C67.1125 21.9562 67.5663 21.1105 67.5663 20.4924C67.5663 19.6467 67.0153 19.0612 65.8159 19.0612H64.3574V15.7434H65.8484Z" fill="#939393"/>
<path fill-rule="evenodd" clip-rule="evenodd" d="M82.8015 25.1113H79.2363V13.4662H76.6755V25.1113H73.11V9.79064H82.8015V25.1113Z" fill="#939393"/>
<path fill-rule="evenodd" clip-rule="evenodd" d="M84.8118 25.1113H88.345V20.0695H89.5443C93.0447 20.0695 94.1466 16.9142 94.1466 14.8975C94.1466 12.9133 92.9145 9.79064 89.5443 9.79064H84.8118V25.1113ZM88.345 13.1735H89.1871C89.9974 13.1735 90.4839 13.6614 90.4839 14.93C90.4839 16.5889 89.641 16.6866 89.1871 16.6866H88.345V13.1735Z" fill="#939393"/>
<path fill-rule="evenodd" clip-rule="evenodd" d="M100.693 25.3067C104.907 25.3067 106.3 21.3708 106.3 17.435C106.3 13.4991 104.874 9.56322 100.693 9.56322C96.479 9.56322 95.0855 13.4991 95.0855 17.435C95.0855 21.3708 96.5117 25.3067 100.693 25.3067ZM100.693 21.5986C99.4609 21.5986 98.8129 20.1348 98.8129 17.435C98.8129 14.7352 99.4609 13.2715 100.693 13.2715C101.957 13.2715 102.573 14.7352 102.573 17.435C102.605 20.1348 101.957 21.5986 100.693 21.5986Z" fill="#939393"/>
<path fill-rule="evenodd" clip-rule="evenodd" d="M121.728 25.1113H125.974C126.881 25.1113 130.706 24.721 130.739 20.1019C130.739 16.1986 127.757 15.5155 125.844 15.5155H125.228V13.4988H129.928V9.79064H121.76V25.1113H121.728ZM125.228 22.0537V18.5731H125.747C126.169 18.5731 127.27 18.6057 127.27 20.167C127.27 21.7934 126.136 22.0537 125.747 22.0537H125.228Z" fill="#939393"/>
<path fill-rule="evenodd" clip-rule="evenodd" d="M152.877 25.1113H149.441V18.996H146.945V25.1113H143.478V9.79064H146.945V15.3203H149.441V9.79064H152.877V25.1113Z" fill="#939393"/>
<path fill-rule="evenodd" clip-rule="evenodd" d="M165.192 9.79064L162.469 17.0769L165.581 25.1113H161.497L159.519 18.9635H158.677V25.1113H155.209V9.79064H158.677V15.3203H159.423L161.432 9.79064H165.192Z" fill="#939393"/>
<path fill-rule="evenodd" clip-rule="evenodd" d="M45.0726 9.79064H52.3329V13.6289H48.6704V25.1113H45.0726V9.79064Z" fill="#939393"/>
<path fill-rule="evenodd" clip-rule="evenodd" d="M115.83 25.1113V15.7757L113.69 18.443L111.551 15.7757V25.1113H108.018V9.79064H111.033L113.69 13.4012L116.349 9.79064H119.363V25.1113H115.83Z" fill="#939393"/>
<path fill-rule="evenodd" clip-rule="evenodd" d="M131.419 25.1439H135.017L135.438 22.5092H137.901L138.355 25.1439H141.953L138.906 9.82328H134.434L131.419 25.1439ZM136.702 14.4423L137.383 19.1263H136.054L136.702 14.4423Z" fill="#939393"/>
</g>
<defs>
<clipPath id="clip0_427_4334">
<rect width="166" height="35" fill="white"/>
</clipPath>
</defs>
</svg>
