<svg width="90" height="32" viewBox="0 0 90 32" fill="none" xmlns="http://www.w3.org/2000/svg">
<path d="M26.0773 4.2628H4.64218L6.18638 0H27.6215L26.0773 4.2628ZM25.3052 6.39421H3.86044L2.31626 10.657H23.7514L25.3052 6.39421ZM22.989 12.769H1.54418L0 17.0319H21.4158L22.989 12.769Z" fill="#939393"/>
<path d="M77.1521 27.6984H81.0125C81.5615 27.7642 82.1176 27.6934 82.6327 27.4924C83.1477 27.2913 83.6054 26.9661 83.966 26.5455C84.4954 25.8499 84.762 24.9883 84.719 24.1138C84.7549 23.5573 84.6532 23.0006 84.4223 22.4933C84.1915 21.9861 83.8395 21.5442 83.3968 21.2073C82.6803 20.7366 81.8275 20.5185 80.974 20.5873H77.1521V27.6984ZM72.0856 31.9903V6.39408H88.6759L87.2187 10.6859H77.1521V16.3536H81.2537C84.5645 16.3536 86.2824 17.148 87.4691 18.1652C88.3179 18.9197 88.9855 19.8573 89.4217 20.9076C89.8579 21.9579 90.0515 23.0939 89.9883 24.23C90.0535 25.4535 89.8129 26.6741 89.2887 27.7806C88.7645 28.8871 87.973 29.8446 86.9866 30.5661C85.3944 31.6706 83.7247 31.9806 80.3273 31.9806L72.0856 31.9903ZM57.3965 31.9903V10.6763H50.023V6.39408H70.4928L69.0357 10.6859H62.5116V32L57.3965 31.9903ZM36.9651 16.6442H39.8604C40.4526 16.6848 41.0474 16.6391 41.6266 16.5085C42.2288 16.3154 42.7478 15.9226 43.0985 15.3945C43.4492 14.8664 43.6108 14.2345 43.5568 13.6021C43.6371 12.9738 43.485 12.3377 43.1292 11.8145C42.7734 11.2913 42.2387 10.9173 41.6266 10.7635C40.9943 10.6161 40.3447 10.5574 39.6963 10.589H36.9651V16.6442ZM36.9651 21.0717V27.7856H40.4974C41.4709 27.8973 42.4496 27.6265 43.2286 27.0299C43.5877 26.696 43.8689 26.2868 44.0524 25.8313C44.2359 25.3758 44.3171 24.8853 44.2903 24.3947C44.3056 23.611 44.0687 22.843 43.6147 22.2052C42.8619 21.2364 41.9354 21.0523 40.3526 21.0523L36.9651 21.0717ZM45.1299 18.3687V18.4559C45.9904 18.7884 46.7945 19.2524 47.5137 19.8316C48.2408 20.4373 48.8153 21.2064 49.191 22.0766C49.5666 22.9469 49.7326 23.8937 49.6756 24.8404C49.6756 28.3378 47.8226 30.8665 44.7825 31.6222C43.5706 31.9195 42.3225 32.0402 41.0764 31.9806H31.8982V6.39408H40.0631C41.3599 6.34649 42.6574 6.46697 43.9235 6.75256C46.8768 7.54698 48.8167 9.59121 48.8167 12.8173C48.8408 13.5865 48.7086 14.3526 48.4281 15.0688C48.1477 15.785 47.725 16.4364 47.1856 16.9833C46.6128 17.5671 45.9305 18.0313 45.1782 18.3493L45.1299 18.3687Z" fill="#939393"/>
</svg>
