<svg width="149" height="27" viewBox="0 0 149 27" fill="none" xmlns="http://www.w3.org/2000/svg">
<g clip-path="url(#clip0_427_3014)">
<path d="M14.8692 0.0792219V13.9764C14.8692 14.6117 14.4021 15.0882 13.7793 15.0882H12.1445C12.0667 15.0882 11.9888 15.1675 11.9888 15.247V26.9206C12.378 26.9206 12.7673 27 13.2344 27C20.552 27 26.4685 20.9647 26.4685 13.4999C26.4685 6.59104 21.4084 0.873349 14.8692 0.0792219ZM14.5578 20.8853C13.6236 20.8853 12.923 20.0912 12.923 19.2176C12.923 18.2647 13.7015 17.5499 14.5578 17.5499C15.4919 17.5499 16.1926 18.3441 16.1926 19.2176C16.2704 20.0912 15.4919 20.8853 14.5578 20.8853ZM18.4501 20.8853C17.516 20.8853 16.8154 20.0912 16.8154 19.2176C16.8154 18.2647 17.5938 17.5499 18.4501 17.5499C19.3843 17.5499 20.0849 18.3441 20.0849 19.2176C20.0849 20.0912 19.3843 20.8853 18.4501 20.8853ZM22.3426 20.8853C21.4084 20.8853 20.7077 20.0912 20.7077 19.2176C20.7077 18.2647 21.4862 17.5499 22.3426 17.5499C23.2767 17.5499 23.9773 18.3441 23.9773 19.2176C23.9773 20.0912 23.2767 20.8853 22.3426 20.8853Z" fill="#939393"/>
<path d="M13.2341 0C5.91641 0 0 6.03534 0 13.5001C0 20.0119 4.43731 25.412 10.4316 26.6825V14.5325C10.4316 13.9766 10.8987 13.5001 11.4436 13.4207H13.0784C13.1562 13.4207 13.2341 13.3413 13.2341 13.2618V0ZM10.6651 11.1178C9.73096 11.1178 9.03033 10.3236 9.03033 9.45007C9.03033 8.49715 9.80879 7.78239 10.6651 7.78239C11.5992 7.78239 12.2999 8.57652 12.2999 9.45007C12.2999 10.3236 11.5992 11.1178 10.6651 11.1178ZM145.731 7.38536V12.4678H139.036V7.38536H135.688V20.8854H139.036V15.406H145.731V20.8854H149V7.38536H145.731ZM90.6146 8.89418C90.0698 7.70303 88.9795 7.0677 87.89 7.0677C86.7997 7.0677 85.7102 7.70303 85.1654 8.89418L79.7934 20.8854H83.2969L84.4643 18.0266H91.315L92.483 20.8854H95.9859L90.6146 8.89418ZM85.5545 15.3266L87.5787 10.403C87.6565 10.2442 87.7343 10.2442 87.8122 10.2442C87.89 10.2442 88.0456 10.2442 88.0456 10.403L90.0698 15.3266H85.5545ZM51.2236 4.92357C49.6667 4.92357 48.6547 5.7971 47.9541 7.46479L43.6725 17.6296L39.3908 7.46479C38.6902 5.7971 37.6782 4.92357 36.1213 4.92357C34.6421 4.92357 33.163 5.95593 33.163 8.25892V20.8061H36.4327V8.65595L40.7921 18.7414C41.337 20.1707 42.349 21.0443 43.6725 21.0443C45.0737 21.0443 46.0079 20.1707 46.5528 18.7414L50.9123 8.65595V20.8854H54.1819V8.33829C54.1819 6.03534 52.7028 4.92357 51.2236 4.92357ZM60.0204 18.0266C59.8647 18.0266 59.7091 17.8678 59.7091 17.709V15.3266H67.9612V12.5471H59.7091V10.4824C59.7091 10.3236 59.8647 10.1648 60.0204 10.1648H68.1947V7.30593H58.3856C57.2179 7.30593 56.4394 8.25892 56.4394 9.29128V18.7414C56.4394 19.7737 57.2958 20.7266 58.3856 20.7266H68.1947V17.8678H60.0204V18.0266ZM73.7217 20.8854V10.5619C73.7217 10.403 73.8773 10.2442 74.033 10.2442H82.2067V7.38536H72.398C71.2306 7.38536 70.4523 8.33829 70.4523 9.37064V20.8061H73.7217V20.8854ZM133.509 14.1354C133.509 9.45007 131.484 7.2265 126.502 7.2265H125.334C120.352 7.2265 118.328 9.45007 118.328 14.1354C118.328 18.7414 120.352 21.0443 125.334 21.0443H126.424C131.484 20.9649 133.509 18.7414 133.509 14.1354ZM126.424 18.1855H125.334C122.61 18.1855 121.52 16.9149 121.52 14.1354C121.52 11.4354 122.454 10.0854 125.334 10.0854H126.424C129.227 10.0854 130.239 11.4354 130.239 14.1354C130.239 16.9149 129.227 18.1855 126.424 18.1855ZM109.142 5.24122H102.603C97.6987 5.24122 95.7524 7.78239 95.7524 12.1501C95.7524 12.8648 95.8302 13.5001 95.908 14.056C96.4528 17.1531 98.2435 19.0589 102.837 19.0589H104.316V20.8061H107.585V19.0589H108.987C113.579 19.0589 115.37 17.1531 115.915 14.056C115.992 13.5001 116.071 12.8648 116.071 12.1501C115.992 7.78239 113.969 5.24122 109.142 5.24122ZM102.681 16.2795C100.423 16.2795 99.645 15.406 99.1774 14.056C99.0218 13.5795 99.0218 12.8648 99.0218 12.1501C99.0218 9.29128 100.345 8.10005 102.214 8.10005H104.238V16.2795H102.681ZM112.567 14.1354C112.101 15.4854 111.244 16.359 109.065 16.359H107.585V8.10005H109.609C111.478 8.10005 112.801 9.29128 112.801 12.1501C112.723 12.9442 112.723 13.5795 112.567 14.1354Z" fill="#939393"/>
</g>
<defs>
<clipPath id="clip0_427_3014">
<rect width="149" height="27" fill="white"/>
</clipPath>
</defs>
</svg>
