<svg width="117" height="41" viewBox="0 0 117 41" fill="none" xmlns="http://www.w3.org/2000/svg">
<g clip-path="url(#clip0_426_2965)">
<path d="M24.4339 23.4214C23.8722 24.0514 23.1393 24.498 22.3279 24.7049C21.5164 24.9118 20.6628 24.8697 19.875 24.5838C19.0871 24.2979 18.4003 23.7812 17.9014 23.0988C17.4025 22.4165 17.1138 21.5992 17.0719 20.7502C17.03 19.9012 17.2367 19.0586 17.6659 18.329C18.0952 17.5994 18.7276 17.0154 19.4833 16.6508C20.2391 16.2862 21.0843 16.1575 21.912 16.2809C22.7398 16.4042 23.513 16.7741 24.1339 17.3438C24.5475 17.7221 24.8834 18.1798 25.1224 18.6904C25.3615 19.201 25.4988 19.7546 25.5267 20.3193C25.5546 20.884 25.4724 21.4488 25.2849 21.9811C25.0973 22.5135 24.8081 23.0029 24.4339 23.4214Z" fill="#939393"/>
<path d="M22.4067 5.80461C22.7567 6.16025 23.088 6.52228 23.3817 6.88426C24.4039 8.12325 25.2458 9.50483 25.8818 10.9868C26.885 11.1769 27.9063 11.2494 28.9257 11.2027H29.2694C32.0543 10.9442 34.6535 9.67215 36.5885 7.62091L36.8447 7.35419C36.4572 6.88426 36.0635 6.42703 35.6322 5.98877C32.1898 2.50348 27.6281 0.393083 22.7807 0.0432722C17.9333 -0.306538 13.1238 1.1276 9.23118 4.08359C15.4189 1.02257 19.7128 3.131 22.4067 5.80461Z" fill="#939393"/>
<path d="M8.08074 26.673C8.20572 26.184 8.34945 25.714 8.50573 25.2758C9.0538 23.7584 9.81142 22.3279 10.7558 21.0272C10.4177 20.0504 9.96887 19.1169 9.41828 18.2456L9.31828 18.0869L9.22453 17.9535C7.62083 15.6548 5.25905 14.0167 2.568 13.3365L2.21174 13.2286C2.00548 13.8002 1.81797 14.378 1.65547 14.975C0.403152 19.7451 0.881612 24.8138 3.00344 29.2551C5.12527 33.6964 8.74884 37.2138 13.2122 39.1648C7.49317 35.2273 7.13695 30.3755 8.08074 26.673Z" fill="#939393"/>
<path d="M33.0882 28.8767C32.6069 29.01 32.1319 29.118 31.6756 29.2005C30.1089 29.4762 28.5115 29.5232 26.9317 29.3403C26.2706 30.1176 25.7002 30.97 25.2317 31.8805C25.2317 31.9377 25.1754 31.9885 25.1504 32.0456C25.1249 32.0952 25.102 32.1461 25.0817 32.1981C23.9122 34.7596 23.6903 37.6635 24.4566 40.3777C24.4566 40.4984 24.5254 40.6191 24.5629 40.7397C25.1504 40.6318 25.7442 40.5174 26.3317 40.3587C31.0152 39.071 35.088 36.1176 37.8089 32.0358C40.5299 27.9541 41.718 23.0154 41.1573 18.1186C40.6572 25.1234 36.7009 27.8542 33.0882 28.8767Z" fill="#939393"/>
<path d="M9.19719 4.08345C6.23405 6.18702 3.91755 9.09998 2.5157 12.4854C4.60002 12.9326 6.53091 13.9317 8.11263 15.3816C9.69435 16.8315 10.8707 18.6806 11.5223 20.7413C12.0786 20.3793 13.7911 19.0012 14.9412 15.2162C16.335 10.6374 18.9726 7.2588 22.404 5.78544C22.404 5.80448 18.06 -0.476341 9.19719 4.08345Z" fill="#939393"/>
<path d="M23.1131 37.05C23.1107 33.9817 24.2415 31.0242 26.282 28.7623L26.3132 28.7179C25.8945 28.267 24.4382 27.162 20.6881 28.0256C16.1191 29.0862 11.0434 28.9656 8.08074 26.673C8.08074 26.673 4.89369 33.6587 13.2127 39.152C16.4821 40.7082 20.1184 41.2917 23.7006 40.8349C23.3017 39.6146 23.1032 38.3359 23.1131 37.05Z" fill="#939393"/>
<path d="M37.3356 8.03994C36.2165 9.33234 34.8397 10.3682 33.2966 11.0788C31.7535 11.7893 30.0794 12.1584 28.3852 12.1616C27.4925 12.1583 26.6025 12.0626 25.7289 11.8758H25.6851C25.5102 12.5109 25.3726 14.3208 27.904 17.0897C31.1104 20.608 33.5292 25.1296 33.0854 28.8829C33.0854 28.8829 40.5857 28.2034 41.1545 18.1249C40.8448 14.4641 39.5207 10.9675 37.3356 8.03994Z" fill="#939393"/>
<path d="M50.4899 25.7458H48.3835V15.7689H51.7649C54.265 15.7689 55.7901 16.8104 55.7901 19.103C55.7901 21.3956 54.19 22.6276 51.5899 22.6276H50.4899V25.7458ZM50.4461 20.7415H51.5899C52.84 20.7415 53.6088 20.2461 53.6088 19.1919C53.6088 18.1377 52.9025 17.655 51.5899 17.655H50.4461V20.7415Z" fill="#939393"/>
<path d="M57.3183 20.7606C57.3183 17.4075 59.3244 15.5975 62.0311 15.5975C65.0623 15.5975 66.8186 17.5535 66.8186 20.7606C66.8186 24.3106 64.7807 25.9174 62.0868 25.9174C59.243 25.9174 57.3183 24.1328 57.3183 20.7606ZM64.5871 20.7606C64.5871 18.4934 63.562 17.4837 62.0311 17.4837C60.6434 17.4837 59.5308 18.5379 59.5308 20.7606C59.5308 22.9833 60.6686 24.0376 62.1432 24.0376C63.6184 24.0376 64.5871 22.996 64.5871 20.7606Z" fill="#939393"/>
<path d="M76.1823 25.3456C75.3619 25.7715 74.4456 25.9687 73.5259 25.9171C70.5259 25.9171 68.5258 24.1644 68.5258 20.8874C68.5258 17.4517 70.5007 15.5973 73.7133 15.5973C74.5694 15.5771 75.421 15.7371 76.2136 16.0672L75.7506 17.8645C75.1974 17.6811 74.6201 17.5805 74.0384 17.566C72.1009 17.566 70.7818 18.5503 70.7818 20.7413C70.7818 22.8497 72.0317 23.9167 74.0256 23.9167C74.6229 23.8971 75.2113 23.768 75.7635 23.5356L76.1823 25.3456Z" fill="#939393"/>
<path d="M83.8787 23.0849H79.7102L78.7599 25.7458H77.51L81.2602 15.7689H82.51L86.1855 25.7458H84.8664L83.8787 23.0849ZM80.0912 21.9163H83.4604L81.8224 17.2232H81.7666L80.0912 21.9163Z" fill="#939393"/>
<path d="M90.5268 25.7458H89.277V16.9692H86.3706V15.7689H93.4393V16.9692H90.5268V25.7458Z" fill="#939393"/>
<path d="M94.7619 20.7604C94.7619 17.585 96.574 15.629 99.1367 15.629C102.056 15.629 103.624 17.7375 103.624 20.7604C103.624 24.1517 101.749 25.8918 99.1808 25.8918C96.4869 25.8918 94.7619 23.923 94.7619 20.7604ZM102.312 20.7604C102.312 18.0232 101.105 16.823 99.1869 16.823C97.4619 16.823 96.1306 18.0931 96.1306 20.7604C96.1306 23.4277 97.4178 24.6915 99.3553 24.6915C101.174 24.6915 102.312 23.3388 102.312 20.7604Z" fill="#939393"/>
<path d="M115.853 25.7458H114.603L113.977 17.9535L111.478 25.7458H110.159L107.696 17.9789L107.071 25.7458H105.821L106.658 15.7689H108.202L110.853 24.3487L113.465 15.7689H115.009L115.853 25.7458Z" fill="#939393"/>
</g>
<defs>
<clipPath id="clip0_426_2965">
<rect width="117" height="41" fill="white"/>
</clipPath>
</defs>
</svg>
