<svg width="303" height="56" viewBox="0 0 303 56" fill="none" xmlns="http://www.w3.org/2000/svg">
<rect width="54.9795" height="56" fill="white"/>
<ellipse cx="35.1404" cy="28.0001" rx="11.5935" ry="11.8087" fill="#121212"/>
<ellipse cx="14.9392" cy="27.999" rx="6.69316" ry="6.81739" fill="#121212"/>
<path d="M293.526 11.5391H298.942V42.17H293.526V39.7092H292.682C291.395 41.5436 289.441 42.5727 286.911 42.5727H286.422C281.849 42.5727 279.052 39.4855 279.052 33.1321V29.7627C279.052 23.4094 281.849 20.3222 286.422 20.3222H286.911C289.441 20.3222 291.395 21.396 292.682 23.0962H293.526V11.5391ZM288.775 24.7964C286.111 24.7964 284.469 26.5413 284.469 29.6733V33.2216C284.469 36.3983 286.111 38.1432 288.775 38.1432H289.264C291.927 38.1432 293.526 36.3983 293.526 33.2216V29.6733C293.526 26.5413 291.927 24.7964 289.264 24.7964H288.775Z" fill="#FAFAFA"/>
<path d="M255.477 20.7252H260.893V23.3202H261.737C262.758 21.5753 264.756 20.3225 267.464 20.3225H267.952C271.904 20.3225 274.523 22.6938 274.523 28.5102V42.1702H269.062V29.6288C269.062 26.5863 267.642 25.1099 265.289 25.1099H264.8C262.447 25.1099 260.893 26.5863 260.893 29.6288V42.1702H255.477V20.7252Z" fill="#FAFAFA"/>
<path d="M244.812 20.7243H250.229V42.1693H244.812V20.7243ZM247.299 12.5675H247.698C249.43 12.5675 250.584 13.686 250.584 15.0283V15.9162C250.584 17.3032 249.43 18.4218 247.698 18.4218H247.299C245.612 18.4218 244.413 17.3032 244.413 15.9162V15.0283C244.413 13.686 245.612 12.5675 247.299 12.5675Z" fill="#FAFAFA"/>
<path d="M209.261 20.7252H214.677V23.3202H215.432C216.453 21.5753 218.362 20.3225 220.804 20.3225H221.248C223.645 20.3225 225.377 21.2621 226.442 23.3202H227.419C228.573 21.3068 230.704 20.3225 233.013 20.3225H233.457C237.63 20.3225 239.85 22.7385 239.85 28.5997V42.1702H234.389V29.2261C234.389 26.2731 233.146 25.0204 231.059 25.0204H230.616C228.529 25.0204 227.286 26.2731 227.286 29.2708V42.1702H221.825V29.2261C221.825 26.2731 220.537 25.0204 218.495 25.0204H218.051C215.965 25.0204 214.677 26.2731 214.677 29.2261V42.1702H209.261V20.7252Z" fill="#FAFAFA"/>
<path d="M189.988 14.4162H195.449V20.7248H204.595V24.8411H195.449V35.5034C195.449 37.3378 196.248 38.2774 197.669 38.2774H198.157C199.622 38.2774 200.332 37.3378 200.332 35.5034V33.4831H205.172V35.5034C205.172 40.6934 202.153 42.5726 198.068 42.5726H197.58C193.407 42.5726 189.988 40.6934 189.988 35.5034V24.8411H187.102V20.7248H189.988V14.4162Z" fill="#FAFAFA"/>
<path d="M174.576 19.7027H175.064C180.88 19.7027 184.565 22.9241 184.565 29.188V32.7226H170.18V33.5348C170.18 37.0247 171.912 38.5906 174.576 38.5906H175.064C177.683 38.5906 179.104 37.2931 179.371 34.5191H184.432C184.165 39.6197 180.924 42.5726 175.064 42.5726H174.576C168.804 42.5726 164.986 39.396 164.986 33.1321V29.188C164.986 22.9241 168.804 19.7027 174.576 19.7027ZM174.531 23.7295C171.779 23.7295 170.18 25.3402 170.18 28.4721V28.9642H179.371V28.4721C179.371 25.3402 177.639 23.7295 175.02 23.7295H174.531Z" fill="#FAFAFA"/>
<path d="M143.967 11.5391H149.384V29.2327H150.493L156.798 20.7249H162.525L155.688 29.9933V31.604L163.191 42.17H156.975L150.493 33.3937H149.384V42.17H143.967V11.5391Z" fill="#FAFAFA"/>
<path d="M129.432 20.3225H129.921C135.559 20.3225 139.066 23.4544 139.066 29.0919V29.233H133.827V29.0919C133.827 26.4969 132.584 24.7967 129.921 24.7967H129.432C126.768 24.7967 125.392 26.4969 125.392 29.584V33.3561C125.392 36.3538 126.768 38.1435 129.432 38.1435H129.921C132.54 38.1435 133.916 36.3986 133.916 33.9378V33.9309H139.155V33.9378C139.155 39.3963 135.603 42.5729 129.921 42.5729H129.432C123.749 42.5729 119.976 39.3068 119.976 33.1324V29.8077C119.976 23.5439 123.749 20.3225 129.432 20.3225Z" fill="#FAFAFA"/>
<path d="M105.767 20.3225H106.256C111.85 20.3225 115.934 23.5439 115.934 29.763V33.1324C115.934 39.3963 111.85 42.5729 106.256 42.5729H105.767C100.129 42.5729 96.0445 39.3963 96.0445 33.1324V29.763C96.0445 23.5439 100.129 20.3225 105.767 20.3225ZM105.767 24.7967C102.97 24.7967 101.461 26.4969 101.461 29.6735V33.2219C101.461 36.3986 102.97 38.1435 105.767 38.1435H106.256C109.008 38.1435 110.518 36.3986 110.518 33.2219V29.6735C110.518 26.4969 109.008 24.7967 106.256 24.7967H105.767Z" fill="#FAFAFA"/>
<path d="M71.3477 13.4319H82.2248C88.3516 13.4319 91.9477 16.2953 91.9477 21.7986V23.103C91.9477 26.7271 90.305 29.3221 87.3749 30.6196L93.1464 42.1699H87.1973L81.9141 31.5592H76.986V42.1699H71.3477V13.4319ZM76.986 18.0403V26.9508H81.6477C84.5779 26.9508 86.3981 25.6533 86.3981 22.8793V22.0223C86.3981 19.2483 84.5779 18.0403 81.6477 18.0403H76.986Z" fill="#FAFAFA"/>
</svg>
