<svg width="353" height="571" viewBox="0 0 353 571" fill="none" xmlns="http://www.w3.org/2000/svg">
<path d="M0.722732 352.267L78.3109 352.267C79.9663 352.169 81.6264 352.119 83.2889 352.12C84.5725 352.12 85.8512 352.167 87.1229 352.26L135.225 352.26C135.25 352.26 135.274 352.263 135.297 352.267L352.099 352.267C351.495 157.943 194.439 0.882944 0.441071 0.882921L0.441071 -1.54108e-05C195.017 7.63774e-06 352.52 157.6 352.981 352.535C352.982 352.543 352.984 352.552 352.984 352.561L352.984 352.595C352.993 352.631 353 352.669 353 352.709C353 352.748 352.993 352.786 352.984 352.823L352.984 353.392C352.984 353.401 352.981 353.41 352.98 353.418C352.52 473.47 255.519 570.479 135.679 570.585C135.666 570.788 135.518 570.953 135.323 570.99C135.294 570.996 135.264 571 135.234 571C134.998 571 134.808 570.815 134.795 570.582C117.234 570.503 99.853 567.005 83.6222 560.271C67.1798 553.45 52.2405 543.446 39.6581 530.833C27.0749 518.22 17.0958 503.244 10.291 486.762C3.59834 470.552 0.108257 453.197 0.00519946 435.66C0.00324634 435.643 4.19933e-05 435.626 1.14765e-05 435.609L1.15128e-05 434.778C4.20312e-05 434.759 0.00382621 434.741 0.006054 434.723C0.113202 424.059 2.25676 413.51 6.32689 403.651C10.5104 393.519 16.6449 384.313 24.3797 376.559C32.1156 368.805 41.3003 362.655 51.4082 358.462C57.4569 355.952 63.7655 354.173 70.201 353.15L0.722732 353.15C0.479202 353.15 0.281692 352.953 0.281692 352.709C0.281692 352.465 0.479202 352.267 0.722732 352.267ZM78.3342 353.15C69.2049 353.696 60.2178 355.762 51.7459 359.277C41.7452 363.427 32.6581 369.51 25.0043 377.183C17.3513 384.854 11.281 393.963 7.14174 403.988C3.05504 413.888 0.931653 424.49 0.884655 435.201C0.884716 435.22 0.885449 435.239 0.88551 435.258L83.0718 435.258L83.0718 417.921C82.9238 416.909 82.847 415.882 82.847 414.847C82.847 414.12 82.9271 413.412 83.0787 412.729L83.0787 353.15L78.3342 353.15ZM83.5128 436.165C83.5076 436.165 83.5025 436.164 83.4973 436.163L0.890697 436.163C1.05699 453.414 4.52143 470.477 11.1058 486.425C17.8664 502.8 27.7805 517.679 40.2817 530.21C52.7822 542.741 67.6246 552.679 83.9599 559.455C100.083 566.144 117.348 569.621 134.793 569.7L134.793 436.165L83.5128 436.165ZM98.3545 435.281C94.8645 434.311 91.6484 432.452 89.0429 429.84C86.7192 427.51 84.993 424.695 83.9608 421.632L83.9608 435.281L98.3545 435.281ZM83.9608 415.511L83.9608 417.906C84.6075 422.163 86.5925 426.133 89.6674 429.216C93.3783 432.935 98.3804 435.063 103.618 435.162L103.618 415.511L83.9608 415.511ZM134.784 399.721C133.601 387.857 128.368 376.702 119.883 368.197C111.1 359.393 99.4854 354.081 87.1849 353.15L83.9616 353.15L83.9616 404.04L94.0751 404.04C94.078 404.04 94.0809 404.041 94.0837 404.041L104.05 404.041C104.053 404.041 104.056 404.04 104.059 404.04L134.784 404.041L134.784 399.721ZM93.6341 405.332C88.8365 405.51 84.9291 408.683 83.9616 412.839L83.9616 414.62L93.6341 414.62L93.6341 405.332ZM83.9616 404.924L83.9616 410.313C85.2959 407.754 87.7245 405.789 90.6735 404.924L83.9616 404.924ZM93.6384 353.15C103.743 355.182 113.112 360.16 120.508 367.573C127.771 374.854 132.691 384.043 134.784 393.965L134.784 353.15L93.6384 353.15ZM94.5161 404.924L94.5161 414.628L103.618 414.628L103.618 404.924L94.5161 404.924ZM104.5 404.924L104.5 414.981C104.505 415.009 104.508 415.039 104.508 415.07L104.508 435.161C112.557 435.029 120.248 431.768 125.95 426.054C130.825 421.167 133.91 414.821 134.784 408.04L134.784 404.924L104.5 404.924ZM134.784 412.518C133.331 417.826 130.525 422.717 126.574 426.677C122.255 431.006 116.826 433.967 110.957 435.281L134.784 435.281L134.784 412.518ZM135.675 353.15L135.675 399.768C135.81 401.159 135.891 402.558 135.915 403.965L135.923 404.051L135.923 404.881C135.923 404.919 135.917 404.955 135.908 404.99C135.878 406.012 135.801 407.028 135.675 408.035L135.675 435.651C135.678 435.674 135.682 435.698 135.682 435.722L135.682 569.702C255.121 569.595 351.784 472.838 352.1 353.15L135.675 353.15Z" fill="#FFE066"/>
</svg>
