<svg width="647" height="401" viewBox="0 0 647 401" fill="none" xmlns="http://www.w3.org/2000/svg">
<path d="M399.155 399.564V311.561C399.043 309.683 398.986 307.8 398.988 305.915C398.988 304.459 399.041 303.009 399.147 301.566V247.007C399.147 246.979 399.15 246.952 399.155 246.925V1.02195C178.965 1.70684 1.00047 179.844 1.00046 399.883H0C1.64792e-05 179.19 178.577 0.543883 399.457 0.0214942C399.468 0.0208892 399.478 0.018565 399.488 0.0185631H399.526C399.567 0.00753993 399.61 0 399.655 0C399.7 0 399.743 0.00753993 399.784 0.0185631H400.429C400.439 0.0185631 400.449 0.0218754 400.459 0.0224712C536.489 0.543841 646.411 110.566 646.531 246.492C646.761 246.507 646.947 246.674 646.989 246.896C646.996 246.929 647.001 246.963 647.001 246.997C647.001 247.265 646.791 247.481 646.527 247.495C646.438 267.413 642.474 287.127 634.844 305.537C627.115 324.186 615.78 341.131 601.488 355.402C587.196 369.674 570.227 380.993 551.551 388.711C533.183 396.302 513.519 400.261 493.647 400.378C493.628 400.38 493.609 400.384 493.589 400.384H492.647C492.626 400.384 492.606 400.379 492.586 400.377C480.502 400.255 468.549 397.824 457.377 393.208C445.897 388.463 435.465 381.504 426.68 372.731C417.893 363.957 410.925 353.54 406.173 342.075C403.33 335.214 401.314 328.059 400.155 320.759V399.564C400.155 399.84 399.931 400.064 399.655 400.064C399.379 400.064 399.155 399.84 399.155 399.564ZM400.155 311.535C400.774 321.889 403.115 332.083 407.098 341.692C411.799 353.035 418.693 363.342 427.386 372.023C436.079 380.703 446.4 387.588 457.759 392.283C468.977 396.919 480.99 399.327 493.127 399.38C493.149 399.38 493.17 399.379 493.192 399.379V306.161H473.547C472.4 306.329 471.237 306.416 470.064 306.416C469.241 306.416 468.438 306.325 467.663 306.153H400.155V311.535ZM494.219 305.661C494.219 305.667 494.218 305.673 494.217 305.678V399.373C513.764 399.185 533.098 395.255 551.169 387.787C569.724 380.119 586.582 368.874 600.782 354.695C614.98 340.516 626.241 323.682 633.92 305.154C641.499 286.867 645.438 267.284 645.528 247.498H494.219V305.661ZM493.217 288.827C492.119 292.785 490.012 296.433 487.052 299.388C484.413 302.024 481.222 303.982 477.752 305.153H493.217V288.827ZM470.816 305.153H473.53C478.354 304.419 482.852 302.168 486.345 298.68C490.56 294.471 492.971 288.798 493.083 282.857H470.816V305.153ZM452.924 247.507C439.481 248.849 426.842 254.785 417.205 264.409C407.229 274.371 401.209 287.544 400.155 301.496V305.152H457.818V293.681C457.818 293.677 457.819 293.674 457.819 293.671V282.367C457.819 282.364 457.818 282.36 457.818 282.357L457.819 247.507H452.924ZM459.283 294.181C459.484 299.623 463.08 304.054 467.788 305.152H469.807V294.181H459.283ZM458.819 305.152H464.926C462.026 303.638 459.8 300.884 458.819 297.539V305.152ZM400.155 294.176C402.457 282.715 408.098 272.088 416.497 263.7C424.747 255.462 435.16 249.881 446.403 247.507H400.155V294.176ZM458.819 293.181H469.816V282.857H458.819V293.181ZM458.819 281.857H470.215C470.248 281.85 470.281 281.847 470.316 281.847H493.081C492.932 272.718 489.238 263.995 482.762 257.528C477.225 251.998 470.034 248.499 462.35 247.507H458.819V281.857ZM467.425 247.507C473.439 249.155 478.981 252.339 483.468 256.819C488.374 261.718 491.728 267.876 493.217 274.532V247.507H467.425ZM400.155 246.497H452.978C454.553 246.344 456.14 246.252 457.733 246.225L457.831 246.216H458.772C458.814 246.216 458.855 246.222 458.895 246.232C460.053 246.266 461.204 246.354 462.345 246.497H493.637C493.663 246.493 493.69 246.489 493.717 246.489H645.531C645.409 111.017 535.773 1.37951 400.155 1.02097V246.497Z" fill="#FFE066"/>
</svg>
