<svg width="68" height="45" viewBox="0 0 68 45" fill="none" xmlns="http://www.w3.org/2000/svg">
<g clip-path="url(#clip0_427_4420)">
<path d="M42.7791 44.4798L37.7357 36.2327L32.7965 44.4798H26.8835L34.48 32.0578L26.7374 20.5255H32.9148L37.8748 28.2251L42.6052 20.5255H48.5183L40.9009 32.4342L48.727 44.4798H42.7791Z" fill="#939393"/>
<path d="M67.9478 36.3371C67.9478 41.607 63.913 44.8922 58.6261 44.8922C53.9652 44.8922 50.0417 42.3599 49.6591 36.8504H54.7026C55.0504 39.2458 56.9983 40.2724 59.12 40.2724C61.7635 40.2724 62.9044 38.5272 62.9044 36.2686C62.9044 33.9074 61.1304 32.4359 58.6609 32.4359C56.6087 32.4359 55.2522 33.3941 54.6261 34.4207H49.8052L51.4713 20.5272H67.327L66.7983 25.1812H55.4557L55.0052 29.7787C55.0052 29.7787 56.1965 28.3979 59.807 28.3979C64.1565 28.3979 67.9478 31.2707 67.9478 36.3371Z" fill="#939393"/>
<path d="M50.2557 17.5432C47.5687 7.23935 39.0452 0 21.3565 0H0L2.89913 19.2867C5.08 36.6895 11.8452 42.288 23.8174 44.3498C23.873 44.3584 24.2522 44.4114 24.2574 43.9751C24.2591 43.8177 24.1583 43.6825 24.0191 43.6243C15.927 40.2724 15.0035 29.2791 13.2748 18.2481L11.9374 9.45684H24.1287C35.3687 9.45684 44.047 9.28232 49.5409 17.8186C49.6226 17.9384 49.7496 18.0274 49.9009 18.0274C50.113 18.0274 50.2713 17.858 50.2713 17.6492C50.2713 17.6116 50.2661 17.5757 50.2557 17.5432Z" fill="#939393"/>
</g>
<defs>
<clipPath id="clip0_427_4420">
<rect width="68" height="45" fill="white"/>
</clipPath>
</defs>
</svg>
