<svg width="149" height="31" viewBox="0 0 149 31" fill="none" xmlns="http://www.w3.org/2000/svg">
<g clip-path="url(#clip0_427_2999)">
<path d="M143.732 6.00778L138.683 11.7952V6.00778H135.028V20.6177H138.683V14.4667L144.088 20.6177H148.809L142.161 12.9627L148.327 6.00778H143.732Z" fill="#939393"/>
<path d="M128.584 11.4567H123.535V6.00778H119.878V20.6177H123.535V14.8572H128.584V20.6177H132.239V6.00778H128.584V11.4567Z" fill="#939393"/>
<path d="M22.5074 13.9183C22.42 16.6437 22.0767 17.1879 20.5776 17.1879V20.6177H21.1362C24.8717 20.6177 25.7696 18.6462 25.9078 14.261L26.0601 9.40632H29.562V20.6238H33.2184V6.00778H22.7613L22.5074 13.9183Z" fill="#939393"/>
<path d="M42.301 10.445H39.6602V6.00778H36.0039V20.6177H42.3497C46.3331 20.6177 47.755 17.9711 47.755 15.4804C47.755 12.2626 45.7744 10.445 42.2989 10.445M42.0186 17.3998H39.6602V13.6897H42.0206C43.2901 13.6897 44.0519 14.261 44.0519 15.4804C44.0519 16.8037 43.3166 17.3998 42.0206 17.3998" fill="#939393"/>
<path d="M59.6558 5.66897V0.245055H55.9994V5.66897C51.815 6.02418 48.9976 9.06953 48.9976 13.2949C48.9976 17.5201 51.815 20.5884 56.0014 20.9519V26.4548H59.6578V20.956C63.8442 20.6175 66.6616 17.5555 66.6616 13.2949C66.6616 9.03421 63.8442 6.00341 59.6558 5.66481M55.9994 17.4225C53.9681 17.1358 52.7005 15.5799 52.7005 13.2949C52.7005 11.0097 53.9701 9.45384 55.9994 9.16923V17.4225ZM59.6558 17.4225V9.1734C61.687 9.45801 62.9647 11.0097 62.9647 13.2949C62.9647 15.5799 61.6971 17.1358 59.6659 17.4225" fill="#939393"/>
<path d="M80.3648 16.1284V11.2176C80.3648 7.63629 78.1303 5.37822 74.3765 5.37822C70.4927 5.37822 68.437 7.76508 68.2602 10.2579H71.9653C72.0913 9.71151 72.6499 8.77671 74.3765 8.77671C75.7984 8.77671 76.7104 9.45188 76.7104 11.2176H73.0805C69.8304 11.2176 67.9048 12.9563 67.9048 15.8625C67.9048 18.9038 70.0133 20.9811 73.0561 20.9811C75.2905 20.9811 76.5256 19.9029 77.0659 19.0865C77.5473 20.0733 78.6139 20.6175 80.0093 20.6175H81.2787V17.2418C80.6185 17.2418 80.3648 16.9302 80.3648 16.1264M76.7084 15.1666C76.7084 16.8534 75.5404 17.8131 74.019 17.8131C72.6986 17.8131 71.6586 17.3208 71.6586 15.8667C71.6586 14.4125 72.8002 14.2048 73.7895 14.2048H76.7084V15.1666Z" fill="#939393"/>
<path d="M96.026 8.08284H91.9392V3.95725H101.405V0.245055H88.1084V20.6175H96.0307C100.42 20.6175 102.937 18.3864 102.937 14.2857C102.937 10.4198 100.424 8.08284 96.0307 8.08284M95.8514 16.9323H91.9392V11.6329H95.8475C97.8788 11.6329 99.0205 12.5927 99.0205 14.2795C99.0205 16.0182 97.8788 16.926 95.8475 16.926" fill="#939393"/>
<path d="M116.911 16.1284V11.2176C116.911 7.63629 114.677 5.37822 110.921 5.37822C107.045 5.38446 104.983 7.77131 104.811 10.2641H108.516C108.644 9.71775 109.202 8.78296 110.927 8.78296C112.349 8.78296 113.263 9.45813 113.263 11.2238H109.627C106.377 11.2238 104.449 12.9626 104.449 15.8687C104.449 18.9038 106.56 20.9811 109.603 20.9811C111.837 20.9811 113.07 19.9029 113.61 19.0865C114.094 20.0733 115.16 20.6175 116.555 20.6175H117.823V17.2418C117.165 17.2418 116.911 16.9302 116.911 16.1264M113.255 15.1666C113.255 16.8534 112.087 17.8131 110.563 17.8131C109.246 17.8131 108.203 17.3208 108.203 15.8667C108.203 14.4125 109.347 14.2048 110.336 14.2048H113.255V15.1666Z" fill="#939393"/>
<path d="M20.3496 26.8474H0.808594V31H20.3496V26.8474Z" fill="#939393"/>
<path d="M14.1326 3.04121C13.574 1.34195 12.9321 0 10.7322 0C8.53237 0 7.84781 1.33572 7.26279 3.04121L1.21563 20.6175H5.2254L6.6209 16.44H14.3398L15.6378 20.6175H19.9035L14.1326 3.04121ZM7.7889 12.9106L10.5291 4.57013H10.6307L13.2186 12.9106H7.7889Z" fill="#939393"/>
</g>
<defs>
<clipPath id="clip0_427_2999">
<rect width="149" height="31" fill="white"/>
</clipPath>
</defs>
</svg>
