<svg width="101" height="27" viewBox="0 0 101 27" fill="none" xmlns="http://www.w3.org/2000/svg">
<g clip-path="url(#clip0_427_3109)">
<path fill-rule="evenodd" clip-rule="evenodd" d="M0 0V25.1243L25.258 0H0Z" fill="#939393"/>
<path fill-rule="evenodd" clip-rule="evenodd" d="M1.80498 26.9187H27.063V1.7945L1.80498 26.9187Z" fill="#939393"/>
<path fill-rule="evenodd" clip-rule="evenodd" d="M41.249 12.8759C44.1858 12.8759 45.747 11.4454 45.747 8.77249V8.62141C45.747 5.76032 44.1112 4.63093 41.249 4.63093H38.2007V12.8759H41.249ZM32.216 0H41.3976C47.8657 0 51.546 2.89877 51.546 8.58424V8.73438C51.546 14.4194 47.643 17.1304 41.5833 17.1304H38.2007V26.9189H32.216V0Z" fill="#939393"/>
<path fill-rule="evenodd" clip-rule="evenodd" d="M63.4615 22.2879C66.3431 22.2879 67.8019 21.0079 67.8019 18.5605V18.4104C67.8019 16.0006 66.3431 14.6829 63.3156 14.6829H59.9602V22.2879H63.4615ZM63.6805 26.9189H54.1248V0H71.121V4.74387H59.997L59.9602 10.3908H63.8629C69.8806 10.3908 73.4548 13.0642 73.4548 18.4476V18.5986C73.4548 23.8691 70.1363 26.9189 63.6805 26.9189Z" fill="#939393"/>
<path fill-rule="evenodd" clip-rule="evenodd" d="M77.8041 0.0375937H84.0882V11.6173L93.7854 0H100.457L89.4797 12.7451L101 26.9189H93.6687L84.0882 14.8504V26.9189H77.8041V0.0375937Z" fill="#939393"/>
</g>
<defs>
<clipPath id="clip0_427_3109">
<rect width="101" height="27" fill="white"/>
</clipPath>
</defs>
</svg>
