<svg width="102" height="34" viewBox="0 0 102 34" fill="none" xmlns="http://www.w3.org/2000/svg">
<path d="M100.79 3.10838H97.5596V24.7346H100.79V3.10838Z" fill="#939393"/>
<path fill-rule="evenodd" clip-rule="evenodd" d="M94.0689 24.7347H90.8393V9.40946H94.0689V24.7347ZM92.4537 2.57077C93.6572 2.57077 94.6346 3.53452 94.6346 4.72151C94.6346 5.90851 93.6572 6.87226 92.4537 6.87226C91.2503 6.87226 90.2736 5.90851 90.2736 4.72151C90.2736 3.53452 91.2503 2.57077 92.4537 2.57077Z" fill="#939393"/>
<path fill-rule="evenodd" clip-rule="evenodd" d="M87.3479 24.7346H84.1741V23.058C83.0367 24.329 81.0319 25.1283 79.1475 25.1283C74.6397 25.1283 70.9791 21.5181 70.9791 17.0714C70.9791 12.6259 74.6397 9.01571 79.1475 9.01571C81.0319 9.01571 82.9303 9.71662 84.1741 10.954V9.40939H87.3479V24.7346ZM79.251 12.2358C82.0299 12.2358 84.2167 14.197 84.2167 17.0714C84.2167 19.9458 82.0299 21.925 79.251 21.925C76.4713 21.925 74.3586 19.8138 74.3586 17.0714C74.3586 14.3301 76.4713 12.2358 79.251 12.2358Z" fill="#939393"/>
<path fill-rule="evenodd" clip-rule="evenodd" d="M47.2753 24.7346H44.1004V9.40939H47.2753V10.48C47.9799 9.82586 49.3015 9.0181 51.1342 9.01571C53.388 9.01571 55.0674 9.95064 56.2173 11.4545C57.4757 9.96504 59.5505 9.01571 61.6643 9.01571C65.6316 9.01571 68.3356 11.6573 68.3356 15.774V24.7346H65.1606V15.774C65.1606 13.7745 63.5105 12.147 61.483 12.147C59.4544 12.147 57.8054 13.7745 57.8054 15.774V24.7346H54.6304V15.774C54.6304 13.7745 52.9803 12.147 50.9529 12.147C48.9255 12.147 47.2753 13.7745 47.2753 15.774V24.7346Z" fill="#939393"/>
<path d="M22.7549 16.8027C22.7549 19.5896 20.456 21.8567 17.6303 21.8567C14.8046 21.8567 12.5058 19.5896 12.5058 16.8027C12.5058 14.0159 14.8046 11.7487 17.6303 11.7487C20.456 11.7487 22.7549 14.0159 22.7549 16.8027ZM17.6303 0C8.23564 0 0.593262 7.53722 0.593262 16.8027C0.593262 26.0682 8.23564 33.6054 17.6303 33.6054C21.0718 33.6054 24.3904 32.5949 27.2271 30.683L27.2757 30.6493L24.9806 28.0185L24.9416 28.0425C22.7585 29.4287 20.2297 30.1609 17.6303 30.1609C10.162 30.1609 4.08586 24.1683 4.08586 16.8027C4.08586 9.4371 10.162 3.44455 17.6303 3.44455C25.0987 3.44455 31.1748 9.4371 31.1748 16.8027C31.1748 17.7569 31.0665 18.723 30.8559 19.6736C30.4276 21.4078 29.196 21.9383 28.2724 21.8687C27.3427 21.7943 26.2547 21.1414 26.2474 19.5428V16.8027C26.2474 12.1159 22.3824 8.30417 17.6303 8.30417C12.8782 8.30417 9.01326 12.1159 9.01326 16.8027C9.01326 21.4894 12.8782 25.3013 17.6303 25.3013C19.9389 25.3013 22.1037 24.4119 23.7357 22.7929C24.6849 24.2499 26.2316 25.1633 27.9925 25.3025C28.1434 25.3144 28.2979 25.3205 28.4501 25.3205C29.6901 25.3205 30.918 24.9112 31.9086 24.1707C32.9296 23.4049 33.6926 22.2996 34.1137 20.971C34.1806 20.7561 34.3047 20.2653 34.3047 20.2617L34.3084 20.2437C34.5566 19.1779 34.6674 18.1157 34.6674 16.8027C34.6674 7.53722 27.0251 0 17.6303 0Z" fill="#939393"/>
</svg>
