<svg width="173" height="33" viewBox="0 0 173 33" fill="none" xmlns="http://www.w3.org/2000/svg">
<path d="M71.0658 10.3387L69.5683 7.47291L72.1837 4.63268H70.9313L69.0688 6.68601L68.0277 4.63268H66.902L68.3072 7.35334L65.5316 10.3387H66.784L68.8067 8.14899L69.9491 10.3387H71.0658ZM74.4341 10.4414C76.2537 10.4414 77.6671 8.95271 77.6671 7.06223C77.6671 5.49655 76.4821 4.53808 74.9678 4.53808C73.1474 4.53808 71.734 6.02674 71.734 7.90921C71.734 9.48366 72.9184 10.4414 74.4341 10.4414ZM74.4936 9.55191C73.5193 9.55191 72.7664 8.92709 72.7664 7.84911C72.7664 6.47188 73.7316 5.42835 74.9082 5.42835C75.8734 5.42835 76.6347 6.06121 76.6347 7.13041C76.6347 8.50834 75.6612 9.55191 74.4936 9.55191ZM82.5139 10.3387L80.7111 7.32771L83.5891 4.63268H82.3024L79.5771 7.26754L80.1522 4.63268H79.1618L77.9186 10.3387H78.909L79.3061 8.51641L79.9575 7.89236L81.3541 10.3387H82.5139ZM87.7705 10.3387L85.9676 7.32771L88.8456 4.63268H87.559L84.8344 7.26754L85.4094 4.63268H84.419L83.1751 10.3387H84.1655L84.5626 8.51641L85.2147 7.89236L86.6113 10.3387H87.7705ZM92.2993 10.3387L92.4863 9.45803H89.6083L89.9557 7.87474H92.7735L92.9682 6.99401H90.1505L90.4712 5.51341H93.3492L93.5439 4.63268H89.6763L88.4317 10.3387H92.2993ZM94.273 10.3387L98.1414 6.11254L97.2098 10.3387H98.2093L99.4525 4.63268H98.4369L94.6541 8.74741L95.5513 4.63268H94.5609L93.317 10.3387H94.273ZM98.6828 3.58841L98.3361 3.24668C98.0055 3.59721 97.5824 3.81135 97.1342 3.81135C96.6684 3.81135 96.3462 3.58841 96.1774 3.24668L95.7124 3.58841C95.9575 4.05041 96.4401 4.34155 97.0403 4.34155C97.6504 4.34155 98.2422 4.05041 98.6828 3.58841ZM104.326 10.3387L105.571 4.63268H104.58L104.072 6.96835H101.136L101.643 4.63268H100.652L99.4084 10.3387H100.398L100.941 7.84911H103.877L103.336 10.3387H104.326ZM111.365 10.3387L112.601 4.63268H111.61L110.375 10.3387H111.365ZM106.761 4.63268L105.524 10.3387H107.988C109.681 10.3387 110.248 9.15809 110.248 8.30303C110.248 7.46406 109.655 6.76301 108.572 6.76301H107.285L107.751 4.63268H106.761ZM108.411 7.64374C108.885 7.64374 109.215 7.97739 109.215 8.39691C109.215 8.97841 108.783 9.45803 108.03 9.45803H106.701L107.1 7.64374H108.411ZM113.524 10.3387L117.391 6.11254L116.46 10.3387H117.459L118.703 4.63268H117.688L113.904 8.74741L114.801 4.63268H113.811L112.567 10.3387H113.524ZM117.933 3.58841L117.586 3.24668C117.256 3.59721 116.832 3.81135 116.384 3.81135C115.918 3.81135 115.597 3.58841 115.427 3.24668L114.962 3.58841C115.207 4.05041 115.69 4.34155 116.291 4.34155C116.901 4.34155 117.493 4.05041 117.933 3.58841ZM125.428 10.3387L123.626 7.32771L126.503 4.63268H125.217L122.491 7.26754L123.067 4.63268H122.077L120.832 10.3387H121.823L122.221 8.51641L122.873 7.89236L124.269 10.3387H125.428ZM125.699 10.4414C126.792 10.4414 127.613 10.0564 128.409 7.63566L129.111 5.51341H131.066L130.017 10.3387H131.007L132.243 4.63268H128.409L127.444 7.56671C126.877 9.25266 126.504 9.55191 125.894 9.55191L125.699 10.4414ZM132.857 10.4414C133.822 10.4414 134.356 9.95374 134.854 9.26951L138.215 4.63268H137.03L134.745 7.96054L133.916 4.63268H132.849L134.043 8.76503L134.001 8.83321C133.627 9.34654 133.399 9.55191 132.984 9.55191C132.713 9.55191 132.477 9.40671 132.316 9.22703L131.791 10.0483C131.926 10.2361 132.35 10.4414 132.857 10.4414ZM138.831 4.63268L137.594 10.3387H140.075C141.75 10.3387 142.318 9.15809 142.318 8.30303C142.318 7.46406 141.708 6.76301 140.65 6.76301H139.355L139.635 5.51341H142.513L142.698 4.63268H138.831ZM140.481 7.64374C140.954 7.64374 141.285 7.97739 141.285 8.39691C141.285 8.97841 140.853 9.45803 140.126 9.45803H138.771L139.17 7.64374H140.481Z" fill="#939393"/>
<path d="M47.9264 11.6839C49.1426 12.2332 49.7006 12.9865 49.7123 13.0024L46.9038 12.6383C46.9038 12.6383 47.1061 12.0696 47.9264 11.6839Z" fill="#939393"/>
<path d="M28.0298 15.0834L28.1317 13.625L24.0011 12.5087L32.7644 11.5083L28.0298 15.0834Z" fill="#939393"/>
<path fill-rule="evenodd" clip-rule="evenodd" d="M29.7542 1.32886C36.2363 1.68018 44.866 3.97133 48.8853 6.14707C50.4807 7.01304 50.4052 8.45871 50.254 8.81091V8.81228C53.4574 11.4428 54.9608 13.5802 55.1042 15.6944L55.1035 15.6957C55.2453 17.793 53.847 19.5905 52.9421 20.7484C52.3861 21.4605 50.9636 22.8007 50.4134 23.3375C50.7369 22.3052 51.0953 21.6406 50.7465 20.5613C50.2159 18.9194 47.1057 18.3956 43.8936 18.7593C43.6301 18.7879 43.367 18.8253 43.1043 18.8656C38.4254 23.5076 32.8932 28.5548 30.6837 30.4219C30.1581 30.8656 29.4387 31.2768 28.8581 31.3428C28.1473 31.4226 27.3399 31.1862 26.8773 30.6921C26.3925 30.1728 26.2289 29.2842 26.3048 28.4287C26.3989 27.3566 26.7682 23.0058 26.9347 20.9795C26.5011 21.344 26.0225 21.8221 24.5764 23.2306C23.4383 24.3379 19.7727 28.3025 19.7727 28.3025C19.7727 28.3025 22.603 18.7849 23.0374 17.4106C19.7507 16.6348 12.0523 14.9521 9.32134 14.3456L3.83712 13.1224C3.83712 13.1224 8.35802 11.5471 9.88495 11.1415C11.3799 10.7447 12.8663 10.3798 14.3302 10.0417L0.612793 4.04069C0.618747 4.03985 6.68579 3.18251 8.63804 2.98681C14.4716 2.40309 22.3505 2.00863 30.0763 2.37382C29.9692 2.00356 29.8172 1.50714 29.7542 1.32886ZM32.4586 21.1263L33.5284 22.0553L28.2371 24.0239C28.2371 24.0239 27.9532 27.5337 27.8787 28.3615C27.7795 29.4835 28.7089 29.8306 29.59 29.0862C31.5548 27.4244 36.1303 23.3501 40.3936 19.2626L32.4586 21.1263ZM48.4113 7.88731C37.6506 2.1233 17.7447 3.98356 7.02588 4.87309L17.1346 9.4239C21.9724 8.40755 26.4456 7.7202 30.0175 7.31683L30.0804 7.30928C29.8901 6.93398 29.7305 6.54464 29.5873 6.26089C32.2189 5.93827 38.3114 6.26089 40.7431 7.85439C43.1762 9.44639 45.3853 9.9923 47.0488 9.61246C46.9024 10.046 46.3141 10.5621 46.3046 10.5703C45.6846 10.7084 45.044 10.7287 44.4168 10.6293C43.7289 11.7927 42.0372 11.6493 39.369 13.0264C36.5181 14.4974 32.2698 16.9327 28.6037 19.6335C28.4951 20.9856 28.2662 23.614 28.2343 24.0239L33.5236 22.0553L32.4559 21.1263L36.9716 20.0648C37.7031 18.8531 43.2989 13.304 44.1836 12.6308C44.5433 12.5565 44.8415 12.4952 45.0796 12.4758C42.7469 14.5975 40.9845 16.973 40.2048 18.0695C43.6675 16.9182 50.8201 16.292 51.9756 19.8824C53.8138 17.4258 55.668 15.2809 49.5604 10.1836L48.9441 9.68102C48.9687 9.59983 48.9893 9.51984 49.0016 9.44515C49.082 8.94875 49.0473 8.22834 48.4113 7.88731ZM35.5455 8.45984C33.2486 8.63956 20.8962 9.63901 9.729 12.6822C13.335 13.3276 25.0463 16.1263 25.0463 16.1263C25.0349 16.1608 23.7618 20.0386 23.1037 22.5113C27.3772 18.6592 30.2029 16.39 37.289 12.4175C35.852 11.5903 35.3925 9.97268 35.5496 8.45984H35.5455ZM36.6542 8.38716C36.621 10.304 37.887 12.3925 40.9353 11.9218C42.0668 11.748 42.6104 11.3538 42.858 10.9468C42.6271 11.0978 42.3184 11.2214 41.8929 11.2896C39.8861 11.6174 38.9184 10.1692 38.7411 8.64017C38.0489 8.52877 37.3528 8.44431 36.6542 8.38716Z" fill="#939393"/>
<path d="M120.183 26.7484L122.234 15.9045H132.236L130.646 18.3289H124.912L123.657 24.9627C123.559 25.4526 123.297 25.8934 122.916 26.2109C122.535 26.5283 122.057 26.7031 121.564 26.7058L120.183 26.7484ZM72.7629 15.862H66.0249L65.9829 16.0321C66.6526 16.2873 67.6574 16.8403 67.113 17.691L61.3373 26.7058H63.7235C64.4764 26.7058 65.1461 26.3238 65.5645 25.6857L66.0249 24.9627H71.9259L72.3441 26.7058H75.6927L72.7629 15.862ZM67.3222 22.7517L69.9169 18.4983H70.2933L71.3404 22.7517H67.3222ZM101.389 15.862H94.6933L94.6513 16.0321C95.2788 16.2873 96.1578 16.7552 95.9064 17.5208L90.0055 26.7058H92.391C93.1447 26.7058 93.8143 26.3238 94.2331 25.6857L94.6933 24.9627H100.594L101.012 26.7058H104.361L101.389 15.862ZM95.9484 22.7517L98.5434 18.4983H98.9202L99.9666 22.7517H95.9484ZM140.354 15.862H133.658L133.574 16.0321C134.244 16.2873 135.207 16.7977 134.747 17.6484L128.929 26.7058H131.314C131.676 26.7099 132.033 26.6179 132.348 26.4389C132.664 26.2599 132.928 26.0002 133.114 25.6857L133.574 24.9627H139.475L139.894 26.7058H143.242L140.354 15.862ZM134.913 22.7517L137.508 18.4983H137.884L138.932 22.7517H134.913ZM170.777 24.5374L172.409 15.9045H160.189L160.105 16.0747C160.774 16.3299 161.569 16.7977 161.277 17.6484L158.556 24.4948H156.589L155.836 28.4497H157.217C157.711 28.4468 158.188 28.2719 158.57 27.9543C158.951 27.6367 159.212 27.1958 159.31 26.7058H169.312L168.977 28.4497H172.158L172.912 24.4948H170.777V24.5374ZM167.596 24.5374H161.987L164.541 18.1163H168.809L167.596 24.5374ZM88.6236 20.9653L88.4141 20.9227L88.4562 20.7526L88.6656 20.7101C89.0844 20.5825 89.5026 20.3698 89.796 20.0295C90.0426 19.7805 90.2338 19.4808 90.3564 19.1507C90.4789 18.8206 90.5308 18.4675 90.5077 18.1155C90.5077 16.2873 88.7917 15.9045 87.3264 15.9045H77.4493L77.366 16.0747C78.0362 16.3299 78.7058 16.7552 78.5384 17.7335L76.8217 26.7484H85.6945C87.2851 26.7484 88.4141 26.323 89.1258 25.5156C89.7078 24.833 90.0076 23.9495 89.9627 23.0487C89.9627 22.0286 89.5446 21.263 88.6236 20.9653ZM86.1967 24.027C85.8619 24.4098 85.4017 24.6224 84.8988 24.5799H80.4211L80.882 22.1137H85.2763C85.5684 22.1137 86.4894 22.1137 86.4894 23.0487C86.5315 23.389 86.4061 23.7717 86.1967 24.027ZM86.6155 19.7743C86.4782 19.9384 86.3031 20.0666 86.107 20.148C85.9102 20.2294 85.6973 20.2617 85.4851 20.2422H81.2581L81.677 18.0312H85.8619C86.6155 18.0312 86.9496 18.3282 86.9496 18.9237C86.9496 19.2214 86.8249 19.5617 86.6155 19.7743ZM116.794 15.862L115.999 19.9445H109.931L110.726 15.862H106.122C106.08 15.9045 106.08 15.9896 106.038 16.0321C106.708 16.2873 107.378 16.7127 107.21 17.691L105.494 26.7058H106.917C107.411 26.7031 107.888 26.5283 108.269 26.2109C108.65 25.8934 108.912 25.4526 109.01 24.9627L109.512 22.4107H115.581L114.744 26.7484H117.924L120.017 15.9045L116.794 15.862ZM154.457 15.862H145.083L144.999 16.0321C145.669 16.2873 146.338 16.7127 146.129 17.691L144.412 26.7058H145.794C146.287 26.703 146.765 26.5282 147.146 26.2107C147.527 25.8932 147.789 25.4526 147.887 24.9627L148.221 23.0912H153.118C154.917 23.0912 156.173 22.6241 157.01 21.6458C157.679 20.7951 158.014 19.6893 157.973 18.5841C158.056 16.7127 156.926 15.862 154.457 15.862ZM154.164 20.2848C153.829 20.7526 153.285 20.9653 152.741 20.9227H148.724L149.225 18.2013H153.16C154.038 18.2013 154.499 18.5409 154.499 19.2214C154.504 19.6031 154.386 19.9762 154.164 20.2848Z" fill="#939393"/>
</svg>
