<svg width="95" height="47" viewBox="0 0 95 47" fill="none" xmlns="http://www.w3.org/2000/svg">
<g clip-path="url(#clip0_427_3038)">
<path d="M29.6553 14.4637H35.6448V16.4882H32.7956V30.7123H29.6553V14.4637ZM39.1958 24.6124L39.7341 16.4882H39.9143L40.4525 24.6124H39.1958ZM35.7183 30.7123H38.7929L39.0838 26.397H40.5644L40.8567 30.7123H43.9299L42.2923 14.4637H37.3559L35.7183 30.7123ZM48.4274 25.0253V28.0885C48.4274 28.5014 48.7364 28.6212 48.9166 28.6212C49.2127 28.6212 49.4187 28.3682 49.4187 28.0885V24.3063C49.4187 23.8001 49.3286 23.2407 48.1569 23.2407H46.8822V21.4561H48.2084C49.0969 21.4561 49.4187 21.243 49.4187 20.2441V17.0209C49.4187 16.7412 49.2127 16.4882 48.9165 16.4882C48.7364 16.4882 48.4274 16.5947 48.4274 17.0209V19.6713H45.2857V17.3673C45.2857 16.2351 45.4144 14.4637 47.616 14.4637H50.2168C52.4185 14.4637 52.5602 16.2351 52.5602 17.3673V19.9642C52.5602 21.7356 51.3627 22.2151 50.4229 22.1751V22.335C52.5344 22.2817 52.5602 23.9596 52.5602 24.5325V27.8089C52.5602 28.9542 52.4185 30.7123 50.2168 30.7123H47.616C45.4144 30.7123 45.2857 28.954 45.2857 27.8088V25.0253H48.4274ZM54.6203 14.4637H61.8948V30.7123H58.7533V16.4882H57.7619V30.7123H54.6203V14.4637ZM67.0962 23.4005V16.4883H67.5087C67.8431 16.4883 68.0875 16.7811 68.0875 17.3007V22.588C68.0875 23.1075 67.8431 23.4003 67.5081 23.4003L67.0962 23.4005ZM63.955 30.7123H67.0962V25.1851H68.8987C71.0875 25.1851 71.2294 23.427 71.2294 22.2816V17.3673C71.2294 16.2351 71.0875 14.4637 68.8987 14.4637H63.955V30.7123ZM77.4225 28.0885C77.4225 28.3682 77.2162 28.6212 76.92 28.6212C76.74 28.6212 76.4306 28.5014 76.4306 28.0885V17.0209C76.4306 16.5947 76.74 16.4882 76.92 16.4882C77.2162 16.4882 77.4225 16.7412 77.4225 17.0209V28.0885ZM73.2894 27.8089C73.2894 28.9542 73.4306 30.7123 75.62 30.7123H78.2331C80.4219 30.7123 80.5637 28.954 80.5637 27.8088V17.3673C80.5637 16.2351 80.4225 14.4637 78.2331 14.4637H75.62C73.4312 14.4637 73.2894 16.2351 73.2894 17.3673V27.8089ZM90.7869 14.4637H94.8806V30.7123H91.7394V20.5237H91.6238L90.0012 30.7123H87.4906L85.8812 20.5237H85.7656V30.7123H82.6237V14.4637H86.705L88.7525 25.891L90.7869 14.4637ZM25.5841 8.47054C24.6224 4.11544 22.2121 0.572809 21.8799 0C21.3546 0.81235 19.4324 3.94235 18.4552 7.40504C17.3878 11.2806 17.2307 14.7168 17.5991 18.0864C17.9647 21.4692 19.3461 24.9454 19.3461 24.9454C20.0801 26.7567 21.1796 28.7144 21.8955 29.6734C22.9447 28.2617 25.3563 24.0529 26.1082 18.5658C26.5266 15.5026 26.5447 12.8257 25.5841 8.47054ZM21.8799 28.5813C21.4075 27.6624 20.6735 25.9175 20.604 23.2006C20.5859 20.5903 21.5992 18.3393 21.8955 17.8733C22.1594 18.3395 23.0323 20.2972 23.1366 22.9742C23.2074 25.5846 22.3679 27.6488 21.8799 28.5813ZM25.3048 15.8621C25.2687 17.527 25.0769 19.2851 24.8322 20.3372C24.9198 18.5259 24.71 15.9821 24.3082 13.9844C23.9065 11.9999 22.7696 8.67036 21.8621 7.13866C21.0239 8.60379 19.9911 11.4804 19.4504 13.971C18.9071 16.4615 18.8917 19.4849 18.8917 20.3905C18.7474 19.6313 18.3869 16.9011 18.4886 14.1708C18.5737 11.9201 19.0834 9.58933 19.3629 8.52383C20.4289 4.96784 21.6353 2.69038 21.8619 2.3307C22.0886 2.69038 23.6078 5.50061 24.3957 8.44387C25.1799 11.3873 25.3382 14.2106 25.3048 15.8621Z" fill="#939393"/>
<path d="M16.1989 30.686V35.7603C16.2054 35.7603 16.2106 35.747 16.2169 35.747C17.9396 33.9624 20.7336 33.9624 22.4576 35.747C24.1803 37.5184 24.1803 40.4084 22.4576 42.1932C22.4498 42.2064 22.4421 42.2064 22.4344 42.2197C22.4254 42.2197 22.4164 42.2331 22.4086 42.2464C20.6897 44.0045 18.4444 44.8834 16.1989 44.8834C13.9433 44.8834 11.6874 44.0044 9.96737 42.2197C6.93387 39.0898 6.57469 34.2286 8.88706 30.686C9.2045 30.1986 9.56625 29.7438 9.96737 29.3276C11.6874 27.543 13.9433 26.6639 16.1989 26.6639V14.4642C7.53138 14.4642 0.505371 21.7227 0.505371 30.686C0.505371 39.6493 7.53138 46.9212 16.1989 46.9212C20.7181 46.9212 24.7893 44.9366 27.6526 41.7802V30.686H16.1989ZM94.8806 35.4598H29.6548V46.9212H94.8806V35.4598ZM89.24 43.461H90.0681V41.731H89.24V43.461ZM89.24 40.4335H90.4925L91.3306 40.8661L91.5375 41.2986L91.7444 42.1636V42.596C91.7231 45.6946 89.7956 44.5603 87.77 44.7587V37.6223H89.24V40.4335ZM78.3631 37.6223V38.9197H77.3175V44.7587H75.6512V38.9197H74.6062V37.6223H78.3631ZM63.1081 42.8123H63.315L63.7288 42.596V39.5685H63.1081V42.8123ZM61.4314 39.5687H60.7998V42.596L61.2244 42.8123H61.4314V39.5687ZM63.1081 37.6223V38.271H64.1538L64.7744 38.7035L65.1988 39.1361L65.4056 40.0011V42.3799L65.1988 43.2449L64.7744 43.6774L64.1538 44.1098H63.1081V44.7585H61.4314V44.1098H60.3861L59.7546 43.6774L59.3409 43.2449L59.134 42.3799V40.0011L59.3407 39.1361L59.7546 38.7035L60.3861 38.271H61.4314V37.6223H63.1081ZM49.5152 37.6223V38.9197H48.2609V40.4335H49.5152V41.731H48.2609V43.461H49.7243V44.7585H46.5884V37.6223H49.5152ZM34.4631 40.4335H35.2994V37.6223H36.7627V44.7587H35.2994V41.731H34.4631V44.7587H32.7906V37.6223H34.4631V40.4335Z" fill="#939393"/>
</g>
<defs>
<clipPath id="clip0_427_3038">
<rect width="95" height="47" fill="white"/>
</clipPath>
</defs>
</svg>
