<svg width="153" height="27" viewBox="0 0 153 27" fill="none" xmlns="http://www.w3.org/2000/svg">
<g clip-path="url(#clip0_427_4385)">
<path fill-rule="evenodd" clip-rule="evenodd" d="M13.9975 0.000732422C20.0645 0.000732422 23.0987 0.000729121 24.9834 1.89511C26.868 3.79014 26.8682 6.83973 26.8682 12.9382V14.0632C26.8682 20.1615 26.868 23.2113 24.9834 25.1057C23.0981 27.0001 20.0646 27.0001 13.9975 27.0001H12.8786C6.81155 27.0001 3.77797 27.0001 1.89271 25.1057C0.00803525 23.2107 0.0078125 20.1615 0.0078125 14.0632V12.9382C0.0078125 6.83973 0.00800848 3.79014 1.89271 1.89511C3.77742 0.000228992 6.8116 0.000732422 12.8786 0.000732422H13.9975ZM5.32362 8.43823C4.76408 8.43823 4.65189 8.70224 4.65188 8.99465C4.65188 9.51608 5.31594 12.1025 7.74391 15.5229C9.36275 17.8589 11.6439 19.125 13.7194 19.1251C14.9644 19.1251 15.1184 18.8439 15.1184 18.3597V16.5938C15.1184 16.0314 15.2366 15.9191 15.6311 15.9191C15.9215 15.9191 16.4193 16.0655 17.5815 17.1915C18.9099 18.5262 19.129 19.125 19.8761 19.1251H21.8345C22.3946 19.1251 22.6748 18.8439 22.5136 18.2887C22.3368 17.7358 21.7017 16.9331 20.8606 15.982C20.4041 15.4399 19.7197 14.8555 19.5125 14.5635C19.2215 14.1884 19.3043 14.0209 19.5125 13.6873C19.5359 13.6541 21.8996 10.3028 22.148 9.16164C22.2721 8.7444 22.148 8.43833 21.5551 8.43823H19.596C19.0981 8.43833 18.8686 8.70227 18.7438 8.99465C18.7406 9.00258 17.7458 11.4375 16.3369 13.02C15.8802 13.479 15.6722 13.6251 15.4232 13.6251C15.2984 13.6249 15.1184 13.4785 15.1184 13.062V9.16164C15.1184 8.66114 14.974 8.43826 14.5589 8.43823H11.4803C11.1688 8.43838 10.9817 8.67014 10.9816 8.89053C10.9816 9.36474 11.6869 9.47455 11.7597 10.8086V13.7083C11.7597 14.3437 11.6463 14.4594 11.3974 14.4594C10.7332 14.4594 9.11768 12.008 8.15965 9.20356C7.97164 8.65742 7.78335 8.43825 7.28204 8.43823H5.32362Z" fill="#939393"/>
<path d="M45.8347 13.264C46.8996 12.7634 47.5862 11.9309 47.5862 10.6462C47.5862 8.69544 45.8112 7.31512 43.255 7.31512H37.3609V19.6876H43.5146C46.166 19.6876 48.0126 18.2363 48.0126 16.2615C48.0126 14.7624 47.0418 13.6447 45.8347 13.264ZM40.0827 9.57571H43.2545C44.2013 9.57571 44.8643 10.1467 44.8643 10.9313C44.8643 11.716 44.2013 12.2644 43.2545 12.2644H40.0827V9.57571ZM43.5146 17.4275H40.0827V14.4058H43.5146C44.5801 14.4058 45.2902 15.0246 45.2902 15.9285C45.2902 16.8324 44.5796 17.4275 43.5146 17.4275ZM58.1362 19.6876H61.7103L56.0528 13.264L61.2369 7.31512H57.994L53.8755 12.1215H53.2124V7.31512H50.4905V19.6876H53.2124V14.7624H53.8755L58.1362 19.6876ZM68.6578 19.9255C72.5167 19.9255 75.2388 17.2605 75.2388 13.5019C75.2388 9.74339 72.5167 7.07717 68.6578 7.07717C64.7997 7.07717 62.0779 9.74221 62.0779 13.5014C62.0779 17.2605 64.7997 19.9255 68.6578 19.9255ZM68.6578 17.4275C66.4332 17.4275 64.9184 15.8334 64.9184 13.5014C64.9184 11.1693 66.4332 9.57516 68.6578 9.57516C70.8836 9.57516 72.3983 11.1698 72.3983 13.5014C72.3983 15.8329 70.8836 17.4275 68.6578 17.4275ZM85.8429 7.31512V12.193H80.3276V7.31512H77.6056V19.6876H80.3276V14.691H85.8429V19.6876H88.5649V7.31512H85.8429ZM94.7139 19.6876H97.436V9.81366H101.697V7.31512H90.4533V9.81366H94.7139V19.6876ZM108.143 7.07717C105.753 7.07717 103.646 8.31467 103.031 10.456L105.54 10.8841C105.918 10.1225 106.77 9.40866 108.001 9.40866C109.492 9.40866 110.369 10.4797 110.487 12.0974H107.835C104.214 12.0974 102.415 13.6915 102.415 15.9757C102.415 18.2836 104.191 19.9255 106.7 19.9255C108.712 19.9255 110.061 18.7595 110.653 17.7363L111.221 19.6882H113.233V12.7391C113.233 9.14655 111.292 7.07717 108.143 7.07717ZM107.339 17.6176C106.013 17.6176 105.161 16.9275 105.161 15.857C105.161 14.9053 105.847 14.2387 107.93 14.2387H110.51C110.51 16.2615 109.232 17.6176 107.339 17.6176ZM123.832 19.6876H127.406L121.748 13.264L126.932 7.31512H123.689L119.571 12.1215H118.908V7.31512H116.186V19.6876H118.908V14.7624H119.571L123.832 19.6876ZM132.023 19.6876H134.745V9.81366H139.006V7.31512H127.762V9.81366H132.023V19.6876ZM152.506 13.3585C152.506 9.78949 149.856 7.07717 146.116 7.07717C142.375 7.07717 139.724 9.76589 139.724 13.5014C139.724 17.2369 142.375 19.9255 146.116 19.9255C148.671 19.9255 151.086 18.7122 152.009 16.3565L149.453 15.9285C148.861 16.8088 147.725 17.4275 146.281 17.4275C144.198 17.4275 142.825 16.1422 142.565 14.2387H152.459C152.482 13.9772 152.506 13.692 152.506 13.3585ZM146.116 9.45649C147.819 9.45649 149.098 10.5511 149.548 12.0974H142.73C143.18 10.5033 144.459 9.45649 146.116 9.45649Z" fill="#939393"/>
</g>
<defs>
<clipPath id="clip0_427_4385">
<rect width="153" height="27" fill="white"/>
</clipPath>
</defs>
</svg>
