<svg width="114" height="34" viewBox="0 0 114 34" fill="none" xmlns="http://www.w3.org/2000/svg">
<g clip-path="url(#clip0_426_2936)">
<path fill-rule="evenodd" clip-rule="evenodd" d="M26.9281 0H-2.66211V18.4939H4.73745C3.70615 17.1211 3.07791 15.4885 2.92316 13.7791C2.7684 12.0696 3.09325 10.3509 3.8613 8.81552C4.62934 7.28016 5.81024 5.98885 7.27156 5.08634C8.73295 4.18382 10.417 3.70578 12.135 3.70578C13.853 3.70578 15.5371 4.18382 16.9985 5.08634C18.4599 5.98885 19.6407 7.28016 20.4087 8.81552C21.1768 10.3509 21.5017 12.0696 21.3469 13.7791C21.1921 15.4885 20.5639 17.1211 19.5326 18.4939H26.9281V0Z" fill="#939393"/>
<path fill-rule="evenodd" clip-rule="evenodd" d="M7.06012 11.0963H6.95508V33.289H29.1478V33.176C23.9143 31.6267 19.152 28.795 15.2943 24.9386C11.4366 21.0824 8.60599 16.3239 7.06012 11.0963Z" fill="#939393"/>
<path fill-rule="evenodd" clip-rule="evenodd" d="M83.5894 21.1662C83.4792 21.4379 83.3845 21.7157 83.3061 21.9981C83.2062 22.2875 83.15 22.5904 83.1396 22.8965C83.1315 23.0802 83.184 23.2616 83.2898 23.4123C83.4259 23.5491 83.5946 23.6492 83.7802 23.7034C83.923 23.7391 84.0673 23.7668 84.213 23.7866L84.6539 23.8448V24.3107H80.7021V23.8448C80.9618 23.8146 81.2126 23.7355 81.4426 23.6119C81.6764 23.4975 81.8902 23.3458 82.0751 23.1627C82.2134 23.0051 82.334 22.8321 82.4324 22.647C82.5064 22.5131 82.5707 22.3741 82.624 22.231L87.7897 8.77957H88.1892L93.5302 23.8448H95.1185V24.3107H88.6634V23.8448H90.7517L89.0214 19.0782H84.446L83.6138 21.1912L83.5894 21.1662ZM86.8332 12.6894L84.554 18.5874H88.8468L86.8332 12.6894ZM110.026 9.24546H108.229V23.8448H110.026V24.3107H103.812V23.8448H105.609V9.24546H102.972C102.693 9.25316 102.415 9.27816 102.14 9.32033C101.784 9.36715 101.453 9.52428 101.192 9.76951C100.98 9.96192 100.828 10.2098 100.751 10.4849C100.683 10.7335 100.633 10.9864 100.601 11.2419C100.601 11.4915 100.542 11.7743 100.526 12.0738C100.509 12.3733 100.526 12.7476 100.526 13.1636C100.526 13.5795 100.526 14.0787 100.526 14.6443C100.526 15.21 100.526 15.8755 100.526 16.6325L100.426 20.2678C100.426 20.8501 100.426 21.3742 100.368 21.84C100.352 22.2689 100.258 22.6915 100.093 23.0879C100.007 23.3386 99.8633 23.5659 99.6739 23.752C99.4853 23.9382 99.2559 24.0782 99.0037 24.1609C98.6804 24.2843 98.3342 24.3354 97.9887 24.3107C97.317 24.34 96.6535 24.1565 96.092 23.7866C95.8553 23.6077 95.6526 23.3879 95.4935 23.1378C95.2982 22.8118 95.2028 22.4358 95.2184 22.0563C95.1991 21.5955 95.3537 21.1441 95.6511 20.7919C95.9426 20.489 96.3383 20.3078 96.7578 20.2847C97.178 20.2615 97.5907 20.3982 97.914 20.6671C98.0376 20.7834 98.1367 20.9238 98.2033 21.0799C98.2706 21.2358 98.3054 21.4039 98.3046 21.5739C98.3127 21.9585 98.2092 22.3371 98.0058 22.6636L97.789 22.9714C97.7357 23.0505 97.7039 23.1423 97.698 23.2376C97.7106 23.3482 97.7505 23.4538 97.8142 23.5454C97.8889 23.6702 98.0635 23.7367 98.3298 23.7367C98.5635 23.7339 98.7914 23.6646 98.9874 23.537C99.2471 23.3649 99.4453 23.1143 99.5526 22.8216C99.6754 22.4872 99.7516 22.1372 99.7775 21.7818C99.7775 21.3908 99.8189 20.8834 99.8359 20.2678L99.9269 16.6408C99.9269 15.8478 99.9439 15.2072 99.9772 14.7191C99.9772 14.2284 99.9772 13.8873 99.9772 13.5629V11.6412C99.9772 11.4083 99.9772 11.1255 99.9358 10.8094C99.9151 10.49 99.796 10.1847 99.594 9.93588C99.4779 9.78526 99.3343 9.65825 99.1701 9.56156C99.0222 9.46658 98.8631 9.39105 98.6959 9.33697C98.4503 9.26522 98.1944 9.23429 97.9392 9.24546H97.34V8.77957H109.993V9.24546H110.026ZM58.533 9.24546H56.578L61.2615 19.1115L64.1897 11.6246C64.2874 11.3911 64.3626 11.1487 64.4143 10.9009C64.475 10.6555 64.5112 10.4047 64.5225 10.1522C64.5301 10.0168 64.5045 9.88158 64.448 9.75834C64.3915 9.63509 64.3057 9.52761 64.198 9.44505C63.9785 9.29303 63.7164 9.21439 63.4493 9.22046H63.1166V8.74628H67.1595V9.22046C66.8437 9.21158 66.5302 9.27713 66.2444 9.41184C66.0197 9.52923 65.8124 9.6777 65.6289 9.85273C65.4716 10.0024 65.3395 10.1766 65.2379 10.3685C65.158 10.4933 65.0938 10.6273 65.0465 10.7677L61.719 19.4443C61.5277 19.9184 61.3197 20.3427 61.1368 20.717C60.9637 21.0804 60.7693 21.4332 60.5544 21.7735C60.3648 22.1013 60.1565 22.4179 59.9305 22.7218C59.7055 23.028 59.4459 23.3071 59.1569 23.5537C58.9128 23.7848 58.6316 23.9733 58.3249 24.1111C58.0188 24.2234 57.6943 24.277 57.3683 24.2691C56.9277 24.2826 56.489 24.2062 56.0789 24.0445C55.7365 23.9076 55.4167 23.7198 55.1306 23.4872C54.7553 23.2139 54.4666 22.8385 54.2987 22.4057C54.184 22.0822 54.1222 21.7423 54.1157 21.3991C54.1176 21.1879 54.1484 20.9781 54.2072 20.7752C54.2706 20.5737 54.3692 20.385 54.4983 20.2179C54.6429 20.0304 54.8299 19.8799 55.0439 19.7786C55.2579 19.6774 55.4929 19.6284 55.7295 19.6356C55.9395 19.6205 56.1503 19.6513 56.3471 19.726C56.544 19.8007 56.7221 19.9175 56.8692 20.0682C57.0962 20.2879 57.2327 20.5847 57.2519 20.9C57.2506 21.0813 57.2197 21.2611 57.1604 21.4324C57.1019 21.593 57.0207 21.7442 56.9191 21.8816C56.7482 22.118 56.5302 22.3163 56.2786 22.4639C56.1766 22.5053 56.0886 22.5751 56.0252 22.6652C55.9618 22.7551 55.9255 22.8614 55.9209 22.9714C55.9335 23.0742 55.9666 23.1735 56.018 23.2635C56.0694 23.3534 56.1382 23.4323 56.2203 23.4955C56.4938 23.7099 56.8393 23.8112 57.1853 23.7783C57.5372 23.7786 57.8835 23.6898 58.1919 23.5204C58.4996 23.3599 58.7803 23.1521 59.0238 22.9048C59.2019 22.707 59.3608 22.4925 59.4979 22.2643C59.6393 22.023 59.7309 21.865 59.7808 21.7901L53.6332 9.26203H51.9695V8.78792H58.508V9.26203L58.533 9.24546ZM51.4953 12.8641C51.4646 12.5817 51.4061 12.3031 51.3206 12.0322C51.0872 11.3233 50.6779 10.685 50.131 10.1771C49.5293 9.60299 48.7809 9.20581 47.9681 9.02916C47.1682 8.84799 46.3508 8.75589 45.5307 8.75464H38.7676V9.22882H40.5727V23.8448H38.7676V24.3107H44.99V23.8448H43.1848V18.1465H45.4974C46.4004 18.1506 47.3003 18.0416 48.1761 17.822C48.9659 17.6505 49.692 17.2615 50.2724 16.699C50.3806 16.5909 50.5054 16.4411 50.6551 16.2581C50.8093 16.0465 50.9483 15.824 51.071 15.5926C51.2148 15.3035 51.3264 14.9994 51.4038 14.6859C51.4917 14.2956 51.5335 13.8964 51.5286 13.4963C51.5286 13.3382 51.5286 13.1386 51.5286 12.8807L51.4953 12.8641ZM47.7685 16.6408C47.6139 16.8259 47.4315 16.9859 47.2278 17.115C47.0277 17.2359 46.8159 17.3363 46.5955 17.4144C46.3543 17.481 46.1213 17.5392 45.8885 17.5808C45.6555 17.6224 45.4476 17.6474 45.2479 17.664H43.1848V9.25375H44.7987C45.267 9.25286 45.7345 9.29185 46.1962 9.37019C46.6229 9.44424 47.027 9.61497 47.3775 9.86937L47.4607 9.93588L47.5355 9.98581C47.6569 10.0889 47.7682 10.2031 47.8683 10.3268C48.5676 11.2107 48.9355 12.3114 48.9082 13.4381C48.9445 14.616 48.5379 15.7648 47.7685 16.6574V16.6408ZM78.6974 8.76292H78.1152C78.093 8.96732 77.9954 9.1561 77.8415 9.29288C77.6876 9.42959 77.4894 9.50453 77.2837 9.50334C77.098 9.50127 76.9146 9.46458 76.743 9.39519L75.9107 9.09566C75.6222 8.99491 75.3278 8.91154 75.0289 8.84614C74.7101 8.79 74.3876 8.76218 74.0643 8.76292C73.613 8.75552 73.1625 8.78608 72.7165 8.85443C72.175 8.93033 71.646 9.07865 71.1442 9.29532C70.666 9.49883 70.2247 9.77986 69.8381 10.1273C69.3099 10.615 68.8533 11.1751 68.4822 11.791C68.0213 12.5249 67.6815 13.3282 67.4757 14.1702C67.2723 15.0089 67.1718 15.8692 67.1761 16.7323C67.1599 17.6764 67.2804 18.6179 67.5339 19.5274C67.7415 20.2647 68.0435 20.9721 68.4323 21.6321C68.7382 22.1269 69.1104 22.5776 69.5387 22.9714C69.9175 23.3167 70.3502 23.5977 70.8197 23.8033C71.243 24.0184 71.6978 24.1644 72.1676 24.2358C72.6373 24.2827 73.1093 24.3049 73.5812 24.3024C74.0717 24.3084 74.5614 24.2525 75.0371 24.136C75.4824 24.0243 75.9107 23.8536 76.3102 23.6285L76.959 23.2792C77.1587 23.1627 77.175 23.1128 77.3836 23.1128C77.4487 23.1071 77.5153 23.1144 77.5781 23.1344C77.641 23.1544 77.6987 23.1866 77.749 23.2293C77.8363 23.3077 77.9095 23.4005 77.9658 23.5038C78.0168 23.6043 78.056 23.7104 78.0819 23.8199C78.0923 23.9806 78.0923 24.1417 78.0819 24.3024H78.6145V19.1447H78.2069C78.2069 19.2612 78.2069 19.3777 78.2069 19.4941C78.2165 20.2547 78.0087 21.0023 77.6077 21.6487C77.5914 21.6837 77.5722 21.7172 77.5493 21.7485C77.121 22.3744 76.5514 22.8903 75.8856 23.2542C75.2805 23.6293 74.5851 23.8334 73.8727 23.8448C73.4333 23.8428 72.999 23.7464 72.6003 23.562C72.1986 23.3898 71.828 23.1538 71.5018 22.8633C71.2864 22.6702 71.0913 22.4556 70.9196 22.2227C70.6562 21.8548 70.4592 21.4438 70.3372 21.0082C70.2936 20.8829 70.2575 20.7551 70.2291 20.6255C69.9624 19.2952 69.848 17.9388 69.8881 16.5826C69.8881 13.6045 70.4703 11.6579 71.1442 10.8177C71.1442 10.7677 71.2773 10.6513 71.3106 10.6097C71.4544 10.4432 71.6068 10.2849 71.7681 10.1355C71.9456 9.96332 72.1476 9.81766 72.3673 9.70293C72.6292 9.55083 72.9081 9.43077 73.1988 9.34526C73.5627 9.25131 73.9378 9.20929 74.3136 9.22046C74.9061 9.21158 75.492 9.34873 76.0187 9.61978C76.4937 9.86079 76.9064 10.2081 77.2253 10.6347C77.3828 10.8589 77.5108 11.1021 77.6077 11.3584C77.7209 11.6489 77.8149 11.9462 77.8911 12.2485C77.9739 12.548 78.0323 12.8391 78.0819 13.0804C78.1322 13.3216 78.1566 13.5795 78.1736 13.7542H78.6478V8.77957L78.6974 8.76292Z" fill="#939393"/>
</g>
<defs>
<clipPath id="clip0_426_2936">
<rect width="113.183" height="33.289" fill="white"/>
</clipPath>
</defs>
</svg>
