<svg width="97" height="41" viewBox="0 0 97 41" fill="none" xmlns="http://www.w3.org/2000/svg">
<g clip-path="url(#clip0_427_4311)">
<path d="M41.5428 20.3774C41.5428 17.8707 41.0626 15.4797 40.2253 13.262C40.0038 20.5617 32.5015 26.2134 28.0969 29.9535H39.1219C40.663 27.0978 41.5428 23.8398 41.5428 20.3774ZM33.5726 4.30408C30.0818 1.61629 25.7051 0 20.9381 0C9.55802 0 0.33252 9.12374 0.33252 20.3774C0.33252 31.6311 9.55802 40.7546 20.9381 40.7546C26.1492 40.7546 30.8942 38.8263 34.5228 35.6708H19.6051L19.5595 31.3384C28.548 23.6107 34.0582 18.3845 34.0582 13.3365C34.0582 11.4605 33.3355 9.09307 30.0838 9.09307C27.5089 9.09307 25.025 10.5681 25.4765 16.7317H20.2376C18.9274 9.58536 22.857 3.91186 30.3541 3.91186C31.5164 3.91186 32.5916 4.04909 33.5726 4.30408Z" fill="#939393"/>
<path d="M60.6524 14.0841H65.5261C65.6927 10.418 64.4436 4.60842 56.4041 4.60842C50.4883 4.60842 46.1975 8.1109 46.1975 15.4025C46.1975 16.3913 46.2388 21.4996 46.2388 24.6717C46.2388 32.5823 51.78 34.3122 56.4455 34.3122C59.2366 34.3122 63.2772 33.6939 65.1515 31.6754V19.069H55.987V23.642H60.0697V29.2038C56.9867 30.2335 51.3629 30.6457 51.3629 23.642V15.4025C51.3629 10.4999 53.6544 8.81097 56.1949 8.81097C58.8197 8.81097 60.6524 10.1293 60.6524 14.0841ZM96.9051 26.3193C97.1132 15.0319 84.0337 18.7802 84.1581 12.4774C84.1996 10.2532 85.6576 8.81097 88.0329 8.81097C90.5735 8.81097 92.0721 10.2941 92.0307 14.167H96.8214C96.9466 10.6646 96.1136 4.69137 88.1995 4.69137C83.2836 4.69137 79.243 7.08124 79.1593 12.3953C78.9512 23.2294 92.1143 19.6869 91.907 26.2374C91.8226 28.915 89.8648 30.1095 87.6575 30.1095C85.0748 30.1095 82.9919 28.6264 83.4088 24.1772H78.5751C78.0345 30.0687 80.6587 34.2712 87.6161 34.2712C93.4894 34.2712 96.8214 31.0571 96.9051 26.3193ZM74.8987 33.8995H69.9836V5.0619H74.8987V33.8995ZM74.8987 33.8995H69.9836V5.0619H74.8987V33.8995Z" fill="#939393"/>
</g>
<defs>
<clipPath id="clip0_427_4311">
<rect width="97" height="41" fill="white"/>
</clipPath>
</defs>
</svg>
