<svg width="167" height="41" viewBox="0 0 167 41" fill="none" xmlns="http://www.w3.org/2000/svg">
<g clip-path="url(#clip0_427_3379)">
<path d="M161.671 26.9416V19.755H164.35C164.898 19.755 165.359 19.8579 165.731 20.0638C166.105 20.2697 166.388 20.5528 166.578 20.913C166.771 21.2709 166.868 21.678 166.868 22.1342C166.868 22.595 166.771 23.0044 166.578 23.3623C166.385 23.7202 166.101 24.0021 165.724 24.208C165.347 24.4115 164.884 24.5133 164.333 24.5133H162.558V23.443H164.158C164.479 23.443 164.741 23.3869 164.946 23.2746C165.151 23.1623 165.302 23.0079 165.399 22.8114C165.5 22.6149 165.55 22.3892 165.55 22.1342C165.55 21.8791 165.5 21.6546 165.399 21.4604C165.302 21.2662 165.15 21.1153 164.943 21.0077C164.738 20.8978 164.474 20.8428 164.151 20.8428H162.965V26.9416H161.671Z" fill="#939393"/>
<path d="M155.073 20.8464V19.755H160.771V20.8464H158.564V26.9416H157.28V20.8464H155.073Z" fill="#939393"/>
<path d="M148.275 26.9416V19.755H149.569V22.7973H152.878V19.755H154.176V26.9416H152.878V23.8887H149.569V26.9416H148.275Z" fill="#939393"/>
<path d="M142.506 26.9416V19.755H147.151V20.8464H143.8V22.7973H146.91V23.8887H143.8V25.8502H147.179V26.9416H142.506Z" fill="#939393"/>
<path d="M141.649 25.8537L141.555 28.6399H140.299V26.9416H139.797V25.8537H141.649ZM135.04 26.9416V19.755H136.282V25.8608H139.49V19.755H140.742V26.9416H135.04Z" fill="#939393"/>
<path d="M125.717 19.7551H127V24.6538H127.067L130.425 19.7551H131.587V26.9417H130.293V22.0466H130.233L126.864 26.9417H125.717V19.7551ZM129.344 17.9024H130.289C130.289 18.3117 130.142 18.644 129.846 18.899C129.553 19.1516 129.156 19.2779 128.653 19.2779C128.156 19.2779 127.76 19.1516 127.464 18.899C127.171 18.644 127.026 18.3117 127.028 17.9024H127.967C127.967 18.0709 128.017 18.2217 128.12 18.355C128.225 18.486 128.402 18.5516 128.653 18.5516C128.9 18.5516 129.076 18.486 129.18 18.355C129.287 18.224 129.341 18.0731 129.344 17.9024Z" fill="#939393"/>
<path d="M118.158 22.5306H119.971C120.518 22.5306 120.986 22.6207 121.377 22.8008C121.77 22.9787 122.071 23.2301 122.28 23.5553C122.489 23.8805 122.594 24.263 122.594 24.7028C122.594 25.1449 122.489 25.5344 122.28 25.8713C122.071 26.2058 121.77 26.4679 121.377 26.6573C120.986 26.8468 120.518 26.9416 119.971 26.9416H117.297V19.755H118.594V25.8748H119.971C120.26 25.8748 120.504 25.8198 120.703 25.7099C120.904 25.5999 121.055 25.4549 121.157 25.2748C121.262 25.0946 121.314 24.8993 121.314 24.6887C121.314 24.3846 121.198 24.1261 120.965 23.9132C120.735 23.698 120.404 23.5904 119.971 23.5904H118.158V22.5306ZM124.508 19.755V26.9416H123.211V19.755H124.508Z" fill="#939393"/>
<path d="M110.173 26.9416V19.755H111.467V22.7973H114.776V19.755H116.074V26.9416H114.776V23.8887H111.467V26.9416H110.173Z" fill="#939393"/>
<path d="M103.571 20.8464V19.755H109.27V20.8464H107.062V26.9416H105.779V20.8464H103.571Z" fill="#939393"/>
<path d="M97.7604 26.9416V19.755H100.438C100.987 19.755 101.448 19.8579 101.82 20.0638C102.194 20.2697 102.476 20.5528 102.667 20.913C102.86 21.2709 102.957 21.678 102.957 22.1342C102.957 22.595 102.86 23.0044 102.667 23.3623C102.474 23.7202 102.189 24.0021 101.812 24.208C101.436 24.4115 100.972 24.5133 100.421 24.5133H98.6461V23.443H100.247C100.567 23.443 100.83 23.3869 101.035 23.2746C101.239 23.1623 101.39 23.0079 101.488 22.8114C101.588 22.6149 101.638 22.3892 101.638 22.1342C101.638 21.8791 101.588 21.6546 101.488 21.4604C101.39 21.2662 101.239 21.1153 101.032 21.0077C100.826 20.8978 100.563 20.8428 100.24 20.8428H99.0543V26.9416H97.7604Z" fill="#939393"/>
<path d="M96.733 23.3484C96.733 24.1227 96.5887 24.7859 96.3008 25.338C96.0142 25.8878 95.6241 26.3089 95.1284 26.6013C94.6355 26.8937 94.0763 27.0399 93.4511 27.0399C92.8258 27.0399 92.2654 26.8937 91.7704 26.6013C91.2774 26.3065 90.8866 25.8842 90.5987 25.3345C90.3122 24.7824 90.1692 24.1204 90.1692 23.3484C90.1692 22.5741 90.3122 21.912 90.5987 21.3623C90.8866 20.8102 91.2774 20.388 91.7704 20.0955C92.2654 19.8031 92.8258 19.6569 93.4511 19.6569C94.0763 19.6569 94.6355 19.8031 95.1284 20.0955C95.6241 20.388 96.0142 20.8102 96.3008 21.3623C96.5887 21.912 96.733 22.5741 96.733 23.3484ZM95.4324 23.3484C95.4324 22.8033 95.3469 22.3437 95.1772 21.9693C95.0102 21.5927 94.7777 21.3085 94.4798 21.1167C94.1825 20.9225 93.8392 20.8254 93.4511 20.8254C93.063 20.8254 92.7203 20.9225 92.4224 21.1167C92.1244 21.3085 91.8913 21.5927 91.7216 21.9693C91.554 22.3437 91.4705 22.8033 91.4705 23.3484C91.4705 23.8935 91.554 24.3543 91.7216 24.731C91.8913 25.1052 92.1244 25.3895 92.4224 25.5837C92.7203 25.7755 93.063 25.8714 93.4511 25.8714C93.8392 25.8714 94.1825 25.7755 94.4798 25.5837C94.7777 25.3895 95.0102 25.1052 95.1772 24.731C95.3469 24.3543 95.4324 23.8935 95.4324 23.3484Z" fill="#939393"/>
<path d="M89.0009 19.755V26.9416H87.7176V20.8358H84.5927V26.9416H83.3095V19.755H89.0009Z" fill="#939393"/>
<path d="M82.1859 22.1799H80.8813C80.8446 21.9646 80.7758 21.774 80.6756 21.6079C80.5761 21.4395 80.4511 21.2967 80.3028 21.1798C80.1539 21.0628 79.9842 20.9751 79.7932 20.9167C79.6055 20.8558 79.4017 20.8254 79.1833 20.8254C78.7952 20.8254 78.4505 20.9236 78.1506 21.1202C77.8506 21.3144 77.6162 21.5997 77.4465 21.9763C77.2768 22.3506 77.192 22.808 77.192 23.3484C77.192 23.8982 77.2768 24.3613 77.4465 24.738C77.6182 25.1123 77.8533 25.3953 78.1506 25.5872C78.4505 25.7766 78.7938 25.8714 79.1799 25.8714C79.3937 25.8714 79.5934 25.8433 79.7798 25.7872C79.9675 25.7287 80.1365 25.6433 80.2855 25.531C80.4365 25.4187 80.5627 25.2807 80.6656 25.1169C80.7698 24.9532 80.8419 24.7661 80.8813 24.5555L82.1859 24.5626C82.1372 24.9041 82.031 25.2245 81.8686 25.524C81.7083 25.8235 81.4979 26.0878 81.2374 26.317C80.9769 26.544 80.6723 26.7218 80.3236 26.8504C79.9749 26.9767 79.5874 27.0399 79.1619 27.0399C78.5347 27.0399 77.9742 26.8937 77.4812 26.6013C76.9882 26.3089 76.6001 25.8866 76.3162 25.3345C76.033 24.7824 75.8907 24.1204 75.8907 23.3484C75.8907 22.5741 76.0337 21.912 76.3202 21.3623C76.6061 20.8102 76.9956 20.388 77.4879 20.0955C77.9809 19.8031 78.5393 19.6569 79.1619 19.6569C79.56 19.6569 79.9294 19.713 80.2715 19.8253C80.6128 19.9376 80.9174 20.1025 81.1853 20.3201C81.4525 20.5353 81.6723 20.7996 81.8439 21.1131C82.0183 21.4242 82.1325 21.7799 82.1859 22.1799Z" fill="#939393"/>
<path d="M74.1793 26.9416L71.8286 23.801H71.194V26.9416H69.9001V19.755H71.194V22.7096H71.518L74.057 19.755H75.6509L72.8293 23.0325L75.7725 26.9416H74.1793Z" fill="#939393"/>
<path d="M68.1593 22.8957V23.966H65.1286V22.8957H68.1593ZM63.1407 24.6222H64.4415C64.4834 25.0667 64.624 25.4035 64.8635 25.6328C65.1053 25.8621 65.4726 25.9767 65.9656 25.9767C66.3469 25.9767 66.6561 25.8807 66.8934 25.6889C67.1306 25.4947 67.3036 25.2258 67.4131 24.8818C67.522 24.538 67.5768 24.1379 67.5768 23.6817V23.0291C67.5768 22.5495 67.5153 22.1389 67.3917 21.7974C67.2688 21.4558 67.0851 21.195 66.8406 21.0149C66.5968 20.8324 66.2946 20.7412 65.9342 20.7412C65.5924 20.7412 65.3169 20.7961 65.1077 20.9061C64.8984 21.0161 64.7415 21.1752 64.6368 21.3833C64.5322 21.5892 64.4648 21.836 64.4346 22.1237H63.1337C63.1802 21.6559 63.3127 21.236 63.5313 20.864C63.7499 20.492 64.0579 20.1984 64.4555 19.9832C64.8531 19.7656 65.3459 19.6569 65.9342 19.6569C66.5317 19.6569 67.0491 19.7949 67.4859 20.071C67.9255 20.347 68.2648 20.7377 68.5046 21.243C68.7464 21.7483 68.8674 22.3424 68.8674 23.0256V23.6923C68.8674 24.3754 68.7485 24.9684 68.5113 25.4714C68.2768 25.972 67.9428 26.3592 67.5107 26.6329C67.0778 26.9043 66.5631 27.0399 65.9656 27.0399C65.3866 27.0399 64.8938 26.937 64.4869 26.7311C64.08 26.5229 63.7638 26.2375 63.5383 25.8749C63.3127 25.51 63.1802 25.0924 63.1407 24.6222Z" fill="#939393"/>
<path d="M125.957 7.99876H127.241V12.8974H127.307L130.665 7.99876H131.826V15.1853H130.532V10.2902H130.474L127.104 15.1853H125.957V7.99876ZM129.584 6.14599H130.529C130.529 6.55538 130.381 6.8876 130.086 7.14254C129.793 7.39519 129.395 7.52155 128.893 7.52155C128.396 7.52155 127.999 7.39519 127.704 7.14254C127.412 6.8876 127.266 6.55538 127.269 6.14599H128.206C128.206 6.31443 128.258 6.46532 128.36 6.59866C128.464 6.72965 128.643 6.79518 128.893 6.79518C129.14 6.79518 129.315 6.72965 129.42 6.59866C129.527 6.46766 129.582 6.31677 129.584 6.14599Z" fill="#939393"/>
<path d="M118.875 7.99863H120.158V12.8973H120.225L123.583 7.99863H124.745V15.1851H123.451V10.2901H123.392L120.023 15.1851H118.875V7.99863Z" fill="#939393"/>
<path d="M116.599 15.1851L114.249 12.0445H113.614V15.1851H112.321V7.99863H113.614V10.9533H113.939L116.478 7.99863H118.072L115.25 11.2761L118.193 15.1851H116.599Z" fill="#939393"/>
<path d="M111.333 10.4235H110.028C109.991 10.2083 109.923 10.0176 109.822 9.85149C109.722 9.68306 109.598 9.54036 109.449 9.42341C109.301 9.30646 109.131 9.21875 108.94 9.16027C108.752 9.09945 108.549 9.069 108.33 9.069C107.941 9.069 107.597 9.16726 107.297 9.3638C106.997 9.55791 106.763 9.84336 106.593 10.22C106.424 10.5943 106.339 11.0517 106.339 11.592C106.339 12.1418 106.424 12.6049 106.593 12.9816C106.765 13.3559 107 13.639 107.297 13.8308C107.597 14.0203 107.941 14.115 108.326 14.115C108.541 14.115 108.74 14.0869 108.926 14.0308C109.114 13.9723 109.283 13.8869 109.432 13.7747C109.583 13.6623 109.71 13.5244 109.812 13.3606C109.917 13.1968 109.989 13.0096 110.028 12.7991L111.333 12.8061C111.284 13.1477 111.178 13.4682 111.015 13.7676C110.854 14.067 110.644 14.3314 110.384 14.5606C110.124 14.7876 109.819 14.9654 109.47 15.0941C109.122 15.2203 108.734 15.2835 108.309 15.2835C107.682 15.2835 107.121 15.1373 106.628 14.8449C106.135 14.5525 105.747 14.1302 105.463 13.5781C105.179 13.026 105.038 12.364 105.038 11.592C105.038 10.8177 105.181 10.1556 105.466 9.6059C105.752 9.05381 106.142 8.63158 106.635 8.33913C107.128 8.04669 107.686 7.9005 108.309 7.9005C108.706 7.9005 109.076 7.95662 109.418 8.06893C109.76 8.18125 110.064 8.34612 110.331 8.56369C110.599 8.77891 110.818 9.04326 110.991 9.35674C111.165 9.66787 111.279 10.0235 111.333 10.4235Z" fill="#939393"/>
<path d="M98.1358 7.99876H99.419V12.8974H99.4858L102.844 7.99876H104.005V15.1853H102.712V10.2902H102.652L99.2834 15.1853H98.1358V7.99876ZM101.763 6.14599H102.708C102.708 6.55538 102.561 6.8876 102.265 7.14254C101.972 7.39519 101.575 7.52155 101.072 7.52155C100.575 7.52155 100.179 7.39519 99.8833 7.14254C99.59 6.8876 99.4451 6.55538 99.4471 6.14599H100.386C100.386 6.31443 100.436 6.46532 100.539 6.59866C100.643 6.72965 100.821 6.79518 101.072 6.79518C101.319 6.79518 101.494 6.72965 101.599 6.59866C101.706 6.46766 101.76 6.31677 101.763 6.14599Z" fill="#939393"/>
<path d="M91.0516 7.99863H92.3349V12.8973H92.401L95.7597 7.99863H96.9207V15.1851H95.6268V10.2901H95.568L92.1986 15.1851H91.0516V7.99863Z" fill="#939393"/>
<path d="M90.0637 10.4235H88.7591C88.7223 10.2083 88.6535 10.0176 88.5533 9.85149C88.4538 9.68306 88.3289 9.54036 88.1806 9.42341C88.0316 9.30646 87.8619 9.21875 87.6709 9.16027C87.4825 9.09945 87.2794 9.069 87.061 9.069C86.6729 9.069 86.3282 9.16726 86.0283 9.3638C85.7283 9.55791 85.4939 9.84336 85.3242 10.22C85.1545 10.5943 85.0697 11.0517 85.0697 11.592C85.0697 12.1418 85.1545 12.6049 85.3242 12.9816C85.4959 13.3559 85.731 13.639 86.0283 13.8308C86.3282 14.0203 86.6716 14.115 87.0577 14.115C87.2714 14.115 87.4712 14.0869 87.6575 14.0308C87.8452 13.9723 88.0142 13.8869 88.1632 13.7747C88.3142 13.6623 88.4404 13.5244 88.5433 13.3606C88.6475 13.1968 88.7196 13.0096 88.7591 12.7991L90.0637 12.8061C90.0149 13.1477 89.9087 13.4682 89.7464 13.7676C89.586 14.067 89.3756 14.3314 89.1151 14.5606C88.8546 14.7876 88.55 14.9654 88.2013 15.0941C87.8526 15.2203 87.4651 15.2835 87.0396 15.2835C86.4124 15.2835 85.8519 15.1373 85.3589 14.8449C84.866 14.5525 84.4778 14.1302 84.1939 13.5781C83.9107 13.026 83.7684 12.364 83.7684 11.592C83.7684 10.8177 83.9114 10.1556 84.198 9.6059C84.4839 9.05381 84.8733 8.63158 85.3656 8.33913C85.8586 8.04669 86.417 7.9005 87.0396 7.9005C87.4378 7.9005 87.8072 7.95662 88.1492 8.06893C88.4905 8.18125 88.7951 8.34612 89.0623 8.56369C89.3302 8.77891 89.55 9.04326 89.7216 9.35674C89.896 9.66787 90.0102 10.0235 90.0637 10.4235Z" fill="#939393"/>
<path d="M82.9608 10.4235H81.6562C81.6195 10.2083 81.5507 10.0176 81.4505 9.85149C81.3509 9.68306 81.2267 9.54036 81.0777 9.42341C80.9288 9.30646 80.7591 9.21875 80.5687 9.16027C80.3803 9.09945 80.1766 9.069 79.9582 9.069C79.5701 9.069 79.226 9.16726 78.9261 9.3638C78.6262 9.55791 78.391 9.84336 78.2214 10.22C78.0517 10.5943 77.9669 11.0517 77.9669 11.592C77.9669 12.1418 78.0517 12.6049 78.2214 12.9816C78.3937 13.3559 78.6282 13.639 78.9261 13.8308C79.226 14.0203 79.5687 14.115 79.9548 14.115C80.1686 14.115 80.3683 14.0869 80.5547 14.0308C80.7431 13.9723 80.9114 13.8869 81.0604 13.7747C81.2113 13.6623 81.3382 13.5244 81.4405 13.3606C81.5447 13.1968 81.6168 13.0096 81.6562 12.7991L82.9608 12.8061C82.9121 13.1477 82.8065 13.4682 82.6435 13.7676C82.4832 14.067 82.2728 14.3314 82.0123 14.5606C81.7517 14.7876 81.4471 14.9654 81.0984 15.0941C80.7497 15.2203 80.363 15.2835 79.9375 15.2835C79.3095 15.2835 78.7491 15.1373 78.2561 14.8449C77.7631 14.5525 77.375 14.1302 77.0911 13.5781C76.8079 13.026 76.6663 12.364 76.6663 11.592C76.6663 10.8177 76.8092 10.1556 77.0951 9.6059C77.381 9.05381 77.7705 8.63158 78.2634 8.33913C78.7564 8.04669 79.3142 7.9005 79.9375 7.9005C80.3349 7.9005 80.7043 7.95662 81.0463 8.06893C81.3877 8.18125 81.6923 8.34612 81.9602 8.56369C82.2274 8.77891 82.4471 9.04326 82.6188 9.35674C82.7932 9.66787 82.9074 10.0235 82.9608 10.4235Z" fill="#939393"/>
<path d="M75.8186 11.592C75.8186 12.3663 75.6743 13.0295 75.3864 13.5816C75.1005 14.1314 74.7097 14.5525 74.2147 14.8449C73.7217 15.1373 73.1626 15.2835 72.5373 15.2835C71.9114 15.2835 71.351 15.1373 70.856 14.8449C70.363 14.5502 69.9729 14.1279 69.6843 13.5781C69.3984 13.026 69.2555 12.364 69.2555 11.592C69.2555 10.8177 69.3984 10.1556 69.6843 9.6059C69.9729 9.05381 70.363 8.63158 70.856 8.33913C71.351 8.04669 71.9114 7.9005 72.5373 7.9005C73.1626 7.9005 73.7217 8.04669 74.2147 8.33913C74.7097 8.63158 75.1005 9.05381 75.3864 9.6059C75.6743 10.1556 75.8186 10.8177 75.8186 11.592ZM74.518 11.592C74.518 11.0469 74.4331 10.5873 74.2635 10.213C74.0958 9.8363 73.8633 9.55206 73.5661 9.36023C73.2681 9.16612 72.9255 9.069 72.5373 9.069C72.1486 9.069 71.8059 9.16612 71.508 9.36023C71.2107 9.55206 70.9769 9.8363 70.8072 10.213C70.6396 10.5873 70.5561 11.0469 70.5561 11.592C70.5561 12.1371 70.6396 12.598 70.8072 12.9746C70.9769 13.3489 71.2107 13.6331 71.508 13.8273C71.8059 14.0191 72.1486 14.115 72.5373 14.115C72.9255 14.115 73.2681 14.0191 73.5661 13.8273C73.8633 13.6331 74.0958 13.3489 74.2635 12.9746C74.4331 12.598 74.518 12.1371 74.518 11.592Z" fill="#939393"/>
<path d="M63.3137 15.1851V7.99863H65.9922C66.5408 7.99863 67.001 8.10153 67.373 8.30741C67.7478 8.51328 68.0297 8.79632 68.2207 9.15658C68.4138 9.51455 68.51 9.9216 68.51 10.3778C68.51 10.8386 68.4138 11.248 68.2207 11.606C68.0277 11.9639 67.7431 12.2458 67.3664 12.4516C66.9896 12.6552 66.5258 12.7569 65.9747 12.7569H64.1996V11.6866H65.8004C66.1212 11.6866 66.3839 11.6305 66.5885 11.5182C66.7931 11.4059 66.9442 11.2515 67.0417 11.055C67.1419 10.8585 67.192 10.6328 67.192 10.3778C67.192 10.1228 67.1419 9.89821 67.0417 9.70403C66.9442 9.50985 66.7919 9.35896 66.585 9.25135C66.3805 9.14139 66.1165 9.08641 65.7934 9.08641H64.6077V15.1851H63.3137Z" fill="#939393"/>
<path d="M66.2647 0L64.3173 4.16373L58.7186 0H66.2647Z" fill="#939393"/>
<path d="M46.0596 0.244829L49.224 4.89841L37.0531 3.67379L46.0596 0.244829Z" fill="#939393"/>
<path d="M51.9034 9.30714L58.9625 17.6346L41.9231 24.7375L51.9034 9.30714Z" fill="#939393"/>
<path d="M17.8245 11.7564L26.8311 7.59266L17.8245 18.3693V11.7564Z" fill="#939393"/>
<path d="M29.2644 0H33.8894L26.5868 2.69418L29.2644 0Z" fill="#939393"/>
<path d="M29.0188 13.2258L38.5122 9.55193L41.1898 14.4505L30.4793 18.8591L29.0188 13.2258Z" fill="#939393"/>
<path d="M17.8245 23.758L25.614 25.7174L33.8903 27.6767L17.8245 34.2897V23.758Z" fill="#939393"/>
<path d="M36.8104 37.7186L53.6064 30.6158L51.4156 35.2693L48.9813 40.4128L36.8104 37.7186Z" fill="#939393"/>
<path d="M0.540039 30.3706L8.32946 22.0431L7.35578 31.8402L0.540039 30.3706Z" fill="#939393"/>
</g>
<defs>
<clipPath id="clip0_427_3379">
<rect width="167" height="41" fill="white"/>
</clipPath>
</defs>
</svg>
