<svg preserveAspectRatio="xMidYMid meet" width="200" height="45" viewBox="0 0 199.929 45" fill="none" xmlns="http://www.w3.org/2000/svg">
<g id="Group">
<g id="Group 859">
<path id="Vector" d="M0 22.1061H2.92679C3.1154 17.0591 5.26219 12.2682 8.93613 8.69532C12.6101 5.12235 17.5392 3.03183 22.734 2.84342V0C16.7668 0.200543 11.1005 2.59454 6.88034 6.69811C2.66024 10.8017 0.201106 16.3087 0 22.1061Z" fill="var(--fill-0, #F0F0F0)"/>
<path id="Vector_2" d="M24.2185 0V1.26562H24.1953V2.84342C29.3898 3.03248 34.3186 5.12322 37.9923 8.69604C41.6661 12.2688 43.8132 17.0594 44.0024 22.1061H46.9497C46.7491 16.309 44.2906 10.8019 40.0709 6.69828C35.8513 2.59467 30.1854 0.200582 24.2185 0Z" fill="var(--fill-0, #F0F0F0)"/>
<path id="Vector_3" d="M2.37937 23.6696H0.708984C0.911229 29.052 3.13092 34.1771 6.95048 38.0807L8.10846 36.9249C4.6106 33.3256 2.57505 28.616 2.37937 23.6696Z" fill="var(--fill-0, #F0F0F0)"/>
<path id="Vector_4" d="M22.7898 45V43.3772C17.7072 43.2214 12.8552 41.2799 9.13432 37.9125L7.95898 39.0659C11.9926 42.7341 17.2668 44.8446 22.7898 45Z" fill="var(--fill-0, #F0F0F0)"/>
<path id="Vector_5" d="M44.6518 23.6696H46.3193C46.1208 29.0485 43.9064 34.1715 40.0922 38.0752L38.9199 36.9194C42.417 33.3217 44.4537 28.6144 44.6518 23.6696Z" fill="var(--fill-0, #F0F0F0)"/>
<path id="Vector_6" d="M24.2383 45V43.3772C29.3209 43.2214 34.1728 41.2799 37.8938 37.9125L39.066 39.0659C35.0333 42.7337 29.7602 44.8439 24.2383 45Z" fill="var(--fill-0, #F0F0F0)"/>
</g>
<path id="Vector_7" d="M189.404 17.6084L197.188 5.15513H199.148V23.9615H197.161V8.72522L190.122 19.9416H188.714L181.703 8.75336V23.9615H179.715V5.15513H181.647L189.404 17.6084Z" fill="var(--fill-0, #F0F0F0)"/>
<path id="Vector_8" d="M175.955 23.9615H173.498L168.695 17.3553H163.533V23.9615H161.518V5.15512H169.661C171.483 5.15512 172.973 5.72669 174.133 6.8699C175.31 8.01307 175.899 9.4655 175.899 11.2271C175.899 12.8013 175.43 14.1226 174.492 15.1908C173.571 16.2403 172.357 16.8868 170.848 17.1305L175.955 23.9615ZM169.357 6.95422H163.533V15.5562H169.109C170.526 15.5562 171.667 15.1814 172.532 14.4318C173.415 13.6634 173.857 12.6233 173.857 11.3115C173.857 10.0558 173.433 9.01571 172.587 8.19113C171.759 7.36652 170.682 6.95422 169.357 6.95422Z" fill="var(--fill-0, #F0F0F0)"/>
<path id="Vector_9" d="M148.471 24.2709C145.784 24.2709 143.549 23.3526 141.763 21.516C139.997 19.6607 139.113 17.3462 139.113 14.5726C139.113 11.799 140.006 9.48447 141.791 7.62915C143.576 5.7738 145.803 4.84615 148.471 4.84615C151.14 4.84615 153.357 5.7738 155.124 7.62915C156.89 9.48447 157.774 11.799 157.774 14.5726C157.774 17.3462 156.89 19.6607 155.124 21.516C153.357 23.3526 151.14 24.2709 148.471 24.2709ZM148.471 22.3594C150.514 22.3594 152.234 21.6098 153.633 20.1105C155.05 18.5925 155.759 16.7465 155.759 14.5726C155.759 12.3799 155.05 10.534 153.633 9.03471C152.234 7.51669 150.514 6.75771 148.471 6.75771C146.41 6.75771 144.671 7.51669 143.254 9.03471C141.837 10.534 141.129 12.3799 141.129 14.5726C141.129 16.7465 141.837 18.5925 143.254 20.1105C144.671 21.6098 146.41 22.3594 148.471 22.3594Z" fill="var(--fill-0, #F0F0F0)"/>
<path id="Vector_10" d="M137.224 5.15513V7.01044H126.79V13.6728H136.479V15.5H126.79V23.9615H124.775V5.15513H137.224Z" fill="var(--fill-0, #F0F0F0)"/>
<path id="Vector_11" d="M113.447 23.9615V6.98233H107.264V5.15512H121.673V6.98233H115.49V23.9615H113.447Z" fill="var(--fill-0, #F0F0F0)"/>
<path id="Vector_12" d="M108.422 23.9615H106.213L104.308 18.9858H95.1992L93.267 23.9615H91.0586L98.7326 5.15512H100.886L108.422 23.9615ZM103.646 17.1867L99.8368 7.17912L95.8619 17.1867H103.646Z" fill="var(--fill-0, #F0F0F0)"/>
<path id="Vector_13" d="M89.9889 23.9615H77.8711V5.15512H79.9138V22.1061H89.9889V23.9615Z" fill="var(--fill-0, #F0F0F0)"/>
<path id="Vector_14" d="M68.0588 5.15514C69.9725 5.15514 71.5277 5.74547 72.7238 6.92613C73.9199 8.10679 74.5182 9.62481 74.5182 11.4801C74.5182 13.373 73.9107 14.9097 72.696 16.0904C71.4999 17.271 69.8991 17.8614 67.8931 17.8614H61.9859V23.9615H59.9707V5.15514H68.0588ZM61.9859 16.0623H67.7C69.117 16.0623 70.2579 15.6406 71.1226 14.7973C72.0062 13.9352 72.4477 12.8389 72.4477 11.5082C72.4477 10.1777 72.0244 9.0907 71.1778 8.24736C70.3316 7.40403 69.2182 6.98234 67.8379 6.98234H61.9859V16.0623Z" fill="var(--fill-0, #F0F0F0)"/>
<path id="Vector_15" d="M194.358 39.7378V28.3652H190.17V27.1413H199.929V28.3652H195.741V39.7378H194.358Z" fill="var(--fill-0, #F0F0F0)"/>
<path id="Vector_16" d="M186.711 39.7378V27.1413H188.094V39.7378H186.711Z" fill="var(--fill-0, #F0F0F0)"/>
<path id="Vector_17" d="M177.887 33.449L184.954 39.7378H183.103L176.485 33.9009V39.7378H175.102V27.1413H176.485V33.1101L182.935 27.1413H184.692L177.887 33.449Z" fill="var(--fill-0, #F0F0F0)"/>
<path id="Vector_18" d="M166.221 37.5535V27.1413H167.549V39.7378H166.278L158.444 29.3255V39.7378H157.117V27.1413H158.426L166.221 37.5535Z" fill="var(--fill-0, #F0F0F0)"/>
<path id="Vector_19" d="M148.285 39.9458C146.465 39.9458 144.951 39.3307 143.742 38.1005C142.546 36.8578 141.947 35.3077 141.947 33.4499C141.947 31.5921 142.552 30.0419 143.76 28.7992C144.969 27.5564 146.478 26.9351 148.285 26.9351C150.092 26.9351 151.594 27.5564 152.79 28.7992C153.987 30.0419 154.585 31.5921 154.585 33.4499C154.585 35.3077 153.987 36.8578 152.79 38.1005C151.594 39.3307 150.092 39.9458 148.285 39.9458ZM148.285 38.6654C149.668 38.6654 150.833 38.1635 151.781 37.1593C152.74 36.1423 153.22 34.9061 153.22 33.4499C153.22 31.9812 152.74 30.7448 151.781 29.7406C150.833 28.7238 149.668 28.2154 148.285 28.2154C146.889 28.2154 145.711 28.7238 144.751 29.7406C143.792 30.7448 143.312 31.9812 143.312 33.4499C143.312 34.9061 143.792 36.1423 144.751 37.1593C145.711 38.1635 146.889 38.6654 148.285 38.6654Z" fill="var(--fill-0, #F0F0F0)"/>
<path id="Vector_20" d="M138.074 39.7378V27.1413H139.458V39.7378H138.074Z" fill="var(--fill-0, #F0F0F0)"/>
<path id="Vector_21" d="M130.406 39.7378V28.3652H126.219V27.1413H135.978V28.3652H131.79V39.7378H130.406Z" fill="var(--fill-0, #F0F0F0)"/>
<path id="Vector_22" d="M127.002 39.7378H125.506L124.216 36.405H118.047L116.738 39.7378H115.242L120.44 27.1413H121.898L127.002 39.7378ZM123.767 35.2L121.187 28.497L118.495 35.2H123.767Z" fill="var(--fill-0, #F0F0F0)"/>
<path id="Vector_23" d="M109.92 38.1939L114.22 27.1413H115.734L110.668 39.7378H109.116L104.068 27.1413H105.583L109.92 38.1939Z" fill="var(--fill-0, #F0F0F0)"/>
<path id="Vector_24" d="M96.9977 39.9458C95.1781 39.9458 93.6638 39.3307 92.4548 38.1005C91.2584 36.8578 90.6602 35.3077 90.6602 33.4499C90.6602 31.5921 91.2648 30.0419 92.4737 28.7992C93.6827 27.5564 95.1905 26.9351 96.9977 26.9351C98.8049 26.9351 100.307 27.5564 101.503 28.7992C102.7 30.0419 103.298 31.5921 103.298 33.4499C103.298 35.3077 102.7 36.8578 101.503 38.1005C100.307 39.3307 98.8049 39.9458 96.9977 39.9458ZM96.9977 38.6654C98.3812 38.6654 99.5467 38.1635 100.494 37.1593C101.453 36.1423 101.933 34.9061 101.933 33.4499C101.933 31.9812 101.453 30.7448 100.494 29.7406C99.5467 28.7238 98.3812 28.2154 96.9977 28.2154C95.6017 28.2154 94.4241 28.7238 93.4643 29.7406C92.5047 30.7448 92.0248 31.9812 92.0248 33.4499C92.0248 34.9061 92.5047 36.1423 93.4643 37.1593C94.4241 38.1635 95.6017 38.6654 96.9977 38.6654Z" fill="var(--fill-0, #F0F0F0)"/>
<path id="Vector_25" d="M86.8249 37.5535V27.1413H88.1525V39.7378H86.8812L79.0479 29.3255V39.7378H77.7207V27.1413H79.0294L86.8249 37.5535Z" fill="var(--fill-0, #F0F0F0)"/>
<path id="Vector_26" d="M73.0226 37.5535V27.1413H74.3498V39.7378H73.0789L65.2456 29.3255V39.7378H63.918V27.1413H65.2267L73.0226 37.5535Z" fill="var(--fill-0, #F0F0F0)"/>
<path id="Vector_27" d="M59.1877 39.7378V27.1413H60.5712V39.7378H59.1877Z" fill="var(--fill-0, #F0F0F0)"/>
</g>
</svg>
