<svg width="168" height="34" viewBox="0 0 168 34" fill="none" xmlns="http://www.w3.org/2000/svg">
<g clip-path="url(#clip0_427_4434)">
<path d="M32.2129 30.3803L26.8808 21.2522H29.4032L33.3198 28.0194L36.5234 21.2522H38.8011L34.3416 30.482C33.3518 32.5172 32.4258 33.0464 31.1912 33.0464C30.7123 33.0464 30.2334 32.9549 29.7757 32.7818V30.6143C30.1375 30.9196 30.6165 31.0824 31.0954 31.0824C31.5531 31.0824 31.9363 30.9094 32.2129 30.3803Z" fill="#0A0A0A"/>
<path d="M50.5021 27.9418H43.9306V33.0464H41.7821V21.2522H43.9306V26.007H50.5021V21.2522H52.6507V33.0464H50.5021V27.9418Z" fill="#0A0A0A"/>
<path d="M57.9465 30.0618L65.0285 21.2522H67.5553V33.0464H65.2324V24.103L58.1165 33.0464H55.635V21.2522H57.9578V30.0618H57.9465Z" fill="#0A0A0A"/>
<path d="M70.5318 33.0362V21.2522H75.9465C78.7193 21.2522 80.1435 22.2291 80.1435 24.1828C80.1435 25.5298 79.5776 26.4244 78.2947 26.8974C79.8281 27.1545 80.5238 28.0799 80.5238 29.6121C80.5238 32.049 78.6758 33.0464 75.642 33.0464L70.5318 33.0362ZM75.6203 26.2393C77.0225 26.2393 77.9144 25.6532 77.9144 24.6352C77.9144 23.6893 77.2508 23.1854 75.6746 23.1854H72.7607V26.2291H75.6203V26.2393ZM75.7834 31.103C77.4906 31.103 78.2734 30.5786 78.2734 29.4578C78.2734 28.337 77.3814 27.8846 75.816 27.8846H72.7499V31.0927L75.7834 31.103Z" fill="#0A0A0A"/>
<path d="M91.5759 27.9476H85.7593V31.1099H92.448V33.0464H83.5073V21.2522H92.2494V23.1888H85.7593V26.0008H91.5759V27.9476Z" fill="#0A0A0A"/>
<path d="M97.7056 29.3723V33.0464H95.4246V21.2522H99.675C103.703 21.2522 105.417 22.5799 105.417 25.2454C105.417 27.9933 103.414 29.3723 99.675 29.3723H97.7056ZM97.7056 23.187V27.4375H99.8423C101.956 27.4375 103.046 26.7994 103.046 25.1939C103.046 23.7428 102.101 23.187 99.8751 23.187H97.7056Z" fill="#0A0A0A"/>
<path d="M118.202 32.0032C117.601 32.7525 116.005 33.5669 113.915 33.5669C109.974 33.5452 107.344 31.1455 107.344 27.1278C107.344 23.3815 109.943 20.7321 113.946 20.7321C115.847 20.7321 117.252 21.3402 117.96 21.8505V24.9452C117.041 23.5987 115.551 22.7843 113.946 22.7734C111.305 22.7734 109.679 24.5325 109.679 27.1495C109.679 29.571 111.115 31.4712 113.904 31.5255C116.016 31.5255 117.494 30.5265 118.213 29.2669L118.202 32.0032Z" fill="#0A0A0A"/>
<path d="M123.345 30.0618L129.899 21.2522H132.238V33.0464H130.088V24.103L123.491 33.0464H121.194V21.2522H123.345V30.0618Z" fill="#0A0A0A"/>
<path d="M145.036 23.187H140.715V33.0464H138.42V23.187H134.167V21.2522H145.036V23.187Z" fill="#0A0A0A"/>
<path d="M155.205 27.9476H149.389V31.1099H156.077V33.0464H147.137V21.2522H155.879V23.1888H149.389V26.0008H155.205V27.9476Z" fill="#0A0A0A"/>
<path d="M167.998 23.187H163.607V33.0464H161.276V23.187H156.954V21.2522H167.998V23.187Z" fill="#0A0A0A"/>
<path d="M59.9683 7.43636L62.6452 5.46894H53.705V17.2631H62.6452V15.306H56.2579V12.2776H61.7047V10.3205H56.2579V7.43636H59.9683Z" fill="#0A0A0A"/>
<path d="M46.2724 10.0733H43.2322V7.43636H48.0965L50.7212 5.46894H40.7291V17.2631H45.9582C48.8869 17.2631 50.5692 15.9138 50.5692 13.5549C50.5692 11.3094 49.0389 10.0733 46.2724 10.0733ZM45.8366 15.306H43.2322V12.0407H45.8468C47.4378 12.0407 48.1775 12.5867 48.1775 13.6785C48.1674 14.7807 47.3871 15.306 45.8366 15.306Z" fill="#0A0A0A"/>
<path d="M69.9959 5.46894H64.5719V17.2631H67.4164V13.9257H69.9959C73.4622 13.9257 75.6157 12.2983 75.6157 9.69221C75.6157 7.08614 73.4622 5.46894 69.9959 5.46894ZM69.9383 11.9583H67.4164V7.43636H69.9383C71.7579 7.43636 72.7597 8.23981 72.7597 9.70249C72.7597 11.1652 71.7579 11.9583 69.9383 11.9583Z" fill="#0A0A0A"/>
<path d="M35.5321 14.4394C34.8586 14.8165 34.0919 15.0213 33.3252 15.0106C31.0147 15.0106 29.3466 13.2972 29.3466 10.9374C29.3466 8.57746 31.0251 6.86413 33.3252 6.86413C34.1541 6.85336 34.9726 7.11197 35.6564 7.61844L37.4903 6.20681L37.366 6.09905C36.2988 5.11847 34.8586 4.60123 33.2216 4.60123C31.4499 4.60123 29.8336 5.22623 28.6836 6.35767C27.5335 7.48912 26.8808 9.10545 26.8808 10.8727C26.8808 12.6399 27.5128 14.2778 28.6732 15.4415C29.8336 16.6053 31.4395 17.2627 33.2009 17.2627C35.0451 17.2627 36.651 16.5946 37.7493 15.3769L36.0915 14.1054L35.5321 14.4394Z" fill="#0A0A0A"/>
<path d="M20.9231 10.9306C20.9231 10.3121 20.8683 9.6935 20.7586 9.08573L18.5103 10.7245C18.5103 10.7895 18.5103 10.8655 18.5103 10.9414C18.5103 15.3258 14.9239 18.8853 10.4931 18.8962C6.06218 18.907 2.46486 15.3475 2.45389 10.9632C2.45389 6.55718 6.04025 2.99766 10.4821 2.99766C12.1053 2.99766 13.6846 3.47515 15.0226 4.38674L17.0516 2.91084C12.5659 -0.681243 5.99638 0.0132977 2.37712 4.45185C-1.24214 8.89042 -0.540227 15.38 3.94547 18.9612C8.43117 22.5425 15.0007 21.848 18.609 17.4094C20.1115 15.5753 20.9231 13.2856 20.9231 10.9306Z" fill="#0A0A0A"/>
<path d="M18.5839 4.60123C19.0915 5.22086 19.52 5.90458 19.8696 6.62035L10.1034 13.4469L6.02095 11.0218V8.10532L10.1034 10.5303L18.5839 4.60123Z" fill="#0A0A0A"/>
</g>
<defs>
<clipPath id="clip0_427_4434">
<rect width="168" height="34" fill="white"/>
</clipPath>
</defs>
</svg>
