<svg width="920" height="569" viewBox="0 0 920 569" fill="none" xmlns="http://www.w3.org/2000/svg">
<path d="M919.363 0V568.5H701.863" stroke="#404040"/>
<path d="M567.491 567.835V442.771C567.332 440.103 567.251 437.427 567.253 434.747C567.253 432.678 567.33 430.617 567.479 428.567V351.031C567.479 350.991 567.484 350.952 567.491 350.914V1.45233C254.44 2.42565 1.4224 255.583 1.42238 568.289H0C2.34289e-05 254.653 253.889 0.772932 567.921 0.0305462C567.935 0.0296864 567.95 0.0263834 567.964 0.0263808H568.018C568.077 0.0107153 568.138 0 568.202 0C568.265 0 568.326 0.0107153 568.385 0.0263808H569.302C569.316 0.0263808 569.331 0.031088 569.345 0.0319346C762.743 0.772873 919.022 157.13 919.193 350.299C919.52 350.32 919.785 350.558 919.845 350.873C919.854 350.919 919.861 350.968 919.861 351.017C919.861 351.397 919.563 351.704 919.188 351.724C919.061 380.031 913.425 408.047 902.578 434.21C891.589 460.713 875.473 484.794 855.154 505.075C834.834 525.358 810.709 541.443 784.158 552.412C758.043 563.2 730.086 568.826 701.833 568.992C701.806 568.995 701.779 569 701.751 569H700.412C700.382 569 700.354 568.994 700.325 568.99C683.145 568.818 666.151 565.362 650.268 558.802C633.945 552.058 619.115 542.17 606.624 529.702C594.132 517.233 584.225 502.428 577.469 486.135C573.427 476.385 570.561 466.216 568.913 455.843V567.835C568.913 568.228 568.594 568.546 568.202 568.546C567.809 568.546 567.491 568.228 567.491 567.835ZM568.913 442.733C569.792 457.449 573.121 471.935 578.783 485.591C585.468 501.711 595.268 516.359 607.628 528.696C619.987 541.032 634.661 550.816 650.811 557.488C666.759 564.076 683.839 567.498 701.094 567.574C701.125 567.574 701.155 567.573 701.186 567.573V435.097H673.256C671.626 435.335 669.972 435.459 668.304 435.459C667.134 435.459 665.992 435.33 664.892 435.086H568.913V442.733ZM702.647 434.386C702.647 434.394 702.645 434.403 702.644 434.411V567.564C730.434 567.296 757.923 561.712 783.614 551.099C809.994 540.201 833.962 524.221 854.15 504.07C874.336 483.921 890.346 459.996 901.264 433.665C912.039 407.677 917.64 379.847 917.767 351.728H702.647V434.386ZM701.222 410.463C699.661 416.088 696.665 421.272 692.457 425.472C688.705 429.218 684.169 432 679.235 433.664H701.222V410.463ZM669.374 433.664H673.233C680.09 432.621 686.486 429.422 691.451 424.465C697.444 418.484 700.872 410.421 701.032 401.979H669.374V433.664ZM643.936 351.742C624.824 353.648 606.855 362.084 593.153 375.761C578.97 389.918 570.412 408.64 568.913 428.467V433.662H650.894V417.361C650.894 417.356 650.896 417.351 650.896 417.347V401.282C650.896 401.278 650.894 401.273 650.894 401.268L650.896 351.742H643.936ZM652.976 418.071C653.262 425.805 658.375 432.103 665.069 433.662H667.939V418.071H652.976ZM652.318 433.662H660.999C656.877 431.512 653.712 427.597 652.318 422.844V433.662ZM568.913 418.064C572.185 401.777 580.205 386.674 592.147 374.754C603.877 363.047 618.681 355.116 634.665 351.742H568.913V418.064ZM652.318 416.65H667.952V401.979H652.318V416.65ZM652.318 400.557H668.52C668.566 400.548 668.614 400.543 668.663 400.543H701.029C700.816 387.569 695.564 375.173 686.358 365.982C678.485 358.124 668.262 353.151 657.338 351.742H652.318V400.557ZM664.553 351.742C673.103 354.084 680.983 358.608 687.362 364.975C694.336 371.937 699.106 380.688 701.222 390.148V351.742H664.553ZM568.913 350.306H644.013C646.253 350.089 648.508 349.958 650.773 349.919L650.912 349.906H652.25C652.31 349.906 652.369 349.916 652.425 349.93C654.071 349.978 655.708 350.103 657.33 350.306H701.819C701.857 350.3 701.894 350.295 701.933 350.295H917.771C917.598 157.771 761.726 1.96047 568.913 1.45094V350.306Z" fill="#404040"/>
</svg>
