<svg preserveAspectRatio="none" width="100%" height="100%" overflow="visible" style="display: block;" viewBox="0 0 1398.5 865.996" fill="none" xmlns="http://www.w3.org/2000/svg">
<path id="golden line pulse" d="M865.27 1C865.546 1 865.77 0.776142 865.77 0.5C865.77 0.223858 865.546 0 865.27 0V0.5V1ZM863.237 0C862.961 0 862.737 0.223858 862.737 0.5C862.737 0.776142 862.961 1 863.237 1V0.5V0ZM1398 534.498H1397.5V534.498L1398 534.498ZM1298.93 768.621L1299.28 768.975L1298.93 768.621ZM1064.51 865.496V864.996C1064.23 864.996 1064.01 865.22 1064.01 865.496C1064.01 865.772 1064.23 865.996 1064.51 865.996L1064.51 865.496ZM1066.54 865.496L1066.54 865.996C1066.82 865.996 1067.04 865.772 1067.04 865.496C1067.04 865.22 1066.82 864.996 1066.54 864.996V865.496ZM988.707 850.074L988.516 850.536H988.516L988.707 850.074ZM922.726 806.063L922.372 806.417V806.417L922.726 806.063ZM863 661.998L863.5 661.998V661.998H863ZM1043.91 557.141L1044.26 556.787V556.787L1043.91 557.141ZM1051.65 647.59L1052 647.944V647.944L1051.65 647.59ZM992 635.998C992 635.722 991.776 635.498 991.5 635.498C991.224 635.498 991 635.722 991 635.998H991.5H992ZM0.5 864.998H1C1 388.318 387.895 1 865.27 1V0.5V0C387.343 0 0 387.766 0 864.998H0.5ZM865.27 0.5V0H863.237V0.5V1H865.27V0.5ZM863.237 0.5V1C1157.43 1 1397.5 240.756 1397.5 534.498H1398H1398.5C1398.5 240.202 1157.98 0 863.237 0V0.5ZM1398 534.498L1397.5 534.498C1397.53 577.886 1386.93 620.915 1370.3 661.035L1370.77 661.226L1371.23 661.417C1387.89 621.207 1398.53 578.046 1398.5 534.497L1398 534.498ZM1370.77 661.226L1370.3 661.035C1353.68 701.139 1329.31 737.578 1298.57 768.267L1298.93 768.621L1299.28 768.975C1330.11 738.192 1354.56 701.643 1371.23 661.417L1370.77 661.226ZM1298.93 768.621L1298.57 768.267C1267.84 798.959 1231.34 823.299 1191.18 839.896L1191.37 840.358L1191.56 840.82C1231.85 824.173 1268.45 799.759 1299.28 768.975L1298.93 768.621ZM1191.37 840.358L1191.18 839.896C1151.02 856.494 1107.97 865.023 1064.51 864.996L1064.51 865.496L1064.51 865.996C1108.1 866.023 1151.28 857.468 1191.56 840.82L1191.37 840.358ZM1064.51 865.496V865.996H1066.54V865.496V864.996H1064.51V865.496ZM1066.54 865.496L1066.54 864.996C1039.9 865.01 1013.51 859.783 988.898 849.612L988.707 850.074L988.516 850.536C1013.25 860.757 1039.77 866.011 1066.54 865.996L1066.54 865.496ZM988.707 850.074L988.898 849.612C964.282 839.438 941.916 824.519 923.079 805.709L922.726 806.063L922.372 806.417C941.302 825.32 963.779 840.312 988.516 850.536L988.707 850.074ZM922.726 806.063L923.079 805.709C904.24 786.898 889.301 764.564 879.113 739.984L878.651 740.175L878.189 740.367C888.428 765.068 903.44 787.512 922.372 806.417L922.726 806.063ZM878.651 740.175L879.113 739.984C868.924 715.403 863.484 688.598 863.5 661.998L863 661.998L862.5 661.997C862.484 688.732 867.951 715.667 878.189 740.367L878.651 740.175ZM863 661.998H863.5C863.5 628.209 877.145 596.261 901.078 572.363L900.725 572.009L900.372 571.655C876.257 595.735 862.5 627.935 862.5 661.998H863ZM900.725 572.009L901.078 572.363C925.017 548.459 957.169 533.998 991 533.998V533.498V532.998C956.881 532.998 924.481 547.581 900.372 571.655L900.725 572.009ZM991 533.498V533.998C1011.33 533.998 1029.14 543.097 1043.56 557.494L1043.91 557.141L1044.26 556.787C1029.7 542.247 1011.65 532.998 991 532.998V533.498ZM1043.91 557.141L1043.56 557.494C1057.98 571.901 1068.5 591.405 1068.5 611.699H1069H1069.5C1069.5 591.065 1058.82 571.321 1044.26 556.787L1043.91 557.141ZM1069 611.699H1068.5C1068.5 624.974 1060.78 637.765 1051.3 647.236L1051.65 647.59L1052 647.944C1061.58 638.378 1069.5 625.347 1069.5 611.699H1069ZM1051.65 647.59L1051.3 647.236C1041.86 656.663 1029.05 661.958 1015.71 661.958V662.458V662.958C1029.32 662.958 1042.38 657.558 1052 647.944L1051.65 647.59ZM1015.71 662.458V661.958C1002.54 661.958 992 650.365 992 635.998H991.5H991C991 650.828 1001.91 662.958 1015.71 662.958V662.458Z" fill="var(--stroke-0, #404040)"/>
</svg>
