<svg preserveAspectRatio="none" width="100%" height="100%" overflow="visible" style="display: block;" viewBox="0 0 536.5 865.996" fill="none" xmlns="http://www.w3.org/2000/svg">
<path id="grey line 01" d="M129.5 635.998C129.5 650.596 140.225 662.458 153.706 662.458C167.187 662.458 180.117 657.11 189.651 647.59C199.184 638.072 207 625.16 207 611.699C207 591.235 196.398 571.611 181.909 557.141C167.419 542.672 149.492 533.498 129 533.498C95.025 533.498 62.7487 548.02 38.7249 572.009C14.701 595.998 1.00006 628.072 1.00006 661.998C0.983794 688.665 6.43749 715.535 16.6509 740.175C26.8644 764.816 41.84 787.205 60.7256 806.063C79.6092 824.919 102.031 839.875 126.707 850.074C151.384 860.27 177.834 865.511 204.54 865.496H202.506C246.038 865.523 289.149 856.981 329.372 840.358C369.596 823.736 406.143 799.359 436.926 768.621C467.707 737.885 492.119 701.391 508.766 661.226C525.413 621.061 536.026 577.966 536 534.498C536 240.479 295.705 0.5 1.23688 0.5H3.27026C2.3465 0.5 1.42309 0.501449 0.5 0.504346" stroke="var(--stroke-0, #404040)" stroke-linecap="round" stroke-linejoin="round"/>
</svg>
